<svg width="2100" height="1450" viewBox="0 0 2100 1450" fill="none" xmlns="http://www.w3.org/2000/svg">
<path d="M652.795 1351.62C643.731 1350.52 634.579 1350.36 625.481 1351.13C628.363 1390.35 568.089 1358.91 546.375 1397.8C558.855 1370.57 590.36 1314.58 623.762 1347.13C630.514 1346.48 637.305 1346.33 644.079 1346.69C630.031 1338.54 616.343 1329.7 603.015 1320.18C592.759 1319.13 582.399 1318.36 572.12 1319.4C575.092 1358.66 514.726 1327.23 493.03 1366.11C505.505 1338.88 537.01 1282.89 570.413 1315.44C579.102 1314.61 587.852 1314.61 596.54 1315.45C583.975 1306.18 571.789 1296.32 559.983 1285.87C550.002 1284.45 539.892 1284.17 529.847 1285.03C532.82 1324.3 472.453 1292.86 450.757 1331.74C463.231 1304.51 494.745 1248.51 528.144 1281.08C536.99 1280.23 545.898 1280.25 554.739 1281.14C537.52 1265.63 523.822 1245.41 498.815 1243.45C492.202 1282.25 441.868 1234.48 411.571 1265.89C430.36 1242.26 474.709 1198.42 498.108 1239.08C505.015 1240.44 511.807 1242.32 518.423 1244.72C497.815 1224.38 485.398 1193.8 455.185 1186.12C443.89 1223.63 399.73 1168.73 366.085 1195.33C381.74 1177.95 401.59 1159.09 426.488 1161.06C437.072 1162.12 452.592 1167.32 455.023 1181.69C462.042 1184.2 468.849 1187.26 475.381 1190.85C465.274 1176.54 455.797 1161.72 446.948 1146.41C438.303 1140.49 429.389 1135.04 419.894 1131.07C406.971 1167.97 365.31 1110.7 330.534 1135.45C347.064 1119.13 367.727 1101.25 392.372 1104.48C402.889 1106.12 418.147 1112.16 419.927 1126.65C427.727 1129.93 435.22 1133.9 442.315 1138.5C427.285 1113.1 424.288 1098.73 407.341 1071.1C377.952 1089.54 373.243 1019.91 332.244 1019.51C363.612 1015.89 420.673 1021.5 410.842 1066.09C421.44 1082.19 427.968 1100.78 437.07 1117.71C436.85 1109.56 437.179 1101.41 438.056 1093.31C425.214 1085.61 427.456 1067.06 431.249 1055.77C439.756 1031.52 463.904 1019.06 486.297 1010.32C449.726 1032.01 476.79 1095.4 441.699 1094.67C434.561 1124.69 453.584 1148.49 468.903 1172.29C468.289 1162.27 468.505 1152.2 469.549 1142.21C458.69 1133.8 460.866 1116.03 464.405 1104.95C472.505 1080.6 495.66 1067.64 517.78 1058.59C482.35 1080.35 508.378 1148.86 473.071 1144.18C471.677 1155.43 472.515 1166.9 472.755 1178.15C483.004 1193.28 494.02 1207.87 505.759 1221.88C505.293 1212.54 505.548 1203.18 506.521 1193.88C495.686 1185.46 497.86 1167.71 501.398 1156.64C509.495 1132.29 532.653 1119.33 554.768 1110.28C519.336 1132.06 545.374 1200.48 510.091 1195.88C509.088 1206.15 509 1216.49 509.829 1226.78C521.116 1240.08 532.958 1252.76 545.355 1264.82C544.683 1254.55 544.884 1244.24 545.955 1234.01C535.093 1225.6 537.27 1207.82 540.81 1196.74C548.908 1172.39 572.066 1159.43 594.181 1150.38C558.754 1172.15 584.784 1240.65 549.477 1235.98C542.653 1273.66 559.182 1277.77 584.718 1299.53C583.989 1289.12 584.169 1278.66 585.256 1268.28C574.572 1259.97 576.716 1242.46 580.206 1231.54C588.196 1207.52 611.039 1194.73 632.858 1185.8C597.904 1207.29 623.586 1274.79 588.778 1270.25C587.729 1281.05 587.688 1291.92 588.656 1302.73C600.718 1312.15 613.189 1320.93 625.965 1329.18C625.339 1319.09 625.551 1308.97 626.601 1298.92C615.741 1290.51 617.916 1272.73 621.454 1261.66C629.554 1237.31 652.712 1224.35 674.828 1215.3C639.398 1237.08 665.43 1305.5 630.148 1300.91C629.15 1311.16 629.062 1321.48 629.885 1331.74C693.435 1372.26 765.492 1397.54 840.427 1405.6C843.644 1405.94 843.331 1411.46 840.106 1411.13C774.303 1404.09 710.595 1383.85 652.795 1351.62ZM1416.02 1147.62C1416.63 1138.51 1416.31 1129.36 1415.06 1120.32C1376.04 1125.29 1404.23 1063.43 1364.25 1043.81C1392.1 1054.82 1449.69 1083.31 1418.96 1118.39C1419.97 1125.1 1420.48 1131.87 1420.48 1138.66C1427.87 1124.2 1435.97 1110.06 1444.77 1096.24C1445.28 1085.94 1445.49 1075.56 1443.91 1065.35C1404.86 1070.41 1433.04 1008.45 1393.06 988.85C1420.92 999.866 1478.51 1028.35 1447.77 1063.43C1449.07 1072.07 1449.53 1080.8 1449.15 1089.53C1457.74 1076.49 1466.94 1063.8 1476.74 1051.45C1477.63 1041.41 1477.38 1031.29 1475.98 1021.31C1436.92 1026.37 1465.11 964.413 1425.13 944.812C1452.99 955.823 1510.58 984.317 1479.83 1019.4C1481.16 1028.19 1481.61 1037.09 1481.19 1045.96C1495.77 1027.94 1515.22 1013.19 1515.85 988.112C1476.76 983.573 1521.78 930.77 1488.81 902.182C1513.4 919.688 1559.54 961.649 1520.17 987.176C1519.19 994.145 1517.67 1001.03 1515.63 1007.76C1534.85 986.101 1564.72 972.074 1570.78 941.497C1532.73 932.212 1585.2 885.197 1556.85 853.015C1575.03 867.718 1594.92 886.541 1594.29 911.511C1593.79 922.136 1589.42 937.907 1575.2 941.1C1573.06 948.241 1570.37 955.202 1567.13 961.915C1580.89 951.062 1595.18 940.81 1610 931.16C1615.45 922.214 1620.42 913.023 1623.88 903.329C1586.34 892.385 1641.32 847.741 1614.75 814.327C1631.94 829.967 1650.89 849.651 1648.96 874.433C1647.89 885.02 1642.66 900.579 1628.29 903.131C1625.43 911.093 1621.87 918.785 1617.65 926.114C1642.22 909.754 1656.4 905.997 1683.1 887.606C1663.12 859.242 1732.4 850.836 1730.62 809.875C1735.91 841.007 1733.33 898.285 1688.29 890.839C1672.78 902.276 1654.55 909.782 1638.13 919.77C1646.26 919.119 1654.41 919.015 1662.55 919.46C1669.56 906.226 1688.2 907.478 1699.68 910.669C1724.35 917.874 1738.07 941.323 1747.99 963.222C1724.38 927.854 1662.52 958.251 1661.39 923.167C1631.03 917.636 1608.28 937.897 1585.32 954.46C1595.3 953.315 1605.36 952.995 1615.39 953.506C1623.22 942.218 1641.08 943.444 1652.33 946.392C1677.07 953.182 1691.24 975.618 1701.46 997.225C1677.84 963.001 1610.82 992.634 1613.61 957.13C1602.31 956.335 1590.9 957.78 1579.68 958.616C1565.12 969.656 1551.12 981.433 1537.76 993.902C1547.06 992.938 1556.42 992.694 1565.76 993.172C1573.59 981.907 1591.44 983.132 1602.68 986.077C1627.43 992.87 1641.6 1015.3 1651.81 1036.91C1628.18 1002.69 1561.24 1032.32 1563.95 996.843C1553.64 996.387 1543.31 996.85 1533.08 998.226C1520.4 1010.2 1508.37 1022.7 1496.99 1035.72C1507.21 1034.51 1517.51 1034.16 1527.79 1034.68C1535.61 1023.39 1553.48 1024.62 1564.73 1027.56C1589.47 1034.36 1603.65 1056.79 1613.86 1078.4C1590.24 1044.18 1523.22 1073.81 1526.01 1038.31C1488.02 1033.49 1484.79 1050.22 1464.41 1076.87C1474.78 1075.59 1485.23 1075.22 1495.65 1075.75C1503.38 1064.64 1520.99 1065.85 1532.08 1068.75C1556.49 1075.45 1570.47 1097.59 1580.54 1118.9C1557.49 1085.23 1491.19 1114.34 1493.87 1079.38C1483.03 1078.9 1472.17 1079.44 1461.43 1080.98C1452.67 1093.52 1444.56 1106.44 1437 1119.64C1447.04 1118.48 1457.16 1118.15 1467.25 1118.66C1475.07 1107.37 1492.94 1108.6 1504.19 1111.54C1528.93 1118.34 1543.1 1140.78 1553.32 1162.38C1529.69 1128.16 1462.75 1157.79 1465.46 1122.31C1455.17 1121.86 1444.86 1122.32 1434.65 1123.69C1397.57 1189.3 1376.16 1262.6 1372.09 1337.86C1371.92 1341.09 1366.39 1341.07 1366.56 1337.83C1370.08 1271.75 1386.9 1207.06 1416.02 1147.62Z" fill="#28338B" fill-opacity="0.4"/>
<path d="M1386.74 1374.18L1370.96 1361.23L1396.03 1346.07L1411.99 1358.33L1412.88 1357.1L1397.44 1345.23L1422.03 1330.36L1438.42 1342.96L1439.31 1341.72L1423.43 1329.52L1450 1313.46L1467.24 1330.53L1468.28 1329.41L1451.35 1312.65L1475.16 1298.26L1474.68 1298.94L1490.28 1310.55L1491.15 1309.3L1475.8 1297.87L1496 1285.66L1495.94 1285.76L1511.53 1297.37L1512.4 1296.11L1497.3 1284.88L1522.34 1269.74L1537.19 1280.79L1538.07 1279.54L1523.76 1268.89L1550.35 1252.82L1565.76 1264.28L1566.63 1263.03L1551.76 1251.96L1583.8 1232.6L1599.13 1244.01L1600 1242.75L1585.21 1231.75L1614.1 1214.29L1629.36 1225.64L1630.23 1224.39L1615.51 1213.44L1643.99 1196.23L1659.53 1207.8L1660.4 1206.54L1645.4 1195.38L1665.94 1182.96L1676.95 1190.57L1677.78 1189.28L1667.37 1182.1L1692.89 1166.67L1701.01 1172.61L1701.87 1171.35L1694.31 1165.82L1717.22 1151.97L1726.49 1158.07L1727.29 1156.77L1718.67 1151.1L1742.23 1136.86L1750.23 1142.71L1751.09 1141.45L1743.65 1136L1767.73 1121.44L1774.44 1125.93L1775.25 1124.64L1769.17 1120.57L1787.33 1109.6L1797.9 1112.58L1798.29 1111.09L1789.14 1108.51L1807.19 1097.6L1815.71 1100L1816.1 1098.51L1808.99 1096.51L1824.09 1087.39L1831.54 1089.82L1831.99 1088.35L1825.83 1086.33L1844.27 1075.19L1842.75 1072.52L1824.29 1083.68L1825.6 1076.97L1824.13 1076.66L1822.56 1084.72L1807.52 1093.81L1809.27 1086.37L1807.82 1086.01L1805.72 1094.9L1787.75 1105.76L1789.97 1096.34L1788.51 1095.97L1785.95 1106.85L1767.81 1117.81L1767.31 1110.56L1765.81 1110.66L1766.37 1118.68L1742.33 1133.21L1741.34 1124.2L1739.85 1124.37L1740.92 1134.07L1717.88 1147.99L1716.8 1138.2L1715.32 1138.37L1716.46 1148.82L1716.51 1148.82L1693.09 1162.97L1692.12 1154.1L1690.63 1154.27L1691.68 1163.82L1666.23 1179.2L1665.22 1167.13L1663.73 1167.26L1664.8 1180.06L1644.27 1192.47L1642.15 1174.45L1640.66 1174.63L1642.86 1193.32L1614.44 1210.5L1612.38 1193.02L1610.9 1193.19L1613.04 1211.35L1584.21 1228.77L1582.16 1211.38L1580.67 1211.56L1582.8 1229.62L1550.82 1248.95L1548.79 1231.65L1547.3 1231.83L1549.41 1249.8L1522.87 1265.84L1520.94 1249.41L1519.45 1249.59L1521.46 1266.69L1496.47 1281.79L1494.44 1264.52L1492.95 1264.71L1495.07 1282.64L1475.01 1294.76L1472.96 1277.3L1471.47 1277.48L1473.6 1295.61L1450.35 1309.66L1444.79 1288.19L1443.35 1288.58L1449.02 1310.47L1422.72 1326.37L1420.32 1308.35L1418.84 1308.55L1421.32 1327.21L1396.77 1342.05L1394.47 1324.73L1392.99 1324.93L1395.37 1342.89L1369.75 1358.38L1367.32 1340.05L1365.83 1340.26L1368.35 1359.22L1243.5 1434.68L1245.02 1437.34L1369.58 1362.06L1385.81 1375.38L1386.74 1374.18Z" fill="#28338B" fill-opacity="0.4"/>
<path d="M1823.65 1079.64C1816.5 1072.13 1822.96 1023.76 1836.82 1015.35C1830.04 1029.06 1833.88 1072.71 1823.65 1079.64ZM1834.06 1071.95C1828.32 1063.25 1843.07 1016.88 1858.17 1011.16C1849.12 1023.39 1845.32 1067.02 1834.06 1071.95Z" fill="#28338B" fill-opacity="0.4"/>
<path d="M1840.98 1074.08C1838.34 1063.92 1867.1 1025.21 1883.2 1024.95C1870.74 1033.4 1853.2 1073.27 1840.98 1074.08ZM1808.09 1087.99C1799.82 1079.31 1807.3 1023.4 1823.31 1013.66C1815.47 1029.51 1819.91 1079.97 1808.09 1087.99ZM1788.95 1097.4C1779.86 1087.86 1788.08 1026.4 1805.69 1015.7C1797.07 1033.12 1801.95 1088.59 1788.95 1097.4ZM1766.36 1111.13C1756.12 1100.38 1765.38 1031.16 1785.21 1019.12C1775.5 1038.73 1780.99 1101.21 1766.36 1111.13ZM1740.97 1126.56C1729.68 1114.7 1739.89 1038.38 1761.75 1025.1C1751.05 1046.72 1757.1 1115.61 1740.97 1126.56ZM1716.17 1142.21C1704.32 1129.77 1715.03 1049.65 1737.98 1035.71C1726.74 1058.41 1733.1 1130.73 1716.17 1142.21V1142.21ZM1691.1 1157.44C1679.25 1145 1689.96 1064.88 1712.91 1050.93C1701.68 1073.64 1708.03 1145.95 1691.1 1157.44ZM1664.32 1169.72C1651.24 1155.98 1663.07 1067.52 1688.41 1052.13C1676 1077.19 1683.02 1157.04 1664.32 1169.72Z" fill="#28338B" fill-opacity="0.4"/>
<path d="M1641.48 1175.61C1628.4 1161.87 1640.22 1073.41 1665.56 1058.02C1653.16 1083.09 1660.17 1162.93 1641.48 1175.61ZM1472.79 1279.52C1455.16 1273.19 1422.36 1179.17 1438.4 1153.74C1438.1 1181.92 1484.05 1259.57 1472.79 1279.52ZM1445.07 1290.13C1427.44 1283.8 1397.99 1196.67 1414.02 1171.25C1413.73 1199.42 1456.33 1270.18 1445.07 1290.13ZM1420.24 1311.44C1402.62 1305.12 1372.02 1215.99 1388.05 1190.56C1387.76 1218.73 1431.51 1291.49 1420.24 1311.44ZM1394.69 1331.49C1377.07 1325.16 1347.19 1237.3 1363.23 1211.88C1362.93 1240.05 1405.96 1311.54 1394.69 1331.49ZM1367.52 1349.7C1349.89 1343.37 1322.36 1258.61 1338.4 1233.19C1338.1 1261.36 1378.78 1329.75 1367.52 1349.7ZM1612.09 1203.37C1596.63 1187.13 1610.61 1082.55 1640.57 1064.35C1625.9 1093.98 1634.2 1188.38 1612.09 1203.37ZM1548.12 1238.66C1531.59 1223.58 1541.95 1113.17 1570.59 1092.83C1557.99 1123.47 1569.14 1222.1 1548.12 1238.66ZM1581.41 1214.67C1565.02 1199.07 1574.07 1092.8 1603.42 1072.89C1590.05 1103.55 1602.99 1198.4 1581.41 1214.67ZM1519.85 1252.07C1501.56 1238.9 1501.23 1122.21 1527.68 1098.36C1518.48 1130.63 1539.08 1232.92 1519.85 1252.07ZM1494.48 1270.86C1475.21 1259.3 1461.67 1153.47 1486.12 1127.45C1479.53 1160.4 1512.11 1250.14 1494.48 1270.86ZM1828.66 1088.38C1831.58 1098.46 1875.8 1116.03 1889.66 1107.61C1874.73 1107.09 1839.49 1082.51 1828.66 1088.38ZM1840.02 1081.08C1844.35 1090.61 1890.58 1101.28 1903.08 1090.85C1888.25 1092.6 1849.9 1073.64 1840.02 1081.08Z" fill="#28338B" fill-opacity="0.4"/>
<path d="M1841.94 1077.24C1849.19 1084.65 1896.11 1078.15 1904.32 1063.89C1891.01 1070.84 1848.7 1066.72 1841.94 1077.24Z" fill="#28338B" fill-opacity="0.4"/>
<path d="M1843.51 1073.86C1852.87 1078.04 1894.23 1054.39 1896.85 1038.01C1886.91 1049.48 1846.09 1061.51 1843.51 1073.86ZM1813.4 1098.6C1816.78 1110.25 1867.9 1130.56 1883.91 1120.83C1866.66 1120.23 1825.92 1091.82 1813.4 1098.6ZM1797.09 1111.61C1800.8 1124.42 1857 1146.74 1874.6 1136.05C1855.63 1135.39 1810.86 1104.16 1797.09 1111.61ZM1774.49 1125.33C1778.67 1139.76 1841.96 1164.9 1861.79 1152.86C1840.43 1152.12 1790 1116.94 1774.49 1125.33ZM1749.3 1141.1C1753.91 1157.01 1823.69 1184.74 1845.56 1171.45C1822 1170.64 1766.4 1131.85 1749.3 1141.1ZM1722.41 1154.56C1727.25 1171.26 1800.51 1200.37 1823.47 1186.43C1798.74 1185.57 1740.37 1144.85 1722.41 1154.56ZM1697.15 1169.01C1701.98 1185.71 1775.24 1214.82 1798.2 1200.87C1773.47 1200.02 1715.1 1159.3 1697.15 1169.01ZM1673.76 1186.19C1679.1 1204.63 1759.98 1236.77 1785.32 1221.37C1758.02 1220.43 1693.58 1175.47 1673.76 1186.19Z" fill="#28338B" fill-opacity="0.4"/>
<path d="M1657.7 1203.94C1663.04 1222.37 1743.92 1254.51 1769.26 1239.12C1741.96 1238.17 1677.52 1193.22 1657.7 1203.94ZM1487.79 1305.72C1484.64 1324.67 1548.66 1399.73 1578.02 1397.57C1553.94 1384.21 1510.19 1305.22 1487.79 1305.72ZM1464.71 1326.62C1461.55 1345.57 1522 1413.23 1551.36 1411.07C1527.28 1397.71 1487.1 1326.12 1464.71 1326.62ZM1434.88 1339.76C1431.72 1358.71 1492.65 1429.41 1522.01 1427.26C1497.93 1413.89 1457.27 1339.26 1434.88 1339.76ZM1405.85 1350.98C1402.7 1369.92 1462.9 1439.37 1492.26 1437.21C1468.18 1423.85 1428.25 1350.47 1405.85 1350.98ZM1377.23 1366.66C1374.07 1385.6 1432.78 1451.43 1462.14 1449.28C1438.06 1435.91 1399.62 1366.16 1377.23 1366.66ZM1619.89 1216.99C1626.21 1238.79 1721.83 1276.79 1751.8 1258.59C1719.52 1257.47 1643.32 1204.32 1619.89 1216.99ZM1558.95 1257.58C1563.77 1279.78 1662.6 1323.86 1693.74 1307.88C1661.61 1304.42 1583.2 1246.65 1558.95 1257.58ZM1595.44 1239.19C1600.77 1261.51 1695.45 1304.76 1726.57 1287.94C1694.05 1285.15 1619.71 1227.6 1595.44 1239.19ZM1533.89 1276.58C1536.22 1299.43 1635.22 1356.19 1668.28 1343.88C1636.41 1336.57 1559.46 1268.5 1533.89 1276.58ZM1505.64 1290.35C1506.14 1313.32 1589.52 1376.72 1623.45 1367.28C1592.27 1357.28 1531.78 1284.48 1505.64 1290.35ZM876.913 1258.81L865.828 1275.95L847.942 1252.74L858.324 1235.5L856.996 1234.76L846.944 1251.44L829.403 1228.68L840.067 1210.98L838.736 1210.23L828.403 1227.38L809.45 1202.79L824.463 1183.74L823.24 1182.84L808.493 1201.55L791.505 1179.51L792.241 1179.91L802.015 1163.1L800.672 1162.38L791.051 1178.92L776.642 1160.22L776.746 1160.28L786.521 1143.47L785.178 1142.75L775.714 1159.02L757.855 1135.84L767.159 1119.84L765.815 1119.12L756.847 1134.54L737.878 1109.92L747.532 1093.32L746.189 1092.59L736.872 1108.62L714.021 1078.97L723.625 1062.45L722.282 1061.72L713.013 1077.66L692.41 1050.93L701.971 1034.49L700.628 1033.76L691.404 1049.62L671.094 1023.27L680.834 1006.52L679.492 1005.79L670.086 1021.96L655.436 1002.95L661.751 991.148L660.382 990.467L654.414 1001.62L636.21 978.004L641.195 969.271L639.845 968.557L635.201 976.693L618.859 955.488L623.874 945.59L622.492 944.939L617.827 954.146L601.021 932.344L605.932 923.736L604.585 923.017L600.013 931.033L582.836 908.745L586.537 901.572L585.16 900.913L581.805 907.406L568.852 890.601L570.624 879.764L569.102 879.543L567.567 888.933L554.693 872.226L556.116 863.492L554.591 863.267L553.404 870.557L542.633 856.58L544.214 848.902L542.702 848.623L541.395 854.972L528.244 837.908L525.765 839.719L538.929 856.799L532.111 856.258L531.971 857.753L540.164 858.402L550.893 872.32L543.302 871.422L543.102 872.91L552.175 873.984L564.994 890.619L555.377 889.48L555.179 890.967L566.276 892.283L579.215 909.072L572.062 910.389L572.334 911.864L580.243 910.408L597.391 932.657L588.546 934.656L588.881 936.115L598.398 933.965L614.831 955.287L605.224 957.455L605.561 958.917L615.817 956.597L615.807 956.555L632.51 978.225L623.807 980.193L624.144 981.65L633.516 979.531L651.668 1003.08L639.791 1005.44L640.085 1006.91L652.688 1004.41L667.33 1023.4L649.661 1027.55L650.01 1029L668.333 1024.71L688.602 1051.01L671.465 1055.03L671.811 1056.48L689.608 1052.31L710.169 1078.99L693.117 1082.99L693.466 1084.45L711.173 1080.3L733.98 1109.89L717.023 1113.86L717.372 1115.32L734.984 1111.19L753.917 1135.76L737.811 1139.53L738.16 1140.99L754.92 1137.06L772.745 1160.19L755.815 1164.16L756.163 1165.62L773.75 1161.49L788.052 1180.05L770.934 1184.06L771.283 1185.52L789.058 1181.35L805.638 1202.87L784.928 1210.82L785.482 1212.21L806.594 1204.11L825.351 1228.45L807.715 1232.86L808.087 1234.31L826.349 1229.74L843.855 1252.46L826.908 1256.7L827.279 1258.15L844.855 1253.75L863.129 1277.47L845.194 1281.95L845.568 1283.4L864.127 1278.76L953.179 1394.31L955.657 1392.51L866.815 1277.23L878.216 1259.59L876.913 1258.81Z" fill="#28338B" fill-opacity="0.4"/>
<path d="M534.988 857.89C528.331 865.847 479.546 864.874 469.622 852.056C484.004 857.25 526.947 848.517 534.988 857.89ZM526.177 848.418C518.173 855.1 470.439 845.67 463.051 831.309C476.221 838.929 520.006 837.779 526.177 848.418Z" fill="#28338B" fill-opacity="0.4"/>
<path d="M527.516 841.307C517.714 845.075 476.004 820.857 473.932 804.891C483.734 816.325 525.324 829.256 527.516 841.307ZM545.037 872.413C537.343 881.607 480.948 880.486 469.473 865.669C486.098 871.673 535.741 861.575 545.037 872.413ZM556.55 890.368C548.092 900.474 486.098 899.241 473.484 882.953C491.764 889.553 546.332 878.453 556.551 890.368H556.55ZM572.736 911.268C563.21 922.65 493.394 921.261 479.191 902.917C499.773 910.351 561.227 897.849 572.736 911.268ZM590.928 934.761C580.423 947.313 503.437 945.781 487.773 925.551C510.47 933.748 578.236 919.966 590.928 934.761ZM609.283 957.641C598.255 970.813 517.438 969.208 500.994 947.971C524.823 956.577 595.959 942.107 609.283 957.641ZM627.24 980.829C616.212 994.007 535.397 992.397 518.953 971.164C542.78 979.768 613.919 965.298 627.24 980.829ZM642.455 1006.05C630.283 1020.6 541.058 1018.82 522.905 995.376C549.209 1004.88 627.749 988.899 642.455 1006.05Z" fill="#28338B" fill-opacity="0.4"/>
<path d="M650.886 1028.09C638.713 1042.63 549.488 1040.86 531.335 1017.41C557.64 1026.91 636.178 1010.94 650.886 1028.09ZM773.155 1183.98C768.858 1202.21 679.135 1245.4 652.063 1232.33C680.086 1229.45 752.067 1175.04 773.155 1183.98ZM786.821 1210.33C782.525 1228.55 699.273 1267.65 672.201 1254.58C700.226 1251.7 765.731 1201.39 786.821 1210.33ZM810.797 1232.59C806.502 1250.82 721.392 1291.27 694.32 1278.2C722.345 1275.33 789.709 1223.65 810.797 1232.59ZM833.599 1255.72C829.299 1273.94 745.369 1313.54 718.295 1300.47C746.321 1297.59 812.509 1246.78 833.599 1255.72ZM854.758 1280.67C850.46 1298.89 769.346 1335.81 742.275 1322.74C770.298 1319.86 833.672 1271.72 854.758 1280.67ZM681.786 1054.15C667.396 1071.35 561.903 1069.25 540.441 1041.53C571.542 1052.76 664.396 1033.88 681.786 1054.15ZM724.064 1113.74C710.949 1131.86 600.07 1134.01 576.631 1107.85C608.491 1116.92 705.237 1094.71 724.064 1113.74ZM696.474 1083.36C682.825 1101.41 576.206 1104.4 553.112 1077.48C585.09 1087.3 677.875 1063.76 696.474 1083.36ZM740.576 1140.31C729.558 1159.97 613.642 1173.46 586.969 1149.86C620.064 1155.37 719.382 1123.36 740.576 1140.31ZM762.109 1163.4C752.795 1183.86 649.165 1209.24 620.555 1187.88C654.034 1190.71 739.535 1148.22 762.109 1163.4ZM543.105 851.934C552.795 847.894 565.265 801.976 555.338 789.154C556.512 804.044 536.061 841.828 543.105 851.934ZM534.574 841.462C543.559 836.084 548.946 788.947 537.169 777.707C540.587 792.245 526.064 832.487 534.574 841.462Z" fill="#28338B" fill-opacity="0.4"/>
<path d="M530.545 839.991C537.084 831.948 525.345 786.067 510.248 779.518C518.654 791.96 519.331 834.464 530.545 839.991Z" fill="#28338B" fill-opacity="0.4"/>
<path d="M527.003 838.814C530.104 829.04 501.935 790.607 485.369 789.859C497.888 798.44 514.449 837.643 527.003 838.814ZM554.984 865.942C566.181 861.274 580.6 808.187 569.124 793.368C570.476 810.584 546.836 854.258 554.984 865.942ZM569.749 880.682C582.059 875.552 597.909 817.194 585.294 800.905C586.782 819.826 560.796 867.84 569.748 880.682H569.749ZM585.932 901.586C599.797 895.806 617.644 830.084 603.441 811.739C605.114 833.049 575.852 887.122 585.932 901.586ZM604.441 924.845C619.727 918.47 639.411 845.999 623.746 825.77C625.593 849.268 593.322 908.891 604.441 924.845ZM620.852 950.034C636.898 943.344 657.56 867.27 641.116 846.036C643.055 870.704 609.178 933.291 620.852 950.034ZM638.055 973.514C654.103 966.824 674.765 890.749 658.323 869.514C660.26 894.182 626.385 956.769 638.055 973.514ZM657.769 994.813C675.485 987.428 698.297 903.438 680.142 879.993C682.282 907.228 644.882 976.329 657.769 994.813Z" fill="#28338B" fill-opacity="0.4"/>
<path d="M677.207 1008.77C694.925 1001.38 717.735 917.392 699.582 893.949C701.723 921.184 664.323 990.286 677.207 1008.77ZM797.502 1166.12C816.682 1167.11 884.042 1095.04 878.588 1066.1C868.028 1091.54 794.477 1143.92 797.502 1166.12ZM820.87 1186.7C840.05 1187.69 900.467 1120.01 895.014 1091.07C884.454 1116.51 817.843 1164.5 820.87 1186.7ZM837.29 1214.86C856.467 1215.85 919.856 1147.34 914.4 1118.41C903.842 1143.85 834.262 1192.66 837.29 1214.86ZM851.704 1242.43C870.884 1243.43 933.098 1175.78 927.644 1146.85C917.083 1172.28 848.679 1220.24 851.704 1242.43ZM870.515 1269.1C889.695 1270.1 948.482 1204.35 943.032 1175.42C932.471 1200.85 867.489 1246.91 870.515 1269.1ZM694.442 1044.86C715.389 1036.13 742.358 936.83 720.896 909.111C723.424 941.309 679.207 1023.01 694.442 1044.86ZM741.645 1100.83C763.161 1093.55 795.812 990.379 776.425 961.24C776.61 993.555 728.044 1077.98 741.645 1100.83ZM719.25 1066.65C740.83 1058.85 773.133 959.892 752.905 930.865C753.805 963.5 705.003 1043.85 719.25 1066.65ZM763.348 1123.6C785.792 1118.7 831.025 1013.94 815.068 982.478C811.394 1014.97 752.441 1099.1 763.348 1123.6ZM780.22 1150.11C802.986 1147.03 856.578 1057.03 843.366 1024.38C836.944 1056.49 771.439 1124.81 780.22 1150.11Z" fill="#28338B" fill-opacity="0.4"/>
<path d="M1146.1 889.317L1079.94 949.876L1002.97 887.919C1040.26 886.058 1095.15 886.021 1146.1 889.317Z" fill="#F9CBCB"/>
<path d="M1149.01 905.951C1105.16 965.053 1049.39 983.088 999.329 905.951C1004.09 877.045 1019.32 784.657 1023.78 757.346L1122.21 756.701L1149.01 905.951Z" fill="#F9CBCB"/>
<path d="M1149.01 905.951C1115.47 871.061 1112.96 788.852 1017.13 797.875L1023.78 757.345L1122.2 756.701L1149.01 905.951Z" fill="#EBB0B0"/>
<path d="M1261.43 553.775C1245 859.677 927.132 847.812 905.981 553.765C910.232 294.279 1257.21 294.302 1261.43 553.775Z" fill="#F9CBCB"/>
<path d="M1083.71 356.453C1080.9 356.453 1078.16 356.774 1075.38 356.92C1307.3 367.638 1282.73 756.407 1081.02 782.889C1300.57 780.157 1331.51 358.351 1083.71 356.453Z" fill="#EBB0B0"/>
<path d="M1276.02 531.943V532.376C1276.03 532.26 1276.02 532.141 1275.99 532.029C1275.95 531.918 1275.89 531.815 1275.81 531.73L1276.02 531.943Z" fill="#754C24"/>
<path d="M1341.77 416.37C1341.77 416.37 1351.2 535.502 1250.62 561.764C1250.63 559.372 1250.57 556.882 1250.5 554.542C1213.95 527.115 1210.21 487.692 1205.32 460.877C1197.3 406.48 1098.58 454.553 1002.01 389.067C1008.01 466.894 944.824 510.486 910.693 540.99C910.693 540.99 907.588 561.847 908.405 572.847C867.97 534.25 828.103 362.924 969.318 337.031C1060.9 174.302 1267.83 448.496 1355 287.136C1355 287.136 1352.55 409.207 1300.51 428.861C1300.51 428.861 1330.76 430.083 1341.77 416.37Z" fill="#252E51"/>
<path d="M1501.23 1421.57H664.912C664.912 1421.57 708.476 1046.2 745.932 993.808C783.479 946.688 931.396 905.846 1002.97 887.918L1079.95 949.875L1146.1 889.316C1227.96 899.221 1353.94 928.978 1398.21 980.706C1435.67 1033.18 1501.23 1421.57 1501.23 1421.57Z" fill="#3D4547"/>
<path d="M1177.74 904.842C1154.08 930.888 1142.44 957.806 1144.41 985.715C1129.23 978.801 1094.56 963.127 1079.06 956.134C1056.53 967.336 1033.99 978.521 1011.44 989.689C1000.82 959.149 986.17 932.156 966.695 909.405L993.332 890.568L1002.97 887.918L1079.95 949.875L1146.1 889.316C1148.67 887.47 1175.23 903.85 1177.74 904.842Z" fill="#646A6C"/>
<path d="M1276.57 535.103H1261.92C1297.85 217.303 861.405 217.532 897.421 535.103H882.764C846.424 198.043 1313 198.278 1276.57 535.103Z" fill="#323536"/>
<path d="M874.43 522.604C874.132 502.283 906.053 502.283 905.753 522.604C906.049 542.924 874.13 542.924 874.43 522.604ZM1253.58 522.604C1253.29 502.283 1285.21 502.283 1284.91 522.604C1285.2 542.924 1253.28 542.924 1253.58 522.604Z" fill="#838889"/>
<path d="M1062.7 721.124C1062.74 721.11 1062.77 721.1 1062.81 721.09C1062.28 719.807 1058.19 703.432 1057.7 701.611C1052.25 702.491 1046.49 705.263 1045 710.817C958.881 732.667 890.588 711.761 894.356 622.291L879.723 621.486C871.364 723.681 967.08 749.858 1049.73 724.734C1053.65 727.821 1059.26 727.079 1063.83 725.551L1062.7 721.124Z" fill="#323536"/>
<g style="mix-blend-mode:multiply">
<path d="M1062.7 721.125C1062.74 721.111 1062.77 721.101 1062.81 721.091C1062.28 719.808 1058.19 703.433 1057.7 701.612L1057.43 701.681C1057.97 703.751 1060.66 714.567 1061.31 716.341C1061.27 716.353 1061.23 716.361 1061.19 716.375L1062.32 720.803C1057.75 722.33 1052.15 723.07 1048.22 719.984C986.294 737.231 906.466 733.027 884.244 666.307C903.78 736.875 986.129 742.701 1049.73 724.735C1053.65 727.822 1059.26 727.08 1063.83 725.552L1062.7 721.125Z" fill="white"/>
<path d="M892.689 622.199C892.327 636.977 894.201 650.253 898.218 661.795C894.882 650.151 893.553 636.922 894.358 622.291L892.689 622.199Z" fill="#CCCCCC"/>
</g>
<path d="M828.131 594.589C828.131 622.126 848.071 644.448 872.671 644.448V544.729C848.071 544.729 828.131 567.051 828.131 594.589Z" fill="#28338B" fill-opacity="0.85"/>
<path d="M829.887 583.813C829.887 582.559 829.974 581.331 830.055 580.098C828.776 584.822 828.129 589.695 828.131 594.589C828.131 622.126 848.071 644.448 872.671 644.448V633.571C848.893 632.532 829.887 610.686 829.887 583.813Z" fill="#CCCCCC"/>
<path d="M1268.58 478.116C1259.09 478.153 1252.43 470.1 1252.51 460.726C1243.67 372.199 1168.06 303.031 1076.95 304.438C987.191 305.827 913.769 375.608 906.539 463.865C906.125 467.766 904.286 471.378 901.374 474.007C898.463 476.637 894.684 478.1 890.76 478.116C880.165 478.14 872.994 468.234 875.2 457.931C885.468 353.035 974.99 271.02 1082.89 272.687C1189.13 274.333 1276.09 357.018 1284.45 461.551C1284.55 463.694 1284.21 465.835 1283.46 467.843C1282.7 469.851 1281.55 471.685 1280.06 473.234C1278.58 474.783 1276.8 476.014 1274.82 476.854C1272.85 477.693 1270.72 478.122 1268.58 478.116Z" fill="#28338B"/>
<path d="M1068.03 301.83C977.214 301.83 902.45 371.892 894.948 460.804C894.671 464.346 893.22 467.695 890.826 470.32C888.432 472.945 885.23 474.697 881.729 475.299C891.322 482.303 905.963 475.391 906.589 463.388C913.845 363.285 1011.62 287.69 1111.4 307.351C1097.23 303.689 1082.66 301.833 1068.03 301.83ZM1284.42 461.088C1276.8 368.643 1207.71 293.37 1118.23 276.309C1202 297.429 1265.5 370.108 1272.78 458.5C1273.08 462.441 1271.9 466.351 1269.45 469.458C1267.01 472.566 1263.49 474.646 1259.59 475.287C1269.93 482.951 1285.87 474.027 1284.42 461.088Z" fill="#CCCCCC"/>
<path d="M890.09 526.48C882.935 526.481 876.073 529.324 871.014 534.383C865.955 539.443 863.113 546.304 863.112 553.459V635.716C863.112 642.872 865.955 649.734 871.014 654.794C876.074 659.853 882.936 662.695 890.091 662.695C897.246 662.695 904.109 659.853 909.168 654.794C914.228 649.734 917.07 642.872 917.07 635.716V553.461C917.07 549.918 916.372 546.409 915.016 543.136C913.66 539.863 911.673 536.889 909.168 534.384C906.662 531.879 903.688 529.891 900.415 528.536C897.142 527.18 893.633 526.482 890.09 526.482V526.48Z" fill="#28338B"/>
<path d="M895.383 527.006C903.645 534.314 898.177 613.277 899.653 623.789C899.846 640.602 883.798 653.703 867.381 650.244C870.52 655.162 875.17 658.928 880.632 660.979C886.094 663.029 892.074 663.253 897.674 661.615C903.274 659.978 908.192 656.569 911.689 651.899C915.187 647.229 917.075 641.551 917.071 635.717V553.461C917.069 547.225 914.907 541.182 910.953 536.359C907 531.536 901.498 528.231 895.383 527.006Z" fill="#CCCCCC"/>
<path d="M1284.84 538.146V637.864C1343.37 636.836 1343.32 539.157 1284.84 538.146Z" fill="#28338B" fill-opacity="0.85"/>
<path d="M1327.62 577.228C1327.62 575.976 1327.53 574.747 1327.45 573.516C1328.73 578.239 1329.38 583.112 1329.38 588.007C1329.38 615.544 1309.44 637.864 1284.84 637.864V626.989C1308.61 625.948 1327.62 604.102 1327.62 577.229V577.228Z" fill="#CCCCCC"/>
<path d="M1267.41 519.9C1260.26 519.9 1253.4 522.743 1248.34 527.803C1243.28 532.862 1240.43 539.725 1240.43 546.88V629.136C1240.43 632.679 1241.13 636.188 1242.49 639.461C1243.84 642.735 1245.83 645.709 1248.34 648.214C1250.84 650.719 1253.82 652.707 1257.09 654.063C1260.36 655.419 1263.87 656.116 1267.41 656.116C1270.96 656.116 1274.47 655.419 1277.74 654.063C1281.01 652.707 1283.99 650.719 1286.49 648.214C1289 645.709 1290.98 642.735 1292.34 639.461C1293.7 636.188 1294.39 632.679 1294.39 629.136V546.88C1294.39 543.337 1293.7 539.829 1292.34 536.555C1290.98 533.282 1289 530.308 1286.49 527.802C1283.99 525.297 1281.01 523.31 1277.74 521.954C1274.47 520.598 1270.96 519.9 1267.41 519.9Z" fill="#28338B"/>
<path d="M1262.12 520.424C1253.86 527.73 1259.33 606.695 1257.85 617.205C1257.66 634.02 1273.71 647.121 1290.12 643.66C1287.69 647.478 1284.33 650.62 1280.36 652.797C1276.4 654.974 1271.94 656.116 1267.41 656.116C1252.26 656.609 1239.85 642.278 1240.43 629.109C1240.45 626.767 1240.42 547.039 1240.44 546.259C1240.59 540.13 1242.81 534.233 1246.75 529.537C1250.69 524.841 1256.11 521.627 1262.12 520.424Z" fill="#CCCCCC"/>
<path d="M1106.36 720.179C1091.39 722.74 1059.72 739.199 1053.76 715.284C1053.18 713.021 1053.05 710.666 1053.38 708.353C1053.71 706.04 1054.49 703.815 1055.68 701.805C1056.87 699.795 1058.45 698.039 1060.32 696.638C1062.19 695.236 1064.31 694.217 1066.58 693.638C1081.24 691.132 1113.61 674.61 1119.18 698.533C1120.35 703.103 1119.65 707.951 1117.25 712.01C1114.85 716.07 1110.93 719.008 1106.36 720.179Z" fill="#838889"/>
<path d="M1119.18 698.534C1118.22 694.783 1116.06 691.449 1113.03 689.037C1110 686.626 1106.26 685.269 1102.39 685.174C1118.86 689.827 1118.39 715.582 1101.33 719.317C1098.08 719.905 1068.14 728.485 1065.51 727.779C1072.31 731.235 1099.27 721.194 1106.36 720.179C1110.93 719.008 1114.85 716.07 1117.25 712.011C1119.65 707.952 1120.35 703.104 1119.18 698.534Z" fill="#CCCCCC"/>
<path d="M1072.56 702.745C1072.9 702.573 1073.3 702.541 1073.67 702.656C1074.03 702.771 1074.34 703.024 1074.52 703.362C1074.7 703.699 1074.75 704.095 1074.64 704.464C1074.54 704.833 1074.29 705.147 1073.96 705.338C1073.62 705.511 1073.22 705.543 1072.86 705.428C1072.49 705.313 1072.18 705.06 1072 704.722C1071.82 704.385 1071.77 703.989 1071.88 703.62C1071.98 703.251 1072.23 702.937 1072.56 702.745Z" fill="#CCCCCC"/>
<path d="M1080.77 704.286C1080.8 703.903 1080.98 703.549 1081.27 703.298C1081.57 703.048 1081.94 702.922 1082.33 702.946C1082.71 702.971 1083.07 703.145 1083.33 703.43C1083.59 703.716 1083.72 704.091 1083.71 704.475C1083.67 704.858 1083.49 705.212 1083.2 705.463C1082.91 705.713 1082.53 705.839 1082.14 705.814C1081.76 705.79 1081.4 705.616 1081.14 705.33C1080.89 705.045 1080.75 704.67 1080.77 704.286Z" fill="#CCCCCC"/>
<path d="M1080.53 713.861C1080.57 713.478 1080.75 713.123 1081.04 712.873C1081.33 712.622 1081.71 712.496 1082.1 712.521C1082.48 712.545 1082.84 712.719 1083.1 713.005C1083.35 713.29 1083.49 713.666 1083.48 714.05C1083.44 714.433 1083.26 714.788 1082.97 715.039C1082.67 715.29 1082.3 715.416 1081.91 715.391C1081.53 715.366 1081.17 715.192 1080.91 714.906C1080.65 714.62 1080.52 714.246 1080.53 713.861Z" fill="#CCCCCC"/>
<path d="M1074.57 710.575C1074.91 710.401 1075.31 710.369 1075.68 710.483C1076.04 710.598 1076.35 710.851 1076.53 711.189C1076.72 711.526 1076.76 711.922 1076.66 712.291C1076.55 712.661 1076.31 712.975 1075.97 713.167C1075.63 713.34 1075.23 713.373 1074.87 713.258C1074.5 713.143 1074.2 712.89 1074.01 712.553C1073.83 712.215 1073.79 711.819 1073.89 711.45C1074 711.081 1074.24 710.766 1074.57 710.575Z" fill="#CCCCCC"/>
<path d="M1076.37 696.496C1076.71 696.33 1077.1 696.302 1077.46 696.419C1077.82 696.535 1078.13 696.786 1078.31 697.12C1078.49 697.454 1078.53 697.845 1078.43 698.211C1078.33 698.577 1078.09 698.89 1077.77 699.086C1077.43 699.251 1077.04 699.279 1076.67 699.163C1076.31 699.046 1076.01 698.795 1075.83 698.461C1075.65 698.127 1075.6 697.737 1075.7 697.371C1075.8 697.004 1076.04 696.691 1076.37 696.496Z" fill="#CCCCCC"/>
<path d="M1085.02 697.078C1085.37 696.892 1085.77 696.85 1086.15 696.962C1086.52 697.074 1086.84 697.33 1087.02 697.674C1087.21 698.018 1087.25 698.421 1087.14 698.796C1087.03 699.171 1086.77 699.486 1086.43 699.672C1086.26 699.764 1086.07 699.821 1085.88 699.841C1085.68 699.861 1085.49 699.843 1085.3 699.788C1085.12 699.732 1084.95 699.641 1084.8 699.519C1084.65 699.397 1084.52 699.246 1084.43 699.076C1084.34 698.905 1084.28 698.719 1084.26 698.526C1084.24 698.333 1084.26 698.139 1084.31 697.953C1084.37 697.768 1084.46 697.595 1084.58 697.445C1084.7 697.294 1084.85 697.17 1085.02 697.078Z" fill="#CCCCCC"/>
<path d="M1089.2 692.202C1089.55 692.025 1089.94 691.989 1090.31 692.102C1090.68 692.216 1090.99 692.47 1091.18 692.81C1091.36 693.149 1091.4 693.547 1091.3 693.918C1091.19 694.289 1090.94 694.603 1090.6 694.793C1090.26 694.962 1089.87 694.993 1089.5 694.877C1089.14 694.762 1088.84 694.509 1088.65 694.174C1088.47 693.838 1088.43 693.445 1088.53 693.077C1088.63 692.71 1088.87 692.396 1089.2 692.203L1089.2 692.202Z" fill="#CCCCCC"/>
<path d="M1096.4 694.324C1096.74 694.158 1097.13 694.13 1097.49 694.247C1097.85 694.363 1098.15 694.614 1098.34 694.948C1098.52 695.282 1098.56 695.673 1098.46 696.039C1098.36 696.405 1098.12 696.718 1097.8 696.914C1097.46 697.08 1097.06 697.107 1096.7 696.991C1096.34 696.875 1096.04 696.623 1095.86 696.289C1095.68 695.956 1095.63 695.565 1095.73 695.199C1095.83 694.832 1096.07 694.519 1096.4 694.324Z" fill="#CCCCCC"/>
<path d="M1099.73 688.899C1100.07 688.731 1100.46 688.702 1100.82 688.818C1101.19 688.934 1101.49 689.185 1101.67 689.52C1101.85 689.855 1101.9 690.247 1101.8 690.613C1101.7 690.98 1101.46 691.294 1101.13 691.489C1100.79 691.656 1100.39 691.685 1100.03 691.569C1099.67 691.454 1099.37 691.202 1099.18 690.867C1099 690.533 1098.96 690.141 1099.06 689.774C1099.16 689.407 1099.4 689.093 1099.73 688.899Z" fill="#CCCCCC"/>
<path d="M1106.38 694.028C1106.72 693.851 1107.12 693.815 1107.49 693.929C1107.86 694.042 1108.17 694.296 1108.35 694.636C1108.54 694.975 1108.58 695.373 1108.47 695.744C1108.37 696.115 1108.12 696.429 1107.78 696.619C1107.44 696.791 1107.04 696.823 1106.68 696.708C1106.31 696.593 1106.01 696.34 1105.82 696.004C1105.64 695.667 1105.6 695.272 1105.7 694.904C1105.81 694.535 1106.05 694.22 1106.38 694.028Z" fill="#CCCCCC"/>
<path d="M1103.74 699.707C1104.08 699.541 1104.47 699.513 1104.83 699.629C1105.2 699.746 1105.5 699.997 1105.68 700.331C1105.86 700.665 1105.91 701.055 1105.81 701.422C1105.7 701.788 1105.47 702.101 1105.14 702.297C1104.8 702.464 1104.41 702.493 1104.04 702.377C1103.68 702.261 1103.38 702.01 1103.2 701.675C1103.02 701.341 1102.97 700.949 1103.07 700.582C1103.17 700.215 1103.41 699.901 1103.74 699.707Z" fill="#CCCCCC"/>
<path d="M1100.39 708.284C1100.02 708.418 1099.62 708.403 1099.27 708.243C1098.92 708.083 1098.64 707.791 1098.5 707.429C1098.37 707.068 1098.37 706.666 1098.53 706.312C1098.69 705.957 1098.97 705.678 1099.33 705.535C1099.7 705.395 1100.1 705.406 1100.46 705.565C1100.82 705.724 1101.1 706.019 1101.24 706.383C1101.38 706.748 1101.36 707.153 1101.21 707.51C1101.05 707.866 1100.75 708.144 1100.39 708.284Z" fill="#CCCCCC"/>
<path d="M1107.93 710.062C1107.57 710.198 1107.17 710.184 1106.81 710.024C1106.46 709.864 1106.18 709.571 1106.04 709.208C1105.9 708.845 1105.91 708.442 1106.07 708.086C1106.23 707.731 1106.52 707.452 1106.88 707.309C1107.24 707.174 1107.65 707.188 1108 707.348C1108.35 707.508 1108.63 707.801 1108.77 708.164C1108.91 708.527 1108.9 708.93 1108.74 709.285C1108.58 709.641 1108.29 709.92 1107.93 710.062Z" fill="#CCCCCC"/>
<path d="M1095.19 713.672C1094.83 713.799 1094.44 713.779 1094.09 713.618C1093.74 713.457 1093.47 713.166 1093.33 712.808C1093.2 712.451 1093.2 712.054 1093.35 711.701C1093.51 711.349 1093.79 711.07 1094.14 710.922C1094.5 710.796 1094.9 710.815 1095.25 710.977C1095.59 711.138 1095.87 711.428 1096 711.786C1096.14 712.144 1096.13 712.541 1095.98 712.893C1095.83 713.245 1095.55 713.525 1095.19 713.672Z" fill="#CCCCCC"/>
<path d="M1088.73 705.613C1089.07 705.438 1089.47 705.403 1089.83 705.517C1090.2 705.632 1090.51 705.886 1090.69 706.225C1090.88 706.563 1090.92 706.961 1090.81 707.331C1090.71 707.701 1090.46 708.016 1090.13 708.206C1089.78 708.382 1089.39 708.416 1089.02 708.302C1088.65 708.188 1088.34 707.934 1088.16 707.595C1087.97 707.256 1087.93 706.859 1088.04 706.488C1088.14 706.118 1088.39 705.804 1088.73 705.613Z" fill="#CCCCCC"/>
<path d="M1093.97 701.008C1094.31 700.836 1094.71 700.804 1095.07 700.92C1095.44 701.035 1095.74 701.288 1095.93 701.625C1096.11 701.963 1096.15 702.358 1096.05 702.727C1095.94 703.096 1095.7 703.41 1095.37 703.602C1095.03 703.774 1094.63 703.806 1094.26 703.691C1093.9 703.576 1093.59 703.323 1093.41 702.985C1093.23 702.648 1093.18 702.253 1093.29 701.884C1093.39 701.515 1093.64 701.201 1093.97 701.008Z" fill="#CCCCCC"/>
<path d="M1059.95 702.056C1059.91 701.676 1060.02 701.296 1060.25 700.995C1060.49 700.694 1060.83 700.496 1061.21 700.442C1061.58 700.389 1061.97 700.484 1062.28 700.708C1062.59 700.932 1062.8 701.267 1062.86 701.643C1062.9 702.022 1062.8 702.403 1062.56 702.704C1062.33 703.005 1061.98 703.203 1061.61 703.256C1061.23 703.31 1060.84 703.215 1060.53 702.991C1060.22 702.767 1060.01 702.432 1059.95 702.056Z" fill="#CCCCCC"/>
<path d="M1066.89 707.809C1067.23 707.632 1067.63 707.596 1068 707.71C1068.37 707.823 1068.68 708.077 1068.86 708.417C1069.04 708.757 1069.09 709.155 1068.98 709.526C1068.87 709.897 1068.62 710.211 1068.29 710.4C1067.95 710.572 1067.55 710.604 1067.18 710.489C1066.82 710.374 1066.51 710.122 1066.33 709.785C1066.15 709.448 1066.1 709.054 1066.21 708.685C1066.31 708.316 1066.56 708.003 1066.89 707.81V707.809Z" fill="#CCCCCC"/>
<path d="M1066.52 715.64C1066.87 715.463 1067.26 715.428 1067.63 715.542C1068 715.656 1068.31 715.91 1068.49 716.249C1068.68 716.588 1068.72 716.985 1068.62 717.356C1068.51 717.727 1068.26 718.041 1067.93 718.232C1067.58 718.403 1067.19 718.435 1066.82 718.32C1066.46 718.205 1066.15 717.952 1065.97 717.616C1065.79 717.279 1065.74 716.885 1065.85 716.516C1065.95 716.148 1066.19 715.833 1066.52 715.64Z" fill="#CCCCCC"/>
<path d="M1112.3 703.226C1111.93 703.357 1111.53 703.341 1111.18 703.18C1110.83 703.019 1110.56 702.727 1110.42 702.366C1110.28 702.005 1110.29 701.605 1110.44 701.251C1110.6 700.897 1110.88 700.617 1111.24 700.473C1111.61 700.341 1112.01 700.358 1112.36 700.518C1112.71 700.679 1112.98 700.971 1113.12 701.332C1113.26 701.693 1113.25 702.094 1113.1 702.448C1112.94 702.802 1112.65 703.081 1112.3 703.226Z" fill="#CCCCCC"/>
<path d="M1066.84 698.23C1067.18 698.064 1067.57 698.037 1067.93 698.153C1068.29 698.269 1068.59 698.52 1068.78 698.854C1068.96 699.188 1069 699.579 1068.9 699.945C1068.8 700.311 1068.56 700.625 1068.24 700.82C1067.9 700.986 1067.5 701.013 1067.14 700.897C1066.78 700.781 1066.48 700.53 1066.3 700.196C1066.12 699.862 1066.07 699.471 1066.17 699.105C1066.27 698.739 1066.51 698.425 1066.84 698.23Z" fill="#CCCCCC"/>
<path d="M1058.57 708.038C1058.92 707.862 1059.31 707.827 1059.68 707.941C1060.05 708.055 1060.36 708.308 1060.54 708.647C1060.73 708.986 1060.77 709.384 1060.66 709.755C1060.56 710.125 1060.31 710.44 1059.98 710.63C1059.63 710.807 1059.23 710.842 1058.87 710.728C1058.5 710.614 1058.19 710.36 1058 710.021C1057.82 709.682 1057.78 709.285 1057.88 708.914C1057.99 708.543 1058.24 708.229 1058.57 708.038Z" fill="#CCCCCC"/>
<path d="M784.882 1003.16H1363.77C1367.6 1003.16 1371.4 1003.91 1374.94 1005.38C1378.49 1006.85 1381.71 1009 1384.42 1011.71C1387.13 1014.42 1389.28 1017.64 1390.75 1021.19C1392.22 1024.73 1392.97 1028.53 1392.97 1032.36V1374.38C1392.97 1378.21 1392.22 1382.01 1390.75 1385.55C1389.28 1389.1 1387.13 1392.32 1384.42 1395.03C1381.7 1397.74 1378.48 1399.89 1374.94 1401.36C1371.4 1402.83 1367.6 1403.58 1363.76 1403.58H784.883C781.047 1403.58 777.249 1402.83 773.705 1401.36C770.161 1399.89 766.941 1397.74 764.229 1395.03C761.517 1392.32 759.366 1389.1 757.898 1385.55C756.43 1382.01 755.675 1378.21 755.675 1374.37V1032.36C755.675 1028.53 756.43 1024.73 757.898 1021.19C759.365 1017.64 761.517 1014.42 764.229 1011.71C766.941 1009 770.161 1006.85 773.704 1005.38C777.248 1003.91 781.046 1003.16 784.882 1003.16Z" fill="white"/>
<path d="M1320.52 1003.16C1300.32 1355.72 1026.13 1359.85 755.675 1346.41C756.68 1364.4 748.886 1403.57 777.173 1403.58L1371.47 1403.59C1383.35 1403.59 1392.97 1393.24 1392.97 1380.46V1026.28C1393.21 991.311 1341.07 1006.07 1320.52 1003.16Z" fill="#D3E6F0"/>
<path d="M1041.49 1223.37C1041.67 1181.81 1106.98 1181.82 1107.15 1223.37C1106.98 1264.93 1041.67 1264.93 1041.49 1223.37Z" fill="#D3E6F0"/>
<path d="M1676.33 398.018C1442.64 393.828 1442.68 46.53 1676.34 42.375C1910.03 46.565 1909.99 393.862 1676.33 398.018ZM1676.33 56.309C1460.96 60.172 1460.99 380.251 1676.34 384.082C1891.71 380.219 1891.68 60.14 1676.33 56.309Z" fill="#28338B" fill-opacity="0.64"/>
<path d="M1694.45 411.262C1466.86 407.181 1466.89 68.9621 1694.46 64.9121C1922.04 68.9921 1922 407.217 1694.45 411.262ZM1694.45 69.5561C1472.96 73.5281 1473 402.678 1694.46 406.618C1915.93 402.646 1915.9 73.4961 1694.45 69.5561Z" fill="#28338B" fill-opacity="0.22"/>
<path d="M1668.97 418.039C1441.38 413.959 1441.42 75.7365 1668.98 71.6895C1896.56 75.7695 1896.52 413.989 1668.97 418.039ZM1668.97 76.3325C1447.48 80.3055 1447.52 409.454 1668.98 413.395C1890.46 409.422 1890.42 80.2735 1668.97 76.3325Z" fill="#28338B" fill-opacity="0.22"/>
<path d="M1661.43 245.011C1660.43 244.492 1659.47 243.906 1658.55 243.258C1659.62 243.644 1660.6 244.24 1661.43 245.01V245.011Z" fill="white"/>
<path d="M1673.66 248.297C1720.71 248.089 1720.71 176.535 1673.66 176.332C1626.6 176.542 1626.6 248.092 1673.66 248.297Z" fill="#28338B"/>
<path d="M1640.3 240.348C1640.61 240.738 1640.94 241.13 1641.27 241.521C1639.58 242.209 1637.83 242.766 1636.05 243.188C1637.3 242.018 1638.74 241.059 1640.3 240.348ZM1711.54 241.391C1710.9 241.127 1710.26 240.842 1709.64 240.537C1709.7 240.464 1709.75 240.391 1709.83 240.305C1710.43 240.615 1711 240.978 1711.54 241.391Z" fill="white"/>
<path d="M1706.66 248.59C1693.92 242.001 1681.08 270.483 1651.99 249.196C1638.34 242.71 1630.57 263.671 1630.49 276.236C1630.36 277.754 1630.54 279.282 1631.03 280.724C1631.52 282.167 1632.3 283.493 1633.33 284.618C1634.36 285.744 1635.61 286.644 1637 287.263C1638.39 287.883 1639.89 288.207 1641.42 288.216H1708.66C1729.01 285.667 1717.29 255.031 1706.66 248.589V248.59ZM1761.37 208.17C1762.01 234.204 1732.63 252.346 1709.64 240.536C1724.76 223.396 1722.15 193.124 1704.59 178.83C1727.06 161.827 1762.27 179.644 1761.37 208.17ZM1771.32 272.104C1771.45 273.621 1771.26 275.149 1770.77 276.591C1770.28 278.034 1769.5 279.359 1768.47 280.484C1767.44 281.609 1766.2 282.509 1764.8 283.128C1763.41 283.747 1761.91 284.071 1760.38 284.08H1727.06C1730.25 273.6 1727.05 261.009 1721.78 252.456C1737.73 256.843 1748.77 238.494 1758.38 244.442C1766.38 250.688 1771.32 259.926 1771.32 272.104ZM1630.37 212.31C1630.36 223.043 1634.23 233.418 1641.27 241.52C1618.33 251.302 1591.23 233.234 1591.75 208.17C1590.94 180.525 1624.1 162.522 1646.85 177.7C1641.7 181.879 1637.55 187.154 1634.7 193.142C1631.84 199.13 1630.37 205.678 1630.37 212.31ZM1621.8 276.235C1621.69 278.904 1622.1 281.569 1623.01 284.08C1612.98 282.553 1583.09 290.251 1584.56 272.106C1584.56 260.434 1588.98 251.453 1596.25 245.23C1606.02 239.072 1615.52 255.291 1628.06 252.684C1623.83 259.799 1621.66 267.954 1621.79 276.234L1621.8 276.235Z" fill="#28338B"/>
<path d="M178.721 884.747C-54.9722 880.557 -54.9352 533.261 178.728 529.105C412.414 533.295 412.375 880.591 178.721 884.747ZM178.721 543.039C-36.6592 546.902 -36.6272 866.982 178.728 870.812C394.1 866.952 394.065 546.868 178.721 543.039Z" fill="#28338B" fill-opacity="0.64"/>
<path d="M196.835 897.993C-30.7551 893.91 -30.7182 555.691 196.843 551.641C424.425 555.723 424.39 893.944 196.835 897.993ZM196.835 556.285C-24.6501 560.261 -24.6142 889.408 196.843 893.348C418.321 889.376 418.287 560.226 196.835 556.285Z" fill="#28338B" fill-opacity="0.22"/>
<path d="M171.357 904.765C-56.2329 900.685 -56.1949 562.463 171.364 558.416C398.946 562.496 398.91 900.72 171.357 904.765ZM171.357 563.06C-50.1269 567.033 -50.0929 896.182 171.364 900.121C392.844 896.151 392.807 566.999 171.357 563.06Z" fill="#28338B" fill-opacity="0.22"/>
<path d="M144.852 659.469C92.5859 657.949 58.3689 720.322 86.6219 763.594C77.9089 770.052 74.4669 784.57 71.4219 799.695C103.367 782.396 113.222 792.414 144.85 796.158C234.683 794.636 234.671 660.982 144.852 659.469Z" fill="#28338B"/>
<path d="M284.081 754.38C258.149 735.144 244.426 744.04 218.526 750.39C233.555 704.03 198.363 653.27 150.02 650.935C194.41 569.629 315.9 637.733 268.88 718.278C279.143 724.388 282.76 738.071 284.08 754.38H284.081Z" fill="#28338B"/>
<path d="M109.325 726.834C109.183 716.974 124.668 716.974 124.523 726.834C124.668 736.694 109.181 736.694 109.325 726.834ZM134.71 726.834C134.565 716.974 150.051 716.974 149.906 726.834C150.05 736.694 134.564 736.694 134.709 726.834H134.71ZM160.092 726.834C159.947 716.974 175.435 716.974 175.289 726.834C175.434 736.694 159.946 736.694 160.092 726.834Z" fill="white"/>
<path d="M550.558 297.945C376.24 294.82 376.267 35.7611 550.563 32.6621C724.876 35.7881 724.848 294.845 550.558 297.945ZM550.558 43.0551C389.898 45.9351 389.924 284.695 550.561 287.551C711.215 284.671 711.189 45.9141 550.558 43.0561V43.0551Z" fill="#28338B" fill-opacity="0.64"/>
<path d="M564.069 307.826C394.303 304.78 394.332 52.4917 564.076 49.4727C733.836 52.5167 733.808 304.806 564.069 307.826ZM564.069 52.9357C398.857 55.8987 398.885 301.421 564.076 304.36C729.284 301.397 729.256 55.8747 564.069 52.9357Z" fill="#28338B" fill-opacity="0.22"/>
<path d="M545.064 312.879C375.299 309.835 375.326 57.5464 545.071 54.5254C714.831 57.5704 714.805 309.859 545.064 312.879ZM545.064 57.9894C379.852 60.9534 379.877 306.476 545.071 309.413C710.276 306.454 710.25 60.9294 545.064 57.9904V57.9894Z" fill="#28338B" fill-opacity="0.22"/>
<path d="M553.175 92.5782C599.897 94.5752 636.188 133.255 634.231 178.964C632.124 263.361 510.638 287.149 474.201 212.906C443.706 158.534 491.274 87.6642 553.175 92.5782Z" fill="#28338B"/>
<path d="M551.66 92.5273C548.737 98.0973 542.765 95.4173 538.268 98.2023C534.582 100.661 532.66 105.478 533.842 107.012C534.728 108.166 537.092 107.068 537.565 108.036C538.505 110.906 529.643 115.525 527.026 117.169C523.846 123.171 520.043 125.812 513.279 123.411C510.318 128.731 512.03 141.052 499.867 135.751C498.165 136.611 499.967 140.056 497.815 143.213C493.679 148.238 489.816 146.527 486.443 148.093C481.436 159.06 489.976 164.496 484.328 177.598C482.088 182.884 479.253 183.713 479.904 186.391C479.292 187.414 485.904 192.975 487.175 196.418C486.975 198.358 483.346 198.254 481.896 200.991C480.936 202.784 483.091 204.206 482.216 207.088C481.046 210.132 477.972 213.641 474.203 212.908C462.461 191.435 461.875 161.906 473.031 139.838C480.333 134.362 489.892 132.293 493.11 123.865C498.59 110.833 496.251 116.129 506.023 113.389C508.246 94.1193 534.533 93.3303 551.661 92.5273H551.66ZM494.893 219.146C495.591 222.036 500.6 224.693 503.985 227.408C509.148 231.56 506.765 230.316 503.784 232.121C502.941 233.571 505.064 237.088 506.724 236.972C510.56 230.625 519.897 227.293 515.389 218.451C518.606 215.943 521.287 220.261 523.112 221.93C524.829 222.465 525.779 220.304 527.896 220.56C530.06 220.822 530.063 223.202 532.477 223.905C536.778 223.788 538 221.729 545.117 222.871C550.76 223.147 550.357 222.851 551.401 223.141C555.199 224.186 555.445 226.714 559.058 228.191C567.258 229.416 590.313 227.451 592.265 224.889C581.638 218.109 606.312 216.661 608.516 212.987C614.389 203.687 619.955 192.647 625.577 182.23C637.451 159.876 619.201 183.128 615.588 158.184C614.82 156.617 614.441 142.782 611.543 142.268C606.192 140.063 610.309 160.005 604.38 162.428C596.305 164.673 597.02 159.263 591.542 168.176C589.162 165.893 588.283 159.457 580.943 158.276C575.384 159.21 576.689 155.256 573.354 151.654C569.591 149.308 567.031 150 565.766 145.033C563.962 142.151 561.94 142.829 559.68 140.049C557.941 137.905 558.512 136.726 556.74 135.199C553.716 132.318 551.078 133.334 547.242 136.367C543.932 137.868 542.396 136.249 540.891 137.669C539.048 139.405 541.008 142.148 538.982 145.459C538.222 146.701 537.772 146.6 535.706 148.469C531.216 152.524 531.752 154.439 529.083 156.058C525.607 158.157 523.629 155.566 519.584 157.227C514.444 159.337 511.348 166.109 512.828 167.957C514.814 170.439 525.292 164.358 527.037 166.992C523.861 178.265 537.985 170.095 541.115 169.167C542.303 169.925 541.674 174.227 539.207 176.957C532.186 183.713 531.302 177.467 525.131 174.78C511.671 175.147 519.158 191.618 517.904 196.515C516.436 198.721 513.564 197.772 511.417 200.959C510.4 204.771 507.429 204.946 504.859 206.978C502.625 213.294 500.302 208.704 496.867 209.784C496.305 210.325 496.825 211.065 496.733 212.926C496.563 216.396 494.593 217.011 494.893 219.146Z" fill="#28338B" fill-opacity="0.22"/>
<path d="M2083.85 785.52C2075.51 965.254 1804.54 957.535 1806.43 777.643C1814.77 597.915 2085.74 605.632 2083.85 785.52ZM1817.3 777.955C1815.58 943.776 2065.32 950.834 2072.98 785.205C2074.7 619.392 1824.96 612.334 1817.3 777.955Z" fill="#28338B" fill-opacity="0.64"/>
<path d="M2094.58 771.871C2086.46 946.91 1822.57 939.396 1824.41 764.201C1832.53 589.169 2096.42 596.684 2094.58 771.871ZM1828.03 764.311C1826.26 934.828 2083.08 942.087 2090.96 771.764C2092.72 601.248 1835.91 593.992 1828.03 764.31L1828.03 764.311Z" fill="#28338B" fill-opacity="0.22"/>
<path d="M2099.31 791.631C2091.19 966.667 1827.3 959.153 1829.13 783.959C1837.26 608.924 2101.15 616.438 2099.31 791.631ZM1832.76 784.067C1830.99 954.587 2087.81 961.844 2095.69 791.522C2097.45 621.01 1840.64 613.752 1832.76 784.067Z" fill="#28338B" fill-opacity="0.22"/>
<path d="M1940.69 792.716L1932.64 792.838C1931.4 791.152 1929.97 789.609 1928.39 788.24C1928.26 785.814 1931.29 778.726 1927.76 777.488C1925.58 776.718 1921.48 773.445 1919.36 775.878C1914.32 781.069 1914.73 781.633 1907.35 780.971C1902.59 775.157 1902.21 771.545 1893.94 775.365C1890.27 776.131 1892.33 783.553 1891.93 785.932C1890.18 787.086 1888.56 788.433 1887.11 789.947C1884.63 790.077 1877.16 787.157 1875.79 790.513C1870.54 798.177 1874.74 798.691 1879.92 803.814C1879.55 805.825 1879.41 807.872 1879.52 809.914C1873.76 814.379 1869.47 814.374 1873.65 822.64C1874.55 826.162 1882.37 824.166 1884.77 824.574C1886.02 826.261 1887.44 827.803 1889.03 829.172C1889.14 831.599 1886.14 838.683 1889.66 839.922C1897.38 844.782 1898.24 841.192 1903.65 836.029C1905.77 836.394 1907.92 836.53 1910.06 836.434C1914.82 842.247 1915.2 845.866 1923.48 842.047C1927.14 841.278 1925.08 833.867 1925.48 831.487C1927.24 830.33 1928.85 828.98 1930.31 827.463C1932.78 827.333 1940.26 830.25 1941.62 826.893C1946.87 819.234 1942.68 818.719 1937.49 813.593C1937.86 811.584 1938 809.538 1937.9 807.496C1939.53 805.752 1946.99 802.804 1945.45 799.494C1944.48 797.424 1943.96 792.402 1940.69 792.716ZM1915.45 827.512C1890.46 836.197 1875.81 798.179 1901.97 789.897C1926.95 781.215 1941.6 819.232 1915.45 827.512Z" fill="#28338B"/>
<path d="M1893.54 808.28C1892.72 826.959 1923.64 827.832 1923.87 809.138C1924.7 790.449 1893.77 789.566 1893.54 808.28ZM1916.51 808.931C1916.39 818.546 1900.47 818.094 1900.89 808.488C1901.02 798.858 1916.94 799.312 1916.51 808.931ZM2020.37 710.378C2010 713.658 2011.16 714.988 2001.59 709.224C2000.33 705.924 2001.26 695.034 1995.92 694.784C1992.66 694.636 1985.58 691.761 1983.74 695.973C1978.63 705.774 1980.6 705.337 1969.63 707.778C1960.29 701.883 1959.03 696.728 1948.82 705.526C1944.15 708.096 1950.33 717.414 1950.82 720.781C1948.94 723.065 1947.33 725.559 1946.03 728.213C1935.52 730.413 1930.37 727.076 1929.68 740.597C1928.36 745.638 1939.7 748.037 1942.42 750.068C1942.82 752.976 1943.54 755.828 1944.59 758.568C1938.45 767.418 1932.97 768.57 1942.29 778.328C1945.03 782.764 1954.81 776.928 1958.32 776.483C1960.77 778.287 1963.4 779.819 1966.18 781.053C1967.42 784.367 1966.52 795.236 1971.84 795.494C1984.98 798.826 1983.66 794.301 1989.2 784.527C1992.24 784.175 1995.23 783.493 1998.12 782.492C2007.46 788.387 2008.73 793.552 2018.94 784.75C2023.61 782.18 2017.43 772.871 2016.95 769.508C2018.83 767.218 2020.43 764.719 2021.74 762.061C2032.24 759.859 2037.39 763.201 2038.08 749.68C2039.41 744.637 2028.06 742.238 2025.34 740.207C2024.95 737.3 2024.22 734.448 2023.17 731.709C2024.65 728.637 2033.48 721.589 2029.9 717.724C2027.66 715.299 2024.71 708.633 2020.37 710.378ZM2001.49 768.121C1971.03 789.584 1934.26 745.129 1966.28 722.148C1996.73 700.695 2033.5 745.15 2001.49 768.121Z" fill="#28338B"/>
<path d="M1963 750.676C1969.87 776.194 2012.68 765.73 2004.76 739.611C1997.89 714.075 1955.08 724.539 1963 750.676ZM1994.63 742.296C1998.7 755.729 1976.66 761.117 1973.13 747.992C1969.05 734.542 1991.1 729.151 1994.63 742.296Z" fill="#28338B"/>
<path d="M1885.45 535.972C1884.69 537.906 1852.33 580.788 1854.06 582.183C1859.58 587.707 1869.83 582.638 1875.9 578.175C1896.69 561.1 1898.23 526.418 1870.88 514.686C1796.02 485.684 1778.42 619.005 1864.67 601.297L1876.6 607.176C1792.41 640.411 1763.17 515.606 1847.46 500.236C1896.25 496.559 1921.16 554.826 1881.55 585.845C1871.67 594.787 1839.37 600.363 1841.15 580.37C1819.01 589.076 1805.74 565.397 1817.13 546.065C1825.85 524.35 1864.04 502.8 1869.82 536.435L1874.11 530.376L1885.45 535.972ZM1827.94 554.935C1822.19 564.268 1826.35 577.175 1838.16 572.935C1847.16 568.435 1863.84 548.265 1862.14 537.199C1853.13 517.659 1832.57 544.299 1827.94 554.935Z" fill="#28338B" fill-opacity="0.4"/>
<path opacity="0.109" d="M1780.94 731.442C1781.35 731.43 1781.76 731.328 1782.13 731.144C1782.51 730.959 1782.83 730.696 1783.1 730.373C1783.36 730.05 1783.54 729.675 1783.65 729.272C1783.75 728.87 1783.76 728.45 1783.69 728.042C1782.71 724.909 1780.67 722.222 1777.9 720.457C1773.49 716.465 1768.86 712.723 1764.03 709.247C1761.72 706.916 1758.66 705.478 1755.4 705.186C1754.98 705.197 1754.58 705.299 1754.2 705.484C1753.83 705.668 1753.5 705.931 1753.24 706.254C1752.98 706.577 1752.79 706.952 1752.69 707.355C1752.59 707.758 1752.58 708.177 1752.65 708.586C1753.62 711.719 1755.67 714.408 1758.43 716.175C1762.85 720.162 1767.48 723.905 1772.31 727.385C1774.62 729.714 1777.67 731.152 1780.94 731.442Z" fill="white"/>
<path opacity="0.109" d="M1761.74 717.734C1763.78 717.48 1764.68 716.335 1764.44 714.299C1763.24 711.008 1760.98 708.21 1758.01 706.346C1753.19 702.129 1748.15 698.161 1742.92 694.458C1740.41 692.01 1737.16 690.467 1733.68 690.071C1733.26 690.063 1732.84 690.154 1732.46 690.335C1732.07 690.516 1731.74 690.783 1731.48 691.115C1731.22 691.447 1731.03 691.835 1730.95 692.249C1730.86 692.662 1730.87 693.09 1730.98 693.5C1732.18 696.792 1734.44 699.592 1737.41 701.456C1742.23 705.672 1747.27 709.639 1752.5 713.34C1755.01 715.789 1758.26 717.334 1761.74 717.734Z" fill="white"/>
<path opacity="0.109" d="M1770.09 698.841C1772.48 698.841 1775.71 696.639 1775.71 693.986C1775.72 691.82 1771.79 686.734 1769.45 686.734C1767.06 686.734 1763.83 688.935 1763.83 691.587C1763.83 693.757 1767.76 698.841 1770.09 698.841Z" fill="white"/>
<path opacity="0.109" d="M1776.41 709.17C1778.91 709.726 1779.98 708.736 1779.62 706.2C1777.88 701.533 1775.06 697.345 1771.39 693.981C1765.28 686.906 1758.93 680.054 1752.34 673.426C1749.26 669.507 1745.3 666.376 1740.78 664.29C1738.28 663.74 1737.21 664.729 1737.57 667.26C1739.31 671.929 1742.13 676.118 1745.81 679.48C1751.91 686.555 1758.26 693.408 1764.85 700.038C1767.93 703.956 1771.89 707.086 1776.41 709.17Z" fill="white"/>
<path opacity="0.109" d="M1786.22 697.273C1787.67 696.885 1788.94 696.017 1789.83 694.811C1790.26 694.209 1790.48 693.486 1790.47 692.747C1790.46 692.008 1790.22 691.292 1789.78 690.701C1788.81 688.708 1787.56 686.869 1786.05 685.245C1785.67 684.616 1785.09 684.126 1784.4 683.847C1783.72 683.567 1782.97 683.513 1782.25 683.69C1780.8 684.076 1779.53 684.944 1778.64 686.151C1778.21 686.753 1777.99 687.476 1778 688.215C1778.01 688.954 1778.25 689.67 1778.7 690.261C1779.66 692.254 1780.91 694.094 1782.42 695.718C1782.8 696.347 1783.38 696.837 1784.07 697.116C1784.75 697.396 1785.51 697.451 1786.22 697.273Z" fill="white"/>
<path opacity="0.109" d="M1757.14 716.076C1759.61 716.076 1762.23 712.595 1761.73 710.236C1761.2 707.719 1756.33 703.998 1753.79 703.998C1751.32 703.998 1748.71 707.478 1749.2 709.84C1749.73 712.353 1754.61 716.076 1757.14 716.076Z" fill="white"/>
<path opacity="0.109" d="M1768.96 735.852C1772.69 735.852 1775.11 733.265 1772.99 729.609C1768.08 724.874 1762.29 721.137 1755.95 718.605C1752.22 718.605 1749.81 721.193 1751.92 724.845C1756.83 729.585 1762.62 733.323 1768.96 735.852Z" fill="white"/>
<path opacity="0.109" d="M1789 708.261C1796.93 708.261 1789 697.451 1787.67 695.391C1783.67 689.484 1779.4 683.773 1774.87 678.256C1772.88 674.943 1769.93 672.313 1766.4 670.715C1758.48 670.715 1766.4 681.526 1767.73 683.585C1771.74 689.492 1776 695.203 1780.53 700.721C1782.53 704.033 1785.48 706.662 1789 708.261Z" fill="white"/>
<path opacity="0.109" d="M1762.43 706.211C1765.26 706.211 1768.19 704.028 1767.57 700.848C1765.37 696.914 1762.04 693.725 1758.02 691.688C1755.19 691.688 1752.25 693.874 1752.87 697.051C1755.08 700.985 1758.41 704.174 1762.43 706.211Z" fill="white"/>
<path opacity="0.109" d="M1770.88 696.139C1778.14 696.139 1771.32 686.682 1770.11 684.995C1766.62 680.394 1762.88 675.996 1758.89 671.822C1757.11 669.176 1754.43 667.268 1751.34 666.451C1744.08 666.451 1750.9 675.908 1752.11 677.595C1755.6 682.196 1759.34 686.594 1763.33 690.767C1765.11 693.413 1767.8 695.322 1770.88 696.139Z" fill="white"/>
<path opacity="0.109" d="M1787.35 720.476C1795.78 720.476 1785.27 708.539 1784.41 707.475C1779.64 701.79 1774.62 696.327 1769.36 691.087C1766.94 687.885 1763.64 685.459 1759.87 684.109C1751.43 684.109 1761.94 696.05 1762.8 697.112C1767.58 702.796 1772.6 708.259 1777.86 713.499C1780.27 716.703 1783.57 719.128 1787.35 720.475L1787.35 720.476Z" fill="white"/>
<path opacity="0.109" d="M1759.35 725.996C1762.01 725.996 1764.32 722.289 1763.56 719.875C1762.7 717.158 1757 713.438 1754.22 713.438C1751.56 713.438 1749.24 717.141 1750 719.553C1750.86 722.271 1756.56 725.996 1759.35 725.996Z" fill="white"/>
<path d="M443.719 474.715L373.044 472.661C377.392 466.529 465.717 411.624 473.162 410.432L443.719 474.715Z" fill="#28338B" fill-opacity="0.4"/>
<path d="M487.716 417.709C543.714 504.125 528.986 471.852 425.321 543.459C421.817 545.633 417.593 546.328 413.578 545.389C409.563 544.45 406.084 541.955 403.908 538.453C401.164 531.876 367.917 486.385 370.864 479.209L447.904 481.449L479.998 411.375C483.201 412.574 485.915 414.801 487.716 417.709ZM1498.64 70.2046C1484.75 55.8876 1475.42 77.9206 1462.32 69.4046C1450.67 61.0976 1426.89 46.3286 1432.9 28.8846C1445.58 11.5386 1425.02 -9.16039 1407.75 5.85261L1398.26 15.6026C1368.92 38.6466 1440.03 94.1166 1465.91 109.272C1479.59 117.35 1488.22 105.324 1496.23 97.0776L1496.22 97.0706C1504.6 90.4206 1506.77 77.9656 1498.64 70.2046ZM812.486 75.9206L789.371 90.9366C773.263 71.6066 790.522 59.6286 787.686 39.8686C777.741 27.8726 763.322 46.1656 772.7 57.8206L747.201 70.2366C718.847 28.1516 806.306 -19.5934 815.833 34.9926C817.32 45.4486 803.313 65.3726 812.486 75.9196V75.9206ZM792.571 97.5956L817.33 81.5096L831.519 103.349L806.759 119.435L792.571 97.5956ZM698.565 715.913C702.928 708.595 685.799 712.472 684.136 708.546C677.249 693.19 676.786 693.096 669.624 708.429C669.071 710.583 658.078 710.743 656.493 711.317C648.665 714.673 664.8 721.605 663.837 725.757C660.384 742.227 660.705 742.577 675.509 734.384C679.195 732.251 690.559 745.63 691.469 737.163C688.931 722.923 688.057 725.734 698.565 715.913ZM305.809 1173.02C310.169 1165.71 293.041 1169.58 291.38 1165.66C284.49 1150.3 284.029 1150.21 276.866 1165.54C276.314 1167.7 265.323 1167.85 263.736 1168.43C255.908 1171.79 272.043 1178.72 271.079 1182.87C267.629 1199.34 267.947 1199.69 282.754 1191.49C286.435 1189.37 297.803 1202.74 298.71 1194.28C296.174 1180.03 295.302 1182.85 305.809 1173.02ZM1161.13 116.851C1165.49 109.534 1148.36 113.411 1146.7 109.487C1139.81 94.1306 1139.35 94.0366 1132.18 109.37C1131.63 111.522 1120.64 111.682 1119.06 112.257C1111.23 115.614 1127.36 122.547 1126.4 126.697C1122.95 143.167 1123.27 143.517 1138.07 135.323C1141.75 133.192 1153.12 146.57 1154.03 138.105C1151.49 123.863 1150.62 126.673 1161.13 116.852V116.851ZM1586.28 504.359C1590.64 497.043 1573.51 500.919 1571.85 496.993C1564.96 481.639 1564.5 481.543 1557.33 496.878C1556.78 499.028 1545.79 499.189 1544.21 499.765C1536.38 503.118 1552.51 510.052 1551.55 514.204C1548.1 530.676 1548.42 531.022 1563.22 522.827C1566.91 520.7 1578.27 534.077 1579.18 525.612C1576.64 511.371 1575.77 514.182 1586.28 504.359ZM1437.2 753.167C1441.56 745.851 1424.43 749.726 1422.77 745.799C1415.88 730.445 1415.42 730.352 1408.26 745.682C1407.71 747.837 1396.71 747.996 1395.13 748.572C1387.3 751.927 1403.43 758.86 1402.47 763.012C1399.02 779.482 1399.34 779.83 1414.15 771.638C1417.83 769.505 1429.2 782.884 1430.1 774.418C1427.56 760.177 1426.69 762.988 1437.2 753.167ZM1930.44 1254.62C1934.8 1247.3 1917.67 1251.17 1916.01 1247.25C1909.12 1231.9 1908.66 1231.8 1901.5 1247.13C1900.94 1249.29 1889.95 1249.45 1888.36 1250.02C1880.54 1253.38 1896.67 1260.31 1895.71 1264.46C1892.26 1280.93 1892.58 1281.28 1907.38 1273.09C1911.07 1270.96 1922.43 1284.33 1923.34 1275.87C1920.8 1261.63 1919.93 1264.44 1930.44 1254.62ZM751.241 299.366C755.601 292.05 738.474 295.924 736.813 292.001C729.925 276.645 729.461 276.553 722.3 291.882C721.745 294.037 710.754 294.196 709.17 294.771C701.34 298.128 717.475 305.061 716.511 309.211C713.06 325.681 713.379 326.031 728.185 317.837C731.869 315.707 743.235 329.083 744.143 320.62C741.605 306.377 740.733 309.187 751.241 299.366ZM1809.68 1444.45H238.873C232.807 1444.44 226.99 1442.03 222.701 1437.75C218.412 1433.46 216.003 1427.64 216.003 1421.57C216.003 1415.51 218.412 1409.69 222.701 1405.4C226.99 1401.11 232.807 1398.7 238.873 1398.7H1809.68C1812.69 1398.7 1815.66 1399.29 1818.43 1400.44C1821.21 1401.59 1823.73 1403.28 1825.85 1405.4C1827.98 1407.52 1829.66 1410.05 1830.81 1412.82C1831.96 1415.6 1832.55 1418.57 1832.55 1421.57C1832.55 1424.58 1831.96 1427.55 1830.81 1430.33C1829.66 1433.1 1827.98 1435.62 1825.86 1437.75C1823.73 1439.87 1821.21 1441.55 1818.44 1442.7C1815.66 1443.85 1812.69 1444.45 1809.68 1444.45Z" fill="#28338B" fill-opacity="0.4"/>
</svg>
