<svg width="192" height="149" viewBox="0 0 192 149" fill="none" xmlns="http://www.w3.org/2000/svg">
<path d="M191.786 70.94C191.786 78.41 191.716 85.88 191.816 93.35C191.856 96.41 190.736 98.91 188.826 101.13C184.766 105.86 179.396 108.65 173.776 110.94C169.976 112.49 166.026 113.7 162.116 114.97C161.226 115.26 160.926 115.63 160.936 116.55C160.976 121.74 160.886 126.94 160.976 132.13C161.056 136.87 164.216 140.07 168.916 140.38C170.996 140.52 172.976 142.25 173.026 143.98C173.076 145.96 170.986 147.98 168.726 147.98C156.526 148 144.326 148.02 132.136 147.89C131.126 147.88 129.516 147.02 129.276 146.22C128.866 144.85 129.196 143.2 129.486 141.72C129.556 141.34 130.606 140.96 131.236 140.89C136.826 140.32 140.006 137.19 140.236 131.67C140.386 128.06 140.256 124.43 140.296 120.82C140.296 119.95 140.046 119.77 139.176 119.86C129.226 120.82 119.276 121.75 109.316 122.61C108.356 122.69 107.946 123.01 107.606 123.87C104.866 130.76 102.046 137.62 99.3059 144.51C98.6859 146.08 97.5759 146.88 96.0059 146.9C94.4059 146.92 93.3059 145.99 92.7159 144.49C91.9059 142.44 91.0959 140.39 90.2659 138.35C88.2759 133.4 86.3059 128.45 84.2559 123.53C84.0859 123.12 83.3759 122.72 82.8859 122.68C77.1359 122.26 71.3759 122.01 65.6359 121.5C61.4159 121.13 57.2259 120.46 53.0259 119.91C52.3859 119.83 51.6959 119.52 51.7159 120.62C51.7959 124.87 51.5759 129.15 52.0359 133.36C52.4959 137.62 55.9159 140.58 60.2059 140.8C62.7259 140.93 63.3759 142.15 63.2059 144.8C63.0759 146.81 61.9759 147.96 59.8459 147.98C53.9559 148.02 48.0559 148 42.1659 148C36.0959 148 30.0259 148.04 23.9559 147.97C22.9059 147.96 21.6959 147.71 20.8459 147.15C19.6159 146.34 18.7959 145 19.1559 143.41C19.5459 141.65 21.2059 140.49 23.1959 140.4C26.6959 140.24 29.0659 138.45 30.4459 135.31C30.7359 134.64 30.9059 133.86 30.9059 133.12C30.9459 127.63 30.8959 122.15 30.9659 116.66C30.9859 115.41 30.3859 115.14 29.3759 114.85C21.9959 112.68 14.7259 110.17 8.39587 105.67C6.23587 104.14 4.28587 102.23 2.54587 100.23C0.965873 98.43 0.165874 96.17 0.175874 93.65C0.205874 78.53 0.205874 63.42 0.175874 48.3C0.175874 44.42 2.16587 41.57 4.78587 39.07C8.97587 35.07 14.0959 32.54 19.4159 30.47C22.8659 29.13 26.4359 28.09 29.9159 26.83C30.3559 26.67 30.8759 25.99 30.8859 25.55C30.9559 22.05 31.0259 18.54 30.8859 15.05C30.7159 11.06 26.5559 7.22 22.4959 7.09C20.3959 7.02 19.0759 6.14 18.7759 4.61C18.4959 3.17 19.5959 1.37 21.3359 0.68C22.2259 0.33 23.2159 0.07 24.1659 0.06C36.6559 0.02 49.1459 0.05 61.6359 0.01C62.6459 0.01 63.1759 0.29 63.5559 1.24C65.8259 6.89 68.2059 12.5 70.4459 18.16C70.9259 19.36 71.4359 19.83 72.8059 19.77C80.9559 19.43 89.1159 19 97.2659 18.99C104.716 18.99 112.176 19.41 119.626 19.79C120.826 19.85 121.096 19.36 121.436 18.53C123.786 12.79 126.176 7.07 128.486 1.32C128.846 0.39 129.246 0 130.326 0C143.046 0.04 155.776 0.02 168.496 0.03C170.796 0.03 172.466 1.1 173.016 2.84C173.716 5.04 172.526 6.96 170.226 7.04C164.196 7.24 160.846 11.91 160.926 17.26C160.966 19.83 161.006 22.4 160.896 24.96C160.846 26.2 161.296 26.67 162.436 26.99C168.816 28.78 175.016 31.03 180.776 34.36C184.636 36.59 188.296 39.14 190.436 43.2C191.186 44.63 191.686 46.38 191.716 47.99C191.846 55.63 191.776 63.28 191.776 70.93L191.786 70.94ZM95.9859 74.97C110.146 74.9 124.216 73.97 138.216 71.85C147.386 70.47 156.446 68.68 165.276 65.85C172.266 63.61 179.116 61.02 184.836 56.21C187.646 53.85 189.776 51 189.206 47.04C188.726 43.7 186.446 41.43 183.946 39.49C177.406 34.42 169.676 31.92 161.916 29.51C161.116 29.26 160.926 29.66 160.946 30.41C160.986 32.1 161.046 33.8 160.926 35.48C160.826 36.8 161.246 37.55 162.436 38.21C163.896 39.02 165.286 40.04 166.496 41.19C168.026 42.64 169.186 44.37 169.236 46.65C169.316 50.09 167.256 52.25 164.786 54.09C160.046 57.63 154.516 59.41 148.916 60.99C135.546 64.77 121.816 66.19 108.026 66.82C91.9559 67.56 75.9159 66.91 59.9759 64.5C52.5759 63.38 45.2359 62 38.2059 59.45C34.4259 58.08 30.6659 56.33 27.3259 54.1C21.3659 50.12 21.0759 43.69 26.8259 40.16C30.3259 38.01 31.5359 35.54 30.9159 31.77C30.8559 31.43 30.8859 31.07 30.9159 30.72C30.9959 29.67 30.8159 29.24 29.5659 29.71C26.9159 30.7 24.1459 31.39 21.4959 32.4C16.0459 34.48 10.7559 36.88 6.41587 40.91C1.61587 45.36 1.48587 50.58 6.09587 55.17C7.28587 56.35 8.62587 57.41 10.0159 58.35C16.1059 62.47 22.9759 64.84 29.9559 66.86C44.4459 71.06 59.3259 73.02 74.3059 74.18C81.5059 74.73 88.7459 74.73 95.9759 74.98L95.9859 74.97ZM116.396 30.23C115.106 30.07 113.976 29.86 112.826 29.81C108.296 29.64 103.756 29.37 99.2259 29.43C91.7859 29.53 84.3559 29.9 76.9159 30.08C75.5359 30.11 75.7159 30.58 76.1259 31.5C76.9959 33.45 77.8059 35.44 78.6159 37.42C82.0359 45.78 85.4559 54.14 88.8459 62.52C89.3859 63.86 90.0059 64.63 91.7259 64.52C94.8059 64.31 97.9059 64.41 100.986 64.49C102.036 64.52 102.516 64.14 102.886 63.21C105.526 56.66 108.216 50.13 110.886 43.6C112.706 39.17 114.536 34.74 116.396 30.23ZM97.4059 98.79C97.4059 100.66 97.4059 102.53 97.4059 104.39C97.4059 109.23 97.4359 114.08 97.3859 118.92C97.3759 120.04 97.6559 120.49 98.8459 120.41C100.646 120.3 102.466 120.31 104.266 120.34C105.336 120.36 105.596 119.92 105.586 118.88C105.546 105.52 105.546 92.15 105.586 78.79C105.586 77.58 105.176 77.35 104.106 77.4C102.416 77.48 100.716 77.5 99.0359 77.4C97.7659 77.32 97.3559 77.65 97.3659 79C97.4459 85.59 97.4059 92.19 97.3959 98.78L97.4059 98.79ZM47.6459 94.95C47.6459 88.36 47.6059 81.77 47.6859 75.18C47.7059 73.81 47.2359 73.36 45.9659 73.22C44.3559 73.04 42.7359 72.79 41.1759 72.35C39.9459 72 39.6859 72.31 39.7059 73.51C39.7659 77.3 39.7259 81.09 39.7259 84.88C39.7259 94.33 39.7559 103.77 39.6959 113.22C39.6959 114.46 40.0159 114.96 41.2759 115.1C42.8759 115.28 44.5059 115.56 46.0259 116.07C47.5559 116.58 47.6759 115.94 47.6659 114.71C47.6359 108.12 47.6559 101.53 47.6459 94.94V94.95ZM78.8859 98.46C78.8859 105.1 78.9159 111.75 78.8559 118.39C78.8459 119.6 79.2059 120.07 80.3859 120.07C82.0159 120.07 83.6559 120.05 85.2759 120.18C86.3759 120.27 86.5659 119.8 86.5259 118.88C86.4759 117.72 86.5159 116.55 86.5159 115.38C86.5159 103.26 86.4859 91.13 86.5559 79.01C86.5559 77.61 86.0759 77.16 84.8059 77.16C83.2959 77.16 81.7659 77.19 80.2659 77.05C79.0259 76.93 78.8559 77.46 78.8659 78.53C78.9059 85.17 78.8859 91.82 78.8859 98.46ZM76.4059 98.45C76.4059 91.8 76.3659 85.16 76.4359 78.51C76.4559 77.14 76.1059 76.68 74.7059 76.73C73.2659 76.79 71.7759 76.7 70.3659 76.41C68.8759 76.1 68.7559 76.7 68.7659 77.93C68.8059 86.44 68.7859 94.95 68.7859 103.46C68.7859 108.24 68.8059 113.02 68.7659 117.8C68.7659 118.68 68.8559 119.15 69.9359 119.17C71.4959 119.2 73.0559 119.41 74.5959 119.68C75.8859 119.91 76.4559 119.78 76.4359 118.2C76.3459 111.61 76.3959 105.03 76.3959 98.44L76.4059 98.45ZM135.976 96.3C135.976 102.95 135.986 109.61 135.966 116.26C135.966 117.28 135.936 117.89 137.366 117.47C138.846 117.03 140.456 116.96 142.016 116.83C143.416 116.72 143.896 116.19 143.886 114.67C143.806 102.41 143.846 90.16 143.846 77.9C143.846 76.79 143.826 75.68 143.846 74.57C143.866 73.89 143.706 73.71 142.956 73.85C141.136 74.21 139.296 74.53 137.446 74.65C136.206 74.73 135.946 75.18 135.956 76.34C136.006 82.99 135.986 89.65 135.976 96.3ZM59.0459 96.66C59.0459 103.13 59.1159 109.6 58.9959 116.07C58.9659 117.85 59.4559 118.48 61.2159 118.38C62.3059 118.32 63.4259 118.52 64.5059 118.74C65.7759 119 66.2559 118.72 66.2459 117.3C66.1959 104.07 66.2059 90.84 66.2259 77.61C66.2259 76.54 66.1659 75.89 64.7759 75.93C63.4659 75.96 62.1359 75.65 60.8359 75.39C59.5259 75.13 58.9859 75.36 59.0059 76.9C59.0959 83.48 59.0459 90.07 59.0459 96.66ZM172.756 66.05C170.756 66.72 168.916 67.4 167.036 67.96C165.806 68.32 165.356 68.94 165.366 70.29C165.426 83.35 165.396 96.41 165.396 109.47C165.396 109.7 165.426 109.94 165.396 110.17C165.276 111.09 165.636 111.3 166.466 110.98C167.986 110.41 169.486 109.78 171.046 109.35C172.396 108.98 172.796 108.31 172.786 106.89C172.726 93.83 172.746 80.77 172.756 67.71C172.756 67.2 172.756 66.69 172.756 66.05ZM11.7059 62.48C11.7059 76.42 11.7059 90.19 11.7359 103.96C11.7359 104.42 12.0659 105.09 12.4359 105.3C14.1659 106.25 15.9759 107.04 17.7259 107.95C18.8159 108.51 18.9859 108.08 18.9759 107.06C18.9359 103.73 18.9659 100.41 18.9659 97.08C18.9659 87.16 18.9459 77.24 18.9859 67.32C18.9859 66.25 18.7559 65.65 17.6759 65.23C15.6959 64.45 13.7959 63.46 11.7059 62.48ZM133.566 96.5C133.566 89.91 133.526 83.32 133.596 76.73C133.606 75.46 133.226 75.12 132.056 75.31C130.796 75.51 129.536 75.71 128.266 75.78C126.936 75.85 126.626 76.46 126.636 77.75C126.686 90.05 126.666 102.36 126.666 114.66C126.666 115.71 126.586 116.77 126.716 117.8C126.756 118.13 127.356 118.64 127.696 118.63C129.086 118.62 130.476 118.43 131.866 118.33C133.036 118.24 133.626 117.88 133.606 116.44C133.506 109.79 133.566 103.15 133.556 96.5H133.566ZM155.636 92.66C155.636 99.31 155.656 105.96 155.616 112.6C155.616 113.69 155.806 114.07 156.986 113.65C158.236 113.21 159.566 112.97 160.876 112.71C162.206 112.45 162.716 111.85 162.706 110.36C162.626 97.3 162.666 84.24 162.666 71.17C162.666 70.94 162.646 70.7 162.666 70.47C162.756 69.57 162.456 69.38 161.576 69.67C160.096 70.15 158.586 70.6 157.056 70.88C155.906 71.09 155.596 71.57 155.606 72.71C155.656 79.36 155.636 86.01 155.636 92.65V92.66ZM153.136 71.93C151.156 72.29 149.266 72.55 147.426 73.01C146.976 73.12 146.366 73.9 146.366 74.37C146.306 87.84 146.316 101.32 146.306 114.79C146.306 115.62 146.346 116.14 147.476 115.78C148.686 115.39 149.956 115.13 151.216 115.03C152.746 114.91 153.176 114.27 153.166 112.73C153.096 99.66 153.126 86.6 153.126 73.53C153.126 73.01 153.126 72.49 153.126 71.91L153.136 71.93ZM21.4959 66.86V68.78C21.4959 81.21 21.4959 93.64 21.4959 106.07C21.4959 108.383 22.5925 109.923 24.7859 110.69C27.2459 111.543 28.4759 110.667 28.4759 108.06C28.4759 95.63 28.4759 83.2 28.4459 70.77C28.4459 70.17 28.2159 69.18 27.8359 69.03C25.8159 68.21 23.7059 67.6 21.4859 66.86H21.4959ZM115.016 98.44C115.016 91.67 114.996 84.91 115.036 78.14C115.036 77.09 114.846 76.7 113.686 76.88C112.426 77.08 111.126 77.12 109.856 77.05C108.636 76.98 108.266 77.35 108.286 78.59C108.356 83.72 108.316 88.86 108.316 93.99C108.316 102.16 108.346 110.32 108.286 118.49C108.276 119.81 108.616 120.28 109.936 120.11C111.206 119.94 112.496 119.79 113.766 119.84C114.946 119.89 115.046 119.35 115.046 118.39C115.016 111.74 115.026 105.09 115.026 98.44H115.016ZM117.616 97.91C117.616 104.61 117.636 111.32 117.596 118.02C117.596 119.13 117.826 119.64 119.036 119.46C120.186 119.29 121.356 119.07 122.496 119.17C123.986 119.3 124.146 118.64 124.146 117.38C124.106 104.79 124.126 92.2 124.126 79.61C124.126 77.4367 123.069 76.3967 120.956 76.49C120.486 76.51 120.026 76.54 119.556 76.51C118.106 76.41 117.556 76.91 117.576 78.5C117.676 84.97 117.616 91.44 117.616 97.91ZM181.966 61.51C180.146 62.44 178.596 63.35 176.956 64.04C175.716 64.56 175.266 65.22 175.276 66.63C175.356 75.84 175.316 85.06 175.316 94.27C175.316 98.18 175.366 102.08 175.296 105.99C175.276 107.4 175.736 107.46 176.776 106.85C178.026 106.12 179.296 105.42 180.586 104.76C181.616 104.23 181.996 103.5 181.996 102.28C181.946 89.34 181.966 76.39 181.966 63.44C181.966 62.88 181.966 62.32 181.966 61.51ZM8.88587 103C9.00587 102.66 9.07588 102.56 9.07588 102.45C9.07588 88.86 9.09588 75.27 9.07588 61.68C9.07588 61.23 8.83588 60.65 8.50588 60.37C6.59588 58.72 4.61587 57.13 2.61587 55.49C2.61587 56.16 2.61587 56.89 2.61587 57.63C2.61587 69.06 2.69587 80.5 2.57587 91.93C2.52587 96.91 4.98587 100.22 8.88587 103.01V103ZM56.4959 96.44C56.4959 90.61 56.4959 84.78 56.4959 78.95C56.4959 77.67 56.9059 76.02 56.2759 75.22C55.6859 74.48 53.9459 74.67 52.7159 74.45C52.4859 74.41 52.2659 74.31 52.0359 74.27C50.7759 74.07 50.0259 74.08 50.0459 75.89C50.1459 88.78 50.1259 101.66 50.0659 114.55C50.0659 116.26 50.3659 117.19 52.2759 117.09C53.0659 117.05 53.9359 117.15 54.6759 117.45C56.4459 118.16 56.5459 117.31 56.5359 115.86C56.4759 109.39 56.5059 102.91 56.5159 96.44H56.4959ZM37.2259 114.05C37.2259 113.44 37.2259 112.81 37.2259 112.17C37.2259 99.68 37.2259 87.19 37.2259 74.71C37.2259 72.5433 36.1359 71.2033 33.9559 70.69C33.5059 70.58 33.0159 70.55 32.6059 70.35C31.1659 69.65 30.8859 70.2 30.8959 71.62C30.9359 83.29 30.9159 94.96 30.9259 106.63C30.9259 108.6 30.3059 111.13 31.2759 112.39C32.2359 113.63 34.8559 113.59 36.7559 114.1C36.8559 114.13 36.9859 114.07 37.2259 114.04V114.05ZM72.2859 22.06C73.1159 24.1 73.6859 25.56 74.3159 26.98C74.4359 27.24 74.8259 27.56 75.0859 27.55C78.4559 27.4 81.8159 27.03 85.1859 27.03C94.3859 27.04 103.596 27.05 112.786 27.38C117.186 27.54 117.536 27.67 119.156 23.67C119.196 23.56 119.286 23.42 119.246 23.35C119.066 23.04 118.876 22.49 118.656 22.48C113.206 22.12 107.756 21.57 102.306 21.56C92.4259 21.55 82.5459 21.87 72.2859 22.06ZM94.6959 98.78C94.6959 93.01 94.6959 87.23 94.6959 81.46C94.6959 77.39 94.6959 77.46 90.6559 77.38C89.2859 77.35 89.0559 77.79 89.0659 79.04C89.1159 91.46 89.0959 103.88 89.0959 116.31C89.0959 120.43 89.0959 120.36 93.1359 120.43C94.5359 120.45 94.7359 119.96 94.7259 118.73C94.6659 112.08 94.6959 105.43 94.6959 98.78ZM184.436 101.98C187.336 99.39 189.326 96.95 189.316 93.34C189.286 81.15 189.306 68.95 189.296 56.76C189.296 56.36 189.206 55.96 189.166 55.56C187.886 56.72 186.776 57.84 185.546 58.81C184.686 59.49 184.406 60.22 184.406 61.3C184.446 74.19 184.436 87.09 184.436 99.99C184.436 100.49 184.436 100.99 184.436 101.98ZM58.7859 61.85C58.8459 61.41 59.0259 61 58.9159 60.7C57.3159 56.67 55.7059 52.64 54.0159 48.65C53.8259 48.2 53.0959 47.99 52.6259 47.66C52.3159 48.15 51.7659 48.64 51.7459 49.14C51.6659 52.63 51.6859 56.11 51.7459 59.6C51.7459 59.93 52.1159 60.48 52.4059 60.55C54.3659 61.01 56.3559 61.36 58.7959 61.84L58.7859 61.85ZM140.216 54.38H140.206C140.206 52.57 140.266 50.76 140.166 48.96C140.136 48.51 139.596 48.09 139.286 47.66C138.866 47.97 138.226 48.18 138.046 48.59C136.316 52.64 134.666 56.71 133.006 60.78C132.706 61.51 132.886 61.88 133.786 61.7C135.196 61.42 136.616 61.12 138.046 60.97C139.666 60.8 140.506 60.22 140.256 58.39C140.076 57.07 140.216 55.71 140.216 54.37V54.38ZM161.026 53.56C163.756 51.82 166.616 50.27 166.626 46.92C166.626 43.51 163.726 41.96 161.026 40.22V53.55V53.56ZM30.9259 40.71C30.7859 40.57 30.6359 40.43 30.4959 40.29C29.1159 41.54 27.5959 42.68 26.3859 44.09C24.8959 45.82 24.9359 48.1 26.4359 49.83C27.4059 50.95 28.6559 51.84 29.8059 52.8C30.5859 53.45 30.9659 53.33 30.9559 52.21C30.9159 48.38 30.9459 44.55 30.9459 40.71H30.9259Z" fill="#28338B"/>
</svg>
