<svg width="482" height="108" viewBox="0 0 482 108" fill="none" xmlns="http://www.w3.org/2000/svg">
<path d="M139.979 51.763C139.979 57.2137 139.928 62.6644 140.001 68.115C140.03 70.3478 139.212 72.172 137.817 73.7919C134.851 77.2432 130.928 79.279 126.822 80.95C124.046 82.081 121.161 82.9639 118.304 83.8906C117.654 84.1022 117.435 84.3722 117.442 85.0435C117.472 88.8305 117.406 92.6248 117.472 96.4118C117.53 99.8704 119.839 102.205 123.272 102.432C124.792 102.534 126.238 103.796 126.275 105.058C126.311 106.503 124.784 107.977 123.133 107.977C114.221 107.992 105.308 108.006 96.403 107.911C95.6652 107.904 94.4891 107.277 94.3137 106.693C94.0142 105.693 94.2553 104.489 94.4671 103.409C94.5183 103.132 95.2853 102.855 95.7456 102.804C99.8293 102.388 102.152 100.104 102.32 96.0761C102.43 93.442 102.335 90.7933 102.364 88.1592C102.364 87.5244 102.182 87.393 101.546 87.4587C94.2772 88.1592 87.0084 88.8378 79.7323 89.4653C79.031 89.5237 78.7315 89.7572 78.4831 90.3847C76.4814 95.4121 74.4213 100.418 72.4197 105.445C71.9667 106.591 71.1558 107.174 70.0089 107.189C68.8401 107.204 68.0365 106.525 67.6055 105.431C67.0137 103.935 66.422 102.439 65.8157 100.95C64.3619 97.3385 62.9228 93.7266 61.4252 90.1366C61.301 89.8374 60.7823 89.5455 60.4243 89.5164C56.2238 89.2099 52.0159 89.0275 47.8227 88.6553C44.7398 88.3854 41.6789 87.8965 38.6106 87.4952C38.1431 87.4368 37.639 87.2106 37.6536 88.0132C37.7121 91.1143 37.5514 94.2373 37.8874 97.3093C38.2235 100.418 40.7219 102.578 43.8559 102.738C45.6968 102.833 46.1717 103.723 46.0475 105.657C45.9525 107.123 45.1489 107.963 43.5929 107.977C39.29 108.006 34.9799 107.992 30.6771 107.992C26.2427 107.992 21.8084 108.021 17.3741 107.97C16.607 107.963 15.7231 107.78 15.1021 107.371C14.2036 106.78 13.6045 105.803 13.8675 104.642C14.1524 103.358 15.3651 102.512 16.8189 102.446C19.3757 102.329 21.1071 101.023 22.1152 98.7321C22.3271 98.2433 22.4513 97.6741 22.4513 97.1341C22.4805 93.1282 22.444 89.1296 22.4951 85.1237C22.5097 84.2116 22.0714 84.0146 21.3336 83.803C15.9422 82.2196 10.6313 80.3881 6.007 77.1046C4.42905 75.9882 3.00451 74.5945 1.73338 73.1352C0.57914 71.8218 -0.00528455 70.1727 0.00202077 68.3339C0.0239367 57.3013 0.0239367 46.2759 0.00202077 35.2432C0.00202077 32.4121 1.45578 30.3325 3.36977 28.5083C6.4307 25.5897 10.171 23.7436 14.0575 22.2332C16.5778 21.2554 19.1858 20.4965 21.728 19.5771C22.0495 19.4604 22.4294 18.9642 22.4367 18.6432C22.4878 16.0893 22.5389 13.5281 22.4367 10.9816C22.3125 8.07019 19.2735 5.26824 16.3075 5.17339C14.7734 5.12231 13.8091 4.4802 13.5899 3.3638C13.3854 2.31307 14.189 0.999653 15.4601 0.496178C16.1103 0.240792 16.8335 0.0510772 17.5275 0.0437804C26.6518 0.0145935 35.7762 0.0364837 44.9005 0.00729674C45.6384 0.00729674 46.0255 0.211605 46.3031 0.904795C47.9615 5.02745 49.7001 9.12092 51.3365 13.2509C51.6872 14.1265 52.0597 14.4694 53.0606 14.4256C59.0144 14.1776 64.9756 13.8638 70.9294 13.8565C76.3719 13.8565 81.8216 14.163 87.2641 14.4402C88.1407 14.484 88.338 14.1265 88.5864 13.5209C90.3031 9.33253 92.0491 5.15879 93.7366 0.963169C93.9996 0.284573 94.2918 0 95.0808 0C104.373 0.0291869 113.673 0.0145935 122.965 0.0218902C124.645 0.0218902 125.865 0.802641 126.267 2.07227C126.779 3.67756 125.909 5.07853 124.229 5.1369C119.824 5.28284 117.377 8.69041 117.435 12.5942C117.464 14.4694 117.494 16.3447 117.413 18.2127C117.377 19.1174 117.705 19.4604 118.538 19.6939C123.199 21 127.728 22.6418 131.936 25.0716C134.756 26.6988 137.43 28.5594 138.993 31.5219C139.541 32.5653 139.906 33.8423 139.928 35.017C140.023 40.5917 139.972 46.1737 139.972 51.7558L139.979 51.763ZM69.9943 54.7036C80.3386 54.6526 90.6172 53.974 100.845 52.427C107.544 51.4201 114.162 50.114 120.613 48.049C125.719 46.4145 130.723 44.5247 134.902 41.015C136.955 39.2929 138.511 37.2134 138.095 34.3238C137.744 31.8867 136.078 30.2304 134.252 28.8148C129.474 25.1154 123.827 23.2912 118.158 21.5327C117.574 21.3503 117.435 21.6421 117.45 22.1894C117.479 23.4225 117.523 24.663 117.435 25.8888C117.362 26.852 117.669 27.3992 118.538 27.8808C119.605 28.4719 120.62 29.2161 121.504 30.0553C122.622 31.1133 123.469 32.3756 123.506 34.0393C123.564 36.5494 122.059 38.1254 120.255 39.468C116.792 42.0511 112.752 43.3499 108.661 44.5028C98.8942 47.261 88.864 48.2971 78.7899 48.7568C67.0503 49.2967 55.3325 48.8225 43.6878 47.0639C38.2819 46.2467 32.9198 45.2398 27.7842 43.3791C25.0227 42.3794 22.2759 41.1025 19.836 39.4753C15.482 36.5712 15.2701 31.8794 19.4707 29.3037C22.0276 27.7349 22.9115 25.9326 22.4586 23.1817C22.4147 22.9336 22.4367 22.671 22.4586 22.4156C22.517 21.6494 22.3855 21.3357 21.4724 21.6786C19.5365 22.401 17.5129 22.9045 15.577 23.6414C11.5956 25.1591 7.73105 26.9104 4.56054 29.8509C1.05399 33.098 0.959016 36.9069 4.32677 40.2561C5.1961 41.1171 6.17501 41.8906 7.19045 42.5765C11.6394 45.5827 16.6582 47.312 21.7573 48.786C32.3427 51.8506 43.213 53.2808 54.1564 54.1272C59.4162 54.5285 64.7053 54.5285 69.987 54.7109L69.9943 54.7036ZM84.9045 22.058C83.9621 21.9413 83.1366 21.7881 82.2965 21.7516C78.9872 21.6275 75.6705 21.4305 72.3612 21.4743C66.9261 21.5473 61.4982 21.8172 56.0631 21.9486C55.0549 21.9705 55.1864 22.3134 55.4859 22.9847C56.1215 24.4076 56.7132 25.8596 57.305 27.3044C59.8034 33.4045 62.3018 39.5045 64.7783 45.6192C65.1728 46.597 65.6257 47.1588 66.8822 47.0785C69.1323 46.9253 71.3969 46.9983 73.647 47.0567C74.414 47.0785 74.7647 46.8013 75.035 46.1227C76.9636 41.3433 78.9287 36.5785 80.8792 31.8138C82.2088 28.5813 83.5457 25.3489 84.9045 22.058ZM71.0317 72.0845C71.0317 73.4489 71.0317 74.8134 71.0317 76.1706C71.0317 79.7022 71.0536 83.2412 71.0171 86.7728C71.0097 87.59 71.2143 87.9184 72.0836 87.86C73.3986 87.7797 74.7282 87.787 76.0431 87.8089C76.8248 87.8235 77.0147 87.5025 77.0074 86.7436C76.9782 76.9952 76.9782 67.2394 77.0074 57.491C77.0074 56.6081 76.7079 56.4403 75.9262 56.4767C74.6916 56.5351 73.4497 56.5497 72.2224 56.4767C71.2946 56.4184 70.9951 56.6592 71.0024 57.6442C71.0609 62.4528 71.0317 67.2686 71.0244 72.0772L71.0317 72.0845ZM34.6804 69.2825C34.6804 64.474 34.6512 59.6654 34.7096 54.8569C34.7242 53.8572 34.3809 53.5289 33.4531 53.4267C32.2769 53.2954 31.0935 53.1129 29.9538 52.7919C29.0553 52.5365 28.8653 52.7627 28.88 53.6383C28.9238 56.4038 28.8946 59.1692 28.8946 61.9347C28.8946 68.8301 28.9165 75.7182 28.8726 82.6136C28.8726 83.5184 29.1064 83.8833 30.0269 83.9854C31.1957 84.1168 32.3865 84.3211 33.4969 84.6932C34.6146 85.0654 34.7023 84.5984 34.695 83.7009C34.6731 78.8923 34.6877 74.0838 34.6804 69.2752V69.2825ZM57.5022 71.8437C57.5022 76.6887 57.5241 81.541 57.4803 86.3861C57.473 87.269 57.736 87.6119 58.598 87.6119C59.7888 87.6119 60.9868 87.5973 62.1703 87.6922C62.9739 87.7578 63.1127 87.4149 63.0835 86.7436C63.0469 85.8972 63.0762 85.0435 63.0762 84.1897C63.0762 75.3461 63.0542 66.4952 63.1054 57.6515C63.1054 56.63 62.7547 56.3016 61.827 56.3016C60.7239 56.3016 59.6061 56.3235 58.5103 56.2214C57.6045 56.1338 57.4803 56.5205 57.4876 57.3013C57.5168 62.1463 57.5022 66.9986 57.5022 71.8437ZM55.6905 71.8364C55.6905 66.984 55.6613 62.139 55.7124 57.2867C55.727 56.287 55.4713 55.9514 54.4486 55.9879C53.3966 56.0316 52.3081 55.966 51.2781 55.7544C50.1896 55.5282 50.1019 55.966 50.1092 56.8635C50.1384 63.073 50.1238 69.2825 50.1238 75.492C50.1238 78.9799 50.1384 82.4677 50.1092 85.9556C50.1092 86.5977 50.175 86.9406 50.9639 86.9552C52.1036 86.9771 53.2432 87.1303 54.3682 87.3273C55.3106 87.4952 55.727 87.4003 55.7124 86.2474C55.6467 81.4389 55.6832 76.6376 55.6832 71.8291L55.6905 71.8364ZM99.2083 70.2676C99.2083 75.1199 99.2156 79.9795 99.201 84.8319C99.201 85.5761 99.1791 86.0212 100.224 85.7148C101.305 85.3937 102.481 85.3426 103.621 85.2478C104.643 85.1675 104.994 84.7808 104.987 83.6717C104.928 74.7259 104.958 65.7874 104.958 56.8416C104.958 56.0316 104.943 55.2217 104.958 54.4118C104.972 53.9156 104.855 53.7842 104.307 53.8864C102.978 54.1491 101.634 54.3826 100.282 54.4701C99.3763 54.5285 99.1864 54.8569 99.1937 55.7033C99.2302 60.5556 99.2156 65.4152 99.2083 70.2676ZM43.0084 70.5303C43.0084 75.2512 43.0596 79.9722 42.9719 84.6932C42.95 85.992 43.308 86.4517 44.5937 86.3788C45.39 86.335 46.2082 86.4809 46.9972 86.6414C47.9249 86.8312 48.2756 86.6269 48.2683 85.5907C48.2318 75.9371 48.2391 66.2836 48.2537 56.63C48.2537 55.8492 48.2098 55.3749 47.1944 55.4041C46.2374 55.426 45.2658 55.1998 44.3161 55.0101C43.3591 54.8204 42.9646 54.9882 42.9792 56.1119C43.045 60.9132 43.0084 65.7217 43.0084 70.5303ZM126.077 48.1949C124.616 48.6838 123.272 49.18 121.899 49.5886C121 49.8513 120.671 50.3037 120.679 51.2888C120.722 60.8183 120.701 70.3478 120.701 79.8774C120.701 80.0452 120.722 80.2203 120.701 80.3881C120.613 81.0594 120.876 81.2127 121.482 80.9792C122.593 80.5633 123.688 80.1036 124.828 79.7898C125.814 79.5198 126.106 79.0309 126.099 77.9948C126.055 68.4653 126.07 58.9357 126.077 49.4062C126.077 49.0341 126.077 48.6619 126.077 48.1949ZM8.42506 45.59C8.42506 55.7617 8.42505 65.8093 8.44697 75.8569C8.44697 76.1925 8.68805 76.6814 8.95835 76.8346C10.2222 77.5278 11.5444 78.1043 12.8229 78.7683C13.6191 79.1769 13.7433 78.8631 13.736 78.1189C13.7068 75.689 13.7287 73.2665 13.7287 70.8367C13.7287 63.5984 13.7141 56.36 13.7433 49.1216C13.7433 48.3409 13.5753 47.9031 12.7863 47.5966C11.3399 47.0275 9.95187 46.3051 8.42506 45.59ZM97.4477 70.4135C97.4477 65.605 97.4185 60.7964 97.4696 55.9879C97.4769 55.0612 97.1993 54.8131 96.3446 54.9517C95.4241 55.0977 94.5037 55.2436 93.5759 55.2947C92.6043 55.3457 92.3778 55.7908 92.3851 56.7321C92.4216 65.7071 92.407 74.6894 92.407 83.6644C92.407 84.4305 92.3486 85.204 92.4436 85.9556C92.4728 86.1963 92.9111 86.5685 93.1595 86.5612C94.1749 86.5539 95.1904 86.4152 96.2058 86.3423C97.0605 86.2766 97.4915 86.0139 97.4769 84.9632C97.4039 80.1109 97.4477 75.2658 97.4404 70.4135H97.4477ZM113.571 67.6116C113.571 72.4639 113.585 77.3162 113.556 82.1612C113.556 82.9566 113.695 83.2339 114.557 82.9274C115.47 82.6064 116.442 82.4312 117.399 82.2415C118.37 82.0518 118.743 81.614 118.735 80.5268C118.677 70.9972 118.706 61.4677 118.706 51.9309C118.706 51.763 118.692 51.5879 118.706 51.4201C118.772 50.7634 118.553 50.6248 117.91 50.8364C116.829 51.1866 115.726 51.515 114.608 51.7193C113.768 51.8725 113.541 52.2227 113.549 53.0546C113.585 57.9069 113.571 62.7592 113.571 67.6043V67.6116ZM111.744 52.4854C110.298 52.7481 108.917 52.9378 107.573 53.2735C107.244 53.3537 106.799 53.9229 106.799 54.2658C106.755 64.0945 106.762 73.9305 106.755 83.7592C106.755 84.3649 106.784 84.7443 107.609 84.4816C108.493 84.197 109.421 84.0073 110.342 83.9344C111.459 83.8468 111.773 83.3798 111.766 82.2561C111.715 72.7193 111.737 63.1897 111.737 53.6529C111.737 53.2735 111.737 52.894 111.737 52.4708L111.744 52.4854ZM15.577 48.786V50.187C15.577 59.2568 15.577 68.3266 15.577 77.3965C15.577 79.0845 16.3781 80.2082 17.9804 80.7676C19.7775 81.3902 20.6761 80.7505 20.6761 78.8485C20.6761 69.7787 20.6761 60.7088 20.6542 51.639C20.6542 51.2012 20.4861 50.4788 20.2085 50.3694C18.7329 49.771 17.1914 49.3259 15.5697 48.786H15.577ZM83.8963 71.8291C83.8963 66.8892 83.8817 61.9566 83.9109 57.0167C83.9109 56.2505 83.7721 55.966 82.9247 56.0973C82.0043 56.2432 81.0546 56.2724 80.1268 56.2214C79.2355 56.1703 78.9652 56.4403 78.9798 57.345C79.031 61.0883 79.0018 64.8388 79.0018 68.582C79.0018 74.5435 79.0237 80.4976 78.9798 86.459C78.9725 87.4222 79.2209 87.7651 80.1852 87.6411C81.113 87.5171 82.0554 87.4076 82.9832 87.4441C83.8452 87.4806 83.9183 87.0865 83.9183 86.3861C83.8963 81.5337 83.9036 76.6814 83.9036 71.8291H83.8963ZM85.7957 71.4423C85.7957 76.3312 85.8103 81.2273 85.7811 86.1161C85.7811 86.926 85.9491 87.2982 86.8331 87.1668C87.6732 87.0428 88.5279 86.8822 89.3607 86.9552C90.4492 87.0501 90.5661 86.5685 90.5661 85.6491C90.5369 76.4625 90.5515 67.2759 90.5515 58.0893C90.5515 56.5035 89.7795 55.7446 88.2357 55.8127C87.8923 55.8273 87.5563 55.8492 87.2129 55.8273C86.1537 55.7544 85.7519 56.1192 85.7665 57.2794C85.8396 62.0004 85.7957 66.7214 85.7957 71.4423ZM132.805 44.8822C131.476 45.5608 130.344 46.2248 129.145 46.7283C128.24 47.1077 127.911 47.5893 127.918 48.6182C127.977 55.3384 127.947 62.066 127.947 68.7863C127.947 71.6394 127.984 74.4851 127.933 77.3381C127.918 78.3669 128.254 78.4107 129.014 77.9656C129.927 77.433 130.855 76.9222 131.797 76.4406C132.55 76.0539 132.827 75.5212 132.827 74.631C132.791 65.189 132.805 55.7398 132.805 46.2905C132.805 45.8819 132.805 45.4733 132.805 44.8822ZM6.36496 75.1564C6.45262 74.9083 6.50376 74.8353 6.50376 74.7551C6.50376 64.8388 6.51837 54.9225 6.50376 45.0063C6.50376 44.6779 6.32843 44.2547 6.08736 44.0504C4.69204 42.8464 3.24558 41.6863 1.78452 40.4896C1.78452 40.9785 1.78452 41.5111 1.78452 42.0511C1.78452 50.3913 1.84296 58.7387 1.7553 67.0789C1.71877 70.7127 3.51588 73.1279 6.36496 75.1637V75.1564ZM41.1456 70.3697C41.1456 66.1157 41.1456 61.8617 41.1456 57.6077C41.1456 56.6737 41.4451 55.4698 40.9849 54.8861C40.5539 54.3461 39.2827 54.4847 38.3842 54.3242C38.2162 54.295 38.0554 54.222 37.8874 54.1929C36.9669 54.0469 36.419 54.0542 36.4337 55.3749C36.5067 64.7804 36.4921 74.1786 36.4483 83.5841C36.4483 84.8319 36.6674 85.5104 38.0627 85.4375C38.6399 85.4083 39.2754 85.4813 39.816 85.7002C41.1091 86.2182 41.1821 85.598 41.1748 84.54C41.131 79.819 41.1529 75.0907 41.1602 70.3697H41.1456ZM27.0682 83.2193C27.0682 82.7742 27.0682 82.3145 27.0682 81.8475C27.0682 72.7339 27.0682 63.6202 27.0682 54.5139C27.0682 52.933 26.272 51.9552 24.6794 51.5806C24.3507 51.5004 23.9927 51.4785 23.6932 51.3325C22.6412 50.8218 22.4367 51.2231 22.444 52.2592C22.4732 60.7745 22.4586 69.2898 22.4659 77.8051C22.4659 79.2426 22.013 81.0886 22.7216 82.008C23.4229 82.9128 25.3369 82.8836 26.7249 83.2558C26.7979 83.2776 26.8929 83.2339 27.0682 83.212V83.2193ZM52.6807 16.0966C53.287 17.5851 53.7034 18.6505 54.1637 19.6866C54.2513 19.8763 54.5362 20.1098 54.7262 20.1025C57.1881 19.9931 59.6427 19.7231 62.1046 19.7231C68.8255 19.7304 75.5537 19.7377 82.2672 19.9785C85.4816 20.0952 85.7373 20.1901 86.9207 17.2714C86.95 17.1911 87.0157 17.089 86.9865 17.0379C86.855 16.8117 86.7162 16.4104 86.5555 16.4031C82.5741 16.1404 78.5927 15.7391 74.6113 15.7318C67.3936 15.7245 60.1759 15.958 52.6807 16.0966ZM69.0519 72.0772C69.0519 67.8669 69.0519 63.6494 69.0519 59.4392C69.0519 56.4694 69.0519 56.5205 66.1006 56.4621C65.0997 56.4403 64.9317 56.7613 64.939 57.6734C64.9755 66.736 64.9609 75.7985 64.9609 84.8683C64.9609 87.8746 64.9609 87.8235 67.9123 87.8746C68.935 87.8892 69.0811 87.5317 69.0738 86.6342C69.03 81.7818 69.0519 76.9295 69.0519 72.0772ZM134.61 74.4121C136.728 72.5223 138.182 70.7419 138.175 68.1077C138.153 59.213 138.168 50.311 138.16 41.4163C138.16 41.1244 138.095 40.8325 138.065 40.5407C137.13 41.3871 136.319 42.2043 135.421 42.9121C134.793 43.4083 134.588 43.9409 134.588 44.729C134.617 54.1345 134.61 63.5473 134.61 72.9601C134.61 73.3249 134.61 73.6897 134.61 74.4121ZM42.8185 45.1303C42.8623 44.8093 42.9938 44.5101 42.9135 44.2912C41.7446 41.3506 40.5685 38.41 39.3339 35.4986C39.1951 35.1703 38.6618 35.017 38.3184 34.7762C38.092 35.1338 37.6902 35.4913 37.6756 35.8562C37.6171 38.4027 37.6317 40.942 37.6756 43.4885C37.6756 43.7293 37.9459 44.1307 38.1577 44.1817C39.5896 44.5174 41.0433 44.7728 42.8258 45.123L42.8185 45.1303ZM102.306 39.6797H102.298C102.298 38.3589 102.342 37.0382 102.269 35.7248C102.247 35.3965 101.853 35.09 101.626 34.7762C101.32 35.0024 100.852 35.1557 100.72 35.4548C99.4567 38.41 98.2513 41.3798 97.0386 44.3496C96.8194 44.8822 96.9509 45.1522 97.6084 45.0209C98.6385 44.8166 99.6758 44.5977 100.72 44.4882C101.904 44.3642 102.518 43.9409 102.335 42.6056C102.203 41.6425 102.306 40.6501 102.306 39.6724V39.6797ZM117.508 39.0813C119.502 37.8117 121.592 36.6807 121.599 34.2363C121.599 31.7481 119.481 30.6171 117.508 29.3475V39.074V39.0813ZM22.4659 29.705C22.3636 29.6029 22.254 29.5007 22.1518 29.3986C21.1436 30.3106 20.0332 31.1425 19.1493 32.1713C18.0608 33.4336 18.09 35.0973 19.1858 36.3596C19.8944 37.1769 20.8076 37.8263 21.6477 38.5268C22.2175 39.0011 22.4951 38.9135 22.4878 38.0963C22.4586 35.3016 22.4805 32.507 22.4805 29.705H22.4659Z" fill="#28338B"/>
<path d="M240.94 45.0407C240.61 47.0507 237.51 49.1707 234.01 49.5207C231.31 49.7907 227.12 47.2407 226.43 45.1907C224.87 45.4707 223.37 45.9807 221.87 45.9807C203.31 46.0307 184.75 46.0207 166.2 45.9907C164.96 45.9907 164.35 46.1207 164.39 47.6307C164.44 49.3607 163.14 50.4907 161.54 50.5107C159.87 50.5407 158.83 49.7207 158.79 47.8307C158.7 43.8107 158.7 39.7807 158.88 35.7707C158.98 33.4207 160.69 31.9707 163.04 31.9507C168.58 31.9107 174.13 31.9207 179.67 31.9507C181.57 31.9507 182.88 33.1707 182.94 34.8507C183.01 36.5707 181.63 38.0107 179.7 38.0407C175.97 38.1007 172.23 38.0607 168.5 38.0607C167.62 38.0607 166.73 37.9707 165.88 38.1107C165.48 38.1807 165.16 38.6907 164.8 39.0007C165.16 39.3107 165.49 39.6907 165.9 39.9007C166.18 40.0407 166.59 39.9407 166.94 39.9407C179.2 39.9407 191.45 39.9207 203.71 39.9707C205.09 39.9707 205.5 39.6107 205.48 38.2207C205.43 34.0507 206.81 32.7607 211.03 32.7507C213.95 32.7507 216.87 32.7807 219.78 32.7307C220.69 32.7107 221.01 33.0007 220.98 33.9207C220.92 35.7907 221 37.6607 220.95 39.5207C220.93 40.3807 221.11 40.7207 222.09 40.7607C226.53 40.9207 226.53 40.9607 226.53 36.5507C226.53 32.7007 226.52 28.8507 226.53 25.0007C226.53 23.0707 227.61 21.8507 229.25 21.8707C230.88 21.8907 231.78 22.9607 231.78 24.9307C231.78 30.3607 231.84 35.7907 231.74 41.2107C231.71 42.7407 232.31 43.3607 233.68 43.3907C235.07 43.4307 235.7 42.8607 235.67 41.2907C235.57 35.8107 235.65 30.3207 235.62 24.8307C235.62 23.3407 236.31 22.3207 237.65 21.9307C238.87 21.5707 239.99 22.0107 240.58 23.2407C240.8 23.6807 240.87 24.2407 240.87 24.7407C240.9 26.8407 240.94 28.9407 240.87 31.0407C240.83 32.1307 241.16 32.4207 242.24 32.4107C248.19 32.3607 254.14 32.3807 260.1 32.3907C263.51 32.3907 264.7 33.6107 264.72 37.0107C264.733 39.4907 265.956 40.7307 268.39 40.7307C268.86 40.7307 269.33 40.6707 269.79 40.7307C272.15 41.0607 273.75 40.5507 274.83 38.0107C276.01 35.2407 278.75 34.2807 281.68 34.5507C284.7 34.8307 286.89 36.5107 287.86 39.4307C288.21 40.4707 288.66 40.7907 289.69 40.7407C291.14 40.6607 292.61 40.6507 294.06 40.7407C295.16 40.8107 295.43 40.4207 295.42 39.3607C295.37 34.5807 295.39 29.7907 295.4 25.0007C295.4 22.8707 296.3 21.8307 298.03 21.8507C299.61 21.8707 300.7 23.1707 300.7 25.0707C300.7 31.5507 300.68 38.0307 300.73 44.5007C300.73 45.5907 300.53 46.0307 299.31 46.0007C295.99 45.9107 292.61 46.3207 289.35 45.8407C287.49 45.5707 285.91 45.4707 284.07 45.8807C282.18 46.3007 280.02 46.3707 278.17 45.8707C276.07 45.3107 274.21 45.7807 272.2 45.8507C263.11 46.1407 254 46.0207 244.89 45.9307C243.57 45.9207 242.25 45.3207 240.95 45.0007L240.94 45.0407ZM250.5 38.6607C247.99 38.6607 245.48 38.7207 242.98 38.6307C241.84 38.5907 241.8 39.1607 241.81 40.0107C241.81 40.8507 241.83 41.4407 242.98 41.4207C247.94 41.3707 252.9 41.3707 257.85 41.4207C258.98 41.4307 259.03 40.8707 259.04 40.0107C259.04 39.1507 258.99 38.5907 257.86 38.6307C255.41 38.7107 252.96 38.6507 250.51 38.6507L250.5 38.6607ZM280.91 43.1607C282.18 43.1807 283.53 41.8507 283.52 40.5807C283.52 39.4107 282.24 38.1207 281.05 38.0707C279.61 38.0207 278.47 39.0807 278.43 40.5207C278.39 41.9007 279.55 43.1407 280.91 43.1607ZM213.09 40.7607C213.46 40.7607 213.69 40.7407 213.92 40.7607C214.87 40.8707 215.39 40.6907 215.35 39.5007C215.32 38.4107 215.1 37.8607 213.91 38.0407C213.51 38.1007 213.09 38.1007 212.7 38.0407C211.36 37.8307 211.06 38.4207 211.09 39.6807C211.14 41.5807 212.53 40.3807 213.09 40.7507V40.7607Z" fill="#28338B"/>
<path d="M427.45 32.7906C430.77 32.7906 434.09 32.8206 437.4 32.7806C440.46 32.7406 442.73 34.0006 443.87 36.8406C444.98 39.5906 444.12 42.1706 442.28 44.2406C441.49 45.1206 439.96 45.7706 438.75 45.7906C431.06 45.8906 423.36 45.7906 415.66 45.7406C415.37 45.7406 414.99 45.8106 414.8 45.6606C413.15 44.2906 411.29 44.9906 409.47 44.9706C406.01 44.9406 403.46 42.1306 403.58 38.7406C403.7 35.4306 406.57 32.8006 409.98 33.0006C411.14 33.0706 411.87 33.2406 411.94 31.5906C412 30.2206 413.38 30.1306 414.55 30.2306C415.74 30.3306 416.3 31.0506 416.3 32.2006C416.31 34.7706 416.35 37.3306 416.28 39.9006C416.25 41.0406 416.63 41.4406 417.78 41.4306C424.37 41.3906 430.96 41.4106 437.55 41.4106C438.95 41.4106 439.73 40.7606 439.78 39.3206C439.83 37.8106 438.93 37.5106 437.63 37.5206C433.37 37.5506 429.11 37.5506 424.86 37.5206C422.12 37.5006 420.81 36.6906 420.38 34.8406C420 33.2406 420.66 31.4706 422.06 30.6006C424.73 28.9506 427.42 27.3406 430.11 25.7406C431.26 25.0606 432.44 24.8406 433.34 26.1606C434.09 27.2606 433.74 28.5506 432.37 29.4306C430.72 30.4906 429 31.4306 427.31 32.4206C427.35 32.5506 427.38 32.6706 427.42 32.8006L427.45 32.7906ZM409.4 37.2106C408.48 37.2106 407.65 37.9906 407.91 39.0306C408.11 39.8306 409.16 40.4106 409.83 41.0906C410.5 40.4006 411.6 39.7906 411.74 39.0006C411.95 37.8306 410.95 37.1806 409.4 37.2106Z" fill="#28338B"/>
<path d="M385.52 40.3409C383.66 39.7909 381.79 39.6109 380.36 38.7309C377.95 37.2609 377.24 34.6209 378.02 32.0209C378.77 29.5409 381.02 27.7309 383.65 27.5209C386.14 27.3209 389.53 29.7909 389.72 32.3409C389.95 35.4609 389.92 38.6209 389.72 41.7409C389.57 44.0109 387.62 45.6209 385.38 45.7109C381.95 45.8509 378.51 45.9409 375.08 46.0009C374.31 46.0109 373.99 46.1409 373.94 47.0309C373.72 51.7209 370.55 53.1909 366.79 53.0009C362.75 52.8009 360.73 50.4109 361 46.7009C361.1 45.3509 361.92 44.7309 363.13 44.6309C364.44 44.5209 365.5 45.0709 365.61 46.4909C365.7 47.7409 365.95 48.8109 367.41 48.7009C368.97 48.5909 369.27 47.3509 369.28 46.0209C369.28 39.0209 369.29 32.0209 369.3 25.0209C369.3 23.6209 369.44 22.2609 371.16 21.9109C372.78 21.5809 373.97 22.7009 373.98 24.5809C374 29.8309 374 35.0809 373.97 40.3309C373.97 41.2409 374.09 41.6909 375.18 41.6309C377.91 41.4809 380.65 41.4509 383.38 41.3909C384.42 41.3709 385.34 41.2309 385.55 40.3309L385.52 40.3409ZM385.83 33.6409C385.71 32.3309 384.99 31.6309 383.67 31.6709C382.4 31.7009 381.73 32.5409 381.73 33.6909C381.73 34.9309 382.46 35.8209 383.79 35.7809C385.07 35.7409 385.771 34.9609 385.821 33.6409H385.83Z" fill="#28338B"/>
<path d="M466.39 45.8806C462.83 45.8806 459.27 45.9206 455.71 45.8606C454.58 45.8406 454.08 46.1506 454.22 47.3306C454.3 47.9606 454.44 48.7206 454.18 49.2306C453.65 50.2506 453.05 51.6106 452.15 51.9406C450.98 52.3706 449.33 52.2906 448.18 51.7806C446.57 51.0506 446.83 48.8206 448.53 48.0906C449.45 47.7006 449.67 47.2106 449.65 46.3006C449.6 43.0906 449.61 39.8806 449.61 36.6706C449.61 36.0306 449.59 35.3806 449.72 34.7606C449.98 33.4306 450.73 32.4506 452.2 32.5706C453.67 32.6906 454.24 33.7506 454.25 35.1506C454.25 36.7806 454.31 38.4206 454.23 40.0506C454.17 41.1606 454.59 41.4806 455.64 41.4206C456.92 41.3406 458.21 41.3306 459.49 41.4206C460.62 41.5106 460.88 41.0606 460.83 40.0206C460.75 38.3906 460.77 36.7506 460.83 35.1206C460.89 33.3406 461.74 32.4406 463.18 32.5106C464.88 32.5906 465.27 33.6806 465.24 35.1406C465.21 36.8906 465.26 38.6406 465.24 40.3906C465.21 42.0906 466.48 41.3906 467.24 41.4406C467.99 41.4906 469.1 41.9106 469.05 40.3706C468.99 38.6206 469 36.8706 469.07 35.1206C469.14 33.3006 469.93 32.4706 471.41 32.5206C473.09 32.5806 473.54 33.6606 473.53 35.1206C473.53 36.8106 473.58 38.5106 473.52 40.2006C473.48 41.1906 473.81 41.5006 474.81 41.5106C477.33 41.5306 477.32 41.5806 477.33 39.0206C477.33 37.6806 477.27 36.3306 477.36 34.9906C477.45 33.5906 477.96 32.4806 479.66 32.5306C481.33 32.5706 481.84 33.6206 481.85 35.0706C481.86 37.4606 481.91 39.8606 481.85 42.2506C481.8 44.4006 480.69 45.6306 478.5 45.6906C474.48 45.8006 470.45 45.7206 466.43 45.7206C466.43 45.7706 466.43 45.8306 466.43 45.8806H466.39Z" fill="#28338B"/>
<path d="M340.741 45.8807C336.421 45.8807 332.111 45.9307 327.791 45.8507C326.521 45.8307 326.121 46.2407 326.291 47.4307C326.351 47.8307 326.321 48.2507 326.291 48.6507C326.151 51.6707 322.961 53.5207 320.341 52.0007C319.781 51.6707 319.311 50.7107 319.311 50.0307C319.311 49.3907 319.821 48.4307 320.371 48.1707C321.341 47.7107 321.531 47.1307 321.521 46.1807C321.471 42.9107 321.501 39.6507 321.501 36.3807C321.501 35.9707 321.471 35.5607 321.521 35.1607C321.691 33.6007 322.811 32.4007 324.051 32.5607C325.571 32.7507 326.211 33.8407 326.281 35.2407C326.361 36.8707 326.351 38.5107 326.281 40.1407C326.241 41.1207 326.541 41.4407 327.551 41.4307C335.601 41.3907 343.651 41.3907 351.711 41.4307C352.961 41.4307 353.361 40.9907 353.311 39.7907C353.241 38.3307 353.261 36.8707 353.311 35.4107C353.351 34.0407 353.881 33.0807 355.471 33.0507C357.051 33.0207 357.711 33.9707 357.761 35.3307C357.851 37.8407 357.851 40.3507 357.761 42.8607C357.701 44.6007 356.711 45.6707 354.891 45.7107C350.171 45.8107 345.451 45.7407 340.731 45.7407C340.731 45.7907 340.731 45.8307 340.731 45.8807H340.741Z" fill="#28338B"/>
<path d="M200.011 72.2307C199.051 74.4307 198.061 76.6307 197.141 78.8507C196.781 79.7307 196.371 80.2507 195.271 80.2307C194.191 80.2207 193.611 79.9107 193.201 78.8707C192.321 76.6707 191.301 74.5207 190.041 72.3707C190.041 75.0507 189.961 77.7307 190.071 80.4007C190.131 81.8107 189.591 82.1107 188.361 81.9807C187.331 81.8707 186.171 82.3607 186.231 80.4407C186.371 76.0107 186.321 71.5807 186.241 67.1507C186.221 65.9507 186.651 65.7007 187.751 65.7007C190.851 65.7007 190.831 65.6707 192.071 68.4607C193.031 70.6407 194.031 72.8007 195.141 75.2407C196.491 72.3207 197.731 69.6207 198.991 66.9407C199.471 65.9207 202.911 65.1207 203.681 65.8907C203.911 66.1207 203.941 66.6407 203.941 67.0207C203.961 71.5707 203.891 76.1207 203.981 80.6607C204.011 82.4007 202.881 81.9107 201.991 81.9507C201.081 81.9907 200.151 82.2007 200.231 80.6407C200.361 77.8607 200.271 75.0707 200.271 72.2907C200.191 72.2707 200.101 72.2407 200.021 72.2207L200.011 72.2307Z" fill="#28338B"/>
<path d="M402.531 70.731C405.341 68.341 408.301 68.711 410.011 71.311C411.471 70.611 412.821 69.561 414.281 69.351C417.181 68.931 419.001 70.671 419.161 73.701C419.281 76.081 419.161 78.481 419.211 80.871C419.231 81.721 418.911 82.031 418.091 81.971C417.571 81.931 417.031 81.911 416.521 81.971C415.421 82.111 415.111 81.631 415.151 80.581C415.221 78.831 415.151 77.081 415.171 75.331C415.191 73.961 414.881 72.891 413.221 72.831C411.691 72.781 410.791 73.611 410.731 75.301C410.671 77.051 410.631 78.801 410.741 80.551C410.821 81.771 410.331 82.101 409.251 81.961C408.911 81.921 408.551 81.911 408.201 81.961C406.951 82.141 406.411 81.741 406.511 80.361C406.641 78.621 406.531 76.861 406.541 75.111C406.541 73.881 406.261 72.911 404.771 72.821C403.251 72.731 402.311 73.471 402.221 75.031C402.131 76.601 402.201 78.181 402.191 79.751C402.191 81.961 402.191 82.011 399.901 81.921C399.251 81.891 398.101 82.521 398.101 81.061C398.091 77.501 398.081 73.951 398.121 70.391C398.121 70.091 398.461 69.561 398.681 69.541C399.661 69.451 400.671 69.411 401.641 69.551C401.961 69.601 402.191 70.251 402.511 70.711L402.531 70.731Z" fill="#28338B"/>
<path d="M308.21 36.231C308.21 39.611 308.21 43.001 308.21 46.381C308.21 46.901 308.21 47.431 308.14 47.951C307.93 49.641 306.95 50.551 305.42 50.521C303.97 50.491 302.85 49.431 302.77 47.831C302.69 46.201 302.75 44.561 302.75 42.931C302.75 37.041 302.76 31.151 302.75 25.261C302.75 23.631 303.27 22.351 304.94 21.931C306.74 21.481 308.15 22.811 308.19 25.031C308.25 28.761 308.21 32.501 308.21 36.231Z" fill="#28338B"/>
<path d="M173.071 81.9707C171.641 82.4507 170.891 81.5207 170.551 80.0507C170.341 79.1607 169.831 78.8607 168.931 78.9407C167.951 79.0207 166.941 79.0407 165.961 78.9407C164.071 78.7407 162.611 78.9707 162.091 81.2407C162.001 81.6407 160.611 81.9107 159.811 81.9407C157.681 82.0407 157.691 81.9807 158.521 80.0407C160.401 75.6907 162.351 71.3607 164.111 66.9607C164.781 65.2907 166.021 65.8507 167.131 65.7407C168.171 65.6307 168.971 65.7807 169.451 66.9607C171.161 71.2507 172.961 75.5107 174.771 79.7607C175.731 82.0007 175.771 81.9807 173.061 81.9807L173.071 81.9707ZM166.651 69.9307C165.771 72.1407 165.081 73.8707 164.311 75.7807C165.651 75.7807 166.691 75.7507 167.731 75.7807C168.541 75.8107 168.951 75.7007 168.521 74.7307C167.891 73.3207 167.391 71.8607 166.651 69.9207V69.9307Z" fill="#28338B"/>
<path d="M426.86 80.4007C426.86 82.1707 426.8 83.6307 426.88 85.0807C426.94 86.1007 426.55 86.4207 425.59 86.3107C425.07 86.2507 424.54 86.2607 424.02 86.3107C423.17 86.3907 422.93 86.0407 422.93 85.2107C422.96 80.3707 422.97 75.5307 422.93 70.6907C422.93 69.7507 423.31 69.2907 424.14 69.5707C425.06 69.8707 426.6 68.5007 426.89 70.5307C427.17 70.4407 427.5 70.4207 427.73 70.2507C429.53 68.9407 431.45 68.9407 433.31 69.9507C435.3 71.0307 436.25 72.8007 436.31 75.1007C436.37 77.3407 436.13 79.4807 434.16 80.8707C431.81 82.5307 429.4 82.4207 426.86 80.3907V80.4007ZM429.61 78.6607C431.4 78.6607 432.4 77.5807 432.43 75.6307C432.45 73.7707 431.33 72.4707 429.68 72.4607C428.1 72.4507 426.88 73.7907 426.86 75.5607C426.84 77.3807 427.98 78.6607 429.61 78.6607Z" fill="#28338B"/>
<path d="M262.141 73.8509C264.691 71.3309 266.301 68.0309 270.391 69.8909C269.431 70.8709 268.441 72.0409 267.291 73.0309C266.341 73.8409 266.291 74.4609 266.991 75.4909C268.341 77.4909 269.541 79.5909 270.641 82.1609C269.091 81.9209 267.221 82.1309 266.071 81.3109C264.881 80.4609 264.391 78.6309 263.591 77.2309C263.381 77.2109 263.171 77.2009 262.971 77.1809C262.701 78.2609 262.151 79.3509 262.211 80.4109C262.291 82.0709 261.401 82.0309 260.271 81.9809C259.251 81.9409 258.241 82.2709 258.291 80.5009C258.421 75.7309 258.361 70.9509 258.311 66.1709C258.301 65.1809 258.591 64.9109 259.571 64.9009C262.141 64.9009 262.141 64.8509 262.141 67.4909C262.141 69.4509 262.141 71.4009 262.141 73.8509Z" fill="#28338B"/>
<path d="M373.829 82.001C369.879 82.041 367.259 80.451 365.749 77.281C364.259 74.161 365.069 70.331 367.489 67.931C369.829 65.601 373.759 64.871 376.859 66.181C377.179 66.311 377.479 66.491 377.789 66.651C380.439 68.061 380.409 68.031 378.459 70.251C377.869 70.921 377.609 71.021 376.889 70.361C374.909 68.541 372.319 68.551 370.619 70.241C368.839 72.001 368.719 74.961 370.359 76.921C371.819 78.671 374.379 78.921 376.529 77.531C376.979 77.241 377.719 76.701 377.899 76.831C378.679 77.421 379.319 78.201 379.939 78.971C380.019 79.061 379.749 79.591 379.519 79.751C377.689 81.011 375.829 82.201 373.849 81.991L373.829 82.001Z" fill="#28338B"/>
<path d="M279.75 73.7809C279.75 71.5609 279.79 69.3409 279.73 67.1309C279.7 66.1309 279.87 65.671 281.04 65.701C284.19 65.781 287.34 65.801 290.49 65.701C291.9 65.651 291.79 66.4509 291.79 67.3609C291.79 68.2309 292 69.1409 290.55 69.0609C288.8 68.9609 287.05 69.091 285.3 69.011C284.27 68.971 283.86 69.211 283.9 70.341C284.01 73.431 283.64 72.7809 286.4 72.8509C287.33 72.8709 288.28 72.9609 289.2 72.8309C290.78 72.6109 291.24 73.2009 291.11 74.7409C291.03 75.6909 290.83 76.1009 289.81 76.0509C288.24 75.9809 286.66 76.0809 285.09 76.0209C284.15 75.9809 283.86 76.3309 283.92 77.2209C283.98 78.2109 283.84 79.2109 283.96 80.1909C284.14 81.6609 283.61 82.081 282.15 82.011C279.77 81.891 279.77 81.991 279.77 79.571C279.77 77.641 279.77 75.721 279.77 73.791L279.75 73.7809Z" fill="#28338B"/>
<path d="M254.4 77.4908C254.4 78.4808 254.32 79.4808 254.42 80.4608C254.55 81.7508 253.96 82.2408 252.83 81.9308C251.98 81.7008 250.62 82.8208 250.32 81.0508C250.01 81.1708 249.67 81.2508 249.38 81.4108C246.9 82.7608 243.75 81.9808 242.72 79.7508C241.7 77.5608 242.89 75.1008 245.29 74.6508C246.53 74.4108 247.83 74.4508 249.1 74.3208C249.51 74.2808 249.9 74.0908 250.3 73.9708C250.03 73.5008 249.77 72.6508 249.47 72.6408C248.13 72.5608 246.75 72.5808 245.44 72.8408C244.62 73.0008 244.25 73.0708 243.84 72.2108C243.27 71.0108 243.37 70.2408 244.74 70.0208C246.61 69.7208 248.51 69.2808 250.37 69.3708C252.82 69.4908 254.25 71.3508 254.39 74.0008C254.45 75.1608 254.4 76.3308 254.39 77.5008L254.4 77.4908ZM248.91 76.2508C247.6 76.7008 246.21 76.2108 246.19 77.9508C246.18 79.0708 247.01 79.3108 247.98 79.2908C249.22 79.2708 250.19 78.7908 250.26 77.5108C250.28 77.1208 249.39 76.6708 248.91 76.2508Z" fill="#28338B"/>
<path d="M458.16 70.451C459.7 70.071 461.3 69.431 462.93 69.341C464.78 69.231 466.49 70.781 466.63 72.611C466.85 75.451 466.82 78.301 466.82 81.151C466.82 81.421 466.32 81.771 465.98 81.931C465.69 82.061 465.29 81.921 464.94 81.971C463.3 82.251 462.62 81.701 462.82 79.941C462.98 78.501 462.86 77.031 462.85 75.571C462.84 73.621 462.27 72.891 460.74 72.841C459.2 72.791 458.13 73.861 458.07 75.611C458.01 77.241 457.94 78.881 458.08 80.501C458.22 82.071 457.33 82.021 456.28 81.971C455.23 81.921 454.05 82.331 454.15 80.431C454.31 77.581 454.17 74.721 454.19 71.871C454.21 69.231 453.86 69.611 456.5 69.521C457.57 69.481 458.33 69.601 458.16 70.451Z" fill="#28338B"/>
<path d="M215.96 80.2809C214.25 82.1309 212.29 82.4409 210.25 81.5909C208.18 80.7209 207.82 78.7909 207.78 76.8009C207.74 74.8209 207.83 72.8409 207.75 70.8609C207.7 69.7409 208.15 69.4109 209.18 69.5309C209.7 69.5909 210.23 69.5809 210.75 69.5309C211.61 69.4409 211.85 69.8209 211.83 70.6409C211.78 72.3909 211.81 74.1409 211.82 75.8809C211.82 77.2109 212.1 78.3509 213.76 78.4109C215.42 78.4709 216.07 77.3809 216.19 76.0109C216.33 74.3309 216.28 72.6309 216.22 70.9409C216.18 69.9409 216.39 69.4709 217.55 69.5009C220.78 69.6009 220.14 69.2809 220.18 72.0709C220.22 74.6909 220.23 77.3209 220.16 79.9409C220.14 80.7009 220.78 81.9009 219.12 81.9909C216.69 82.1209 216.42 82.0509 215.99 80.2809H215.96Z" fill="#28338B"/>
<path d="M388.161 81.971C384.181 81.971 381.631 79.501 381.631 75.661C381.631 71.811 384.301 69.261 388.311 69.271C392.331 69.281 395.081 71.861 395.091 75.631C395.091 79.501 392.391 81.981 388.171 81.971H388.161ZM391.041 75.811C391.081 73.771 390.051 72.561 388.291 72.561C386.611 72.561 385.561 73.771 385.561 75.681C385.561 77.571 386.641 78.871 388.241 78.931C389.821 78.991 391.011 77.661 391.041 75.811Z" fill="#28338B"/>
<path d="M475.641 77.6008C476.411 75.2608 477.151 73.3608 477.631 71.4008C478.001 69.8808 478.711 69.2408 480.261 69.5208C480.771 69.6108 481.311 69.5308 481.991 69.5308C481.941 69.8908 481.951 70.2108 481.851 70.4908C480.141 74.8508 478.381 79.2008 476.691 83.5708C475.441 86.7808 471.951 86.7208 469.751 85.9208C469.361 85.7808 468.851 84.7408 468.961 84.6208C469.531 83.9908 469.351 82.5508 470.881 82.8508C471.571 82.9908 472.701 82.9408 473.001 82.5208C473.371 82.0008 473.311 80.9308 473.051 80.2508C471.821 77.1308 470.491 74.0508 469.131 70.9808C468.621 69.8208 468.881 69.6308 470.121 69.4808C472.121 69.2408 473.011 70.0208 473.541 71.8408C474.081 73.7108 474.881 75.5108 475.661 77.6008H475.641Z" fill="#28338B"/>
<path d="M450.411 77.1409C450.411 78.1909 450.471 79.2409 450.391 80.2909C450.351 80.8509 450.061 81.8809 449.901 81.8709C448.821 81.8609 447.741 81.6309 446.661 81.4509C446.351 81.4009 446.041 81.2009 445.761 81.2409C444.361 81.4409 442.961 81.9509 441.581 81.8909C439.791 81.8109 438.731 80.2809 438.701 78.3409C438.661 76.2209 439.471 75.0109 441.391 74.6709C442.751 74.4309 444.161 74.4509 445.551 74.3309C445.871 74.3009 446.171 74.1609 446.481 74.0709C446.351 73.7109 446.321 73.2409 446.081 73.0009C444.831 71.7709 443.401 72.3609 441.981 72.6409C441.421 72.7509 440.611 72.9609 440.291 72.6809C439.161 71.7009 439.401 70.4009 440.851 70.0609C442.691 69.6209 444.621 69.2709 446.491 69.3609C449.021 69.4909 450.391 71.2709 450.421 73.8009C450.431 74.9109 450.421 76.0209 450.421 77.1209L450.411 77.1409ZM443.521 79.3109C445.341 79.3109 446.511 78.7909 446.561 77.4609C446.621 75.8709 445.161 76.9109 444.441 76.6109C444.291 76.5509 444.091 76.6109 443.921 76.6109C442.911 76.5109 442.201 77.0409 442.361 77.9609C442.461 78.5609 443.261 79.0409 443.521 79.3209V79.3109Z" fill="#28338B"/>
<path d="M329.08 76.6109C327.97 76.6109 326.86 76.6109 325.76 76.6109C324.68 76.6009 324.73 77.1109 325.2 77.8009C326.06 79.0709 327.93 79.4609 329.58 78.3909C331.16 77.3809 331.41 78.9809 332.25 79.4209C331.88 79.9309 331.62 80.6209 331.12 80.9409C328.53 82.5609 324.89 82.3209 322.63 80.4709C320.92 79.0709 320.22 75.9909 321.03 73.4009C321.91 70.5709 325.08 68.8009 328.27 69.3409C331.42 69.8809 333.36 72.2709 333.35 75.4109C333.35 76.4509 332.99 76.7009 332.04 76.6309C331.05 76.5609 330.06 76.6109 329.07 76.6109H329.08ZM327.11 74.9509C327.98 74.6009 329.34 74.3409 329.37 73.9909C329.47 72.6709 328.35 72.1509 327.19 72.1509C326.03 72.1509 324.95 72.7009 324.93 73.9709C324.93 74.2709 326.29 74.5909 327.11 74.9509Z" fill="#28338B"/>
<path d="M365.65 32.6611C365.65 35.2811 365.67 37.9111 365.65 40.5311C365.63 42.2711 364.84 43.1311 363.32 43.1511C361.97 43.1711 361.03 42.2411 361.02 40.6511C360.98 35.1711 360.97 29.6811 361.02 24.2011C361.03 22.8711 361.63 21.8711 363.24 21.8711C364.9 21.8711 365.59 22.8011 365.62 24.2611C365.68 27.0611 365.64 29.8611 365.64 32.6611H365.65Z" fill="#28338B"/>
<path d="M351.019 82.221C349.719 81.771 348.209 81.271 346.729 80.711C345.499 80.251 346.329 79.591 346.629 79.001C346.919 78.421 346.959 77.571 348.059 78.191C348.949 78.691 349.979 79.051 350.979 79.211C351.559 79.301 352.219 78.851 352.839 78.641C352.419 78.171 352.089 77.531 351.569 77.261C350.819 76.871 349.909 76.791 349.099 76.491C347.629 75.941 346.649 74.971 346.609 73.271C346.559 71.451 347.509 70.241 349.099 69.661C351.389 68.831 353.679 69.131 355.819 70.241C356.099 70.391 356.309 71.211 356.149 71.551C355.869 72.171 355.889 73.361 354.579 72.871C353.659 72.531 352.739 72.131 351.789 71.981C351.349 71.911 350.819 72.381 350.329 72.611C350.629 72.961 350.849 73.471 351.229 73.641C352.219 74.091 353.279 74.371 354.309 74.751C355.839 75.311 356.659 76.411 356.659 78.051C356.659 79.671 355.899 80.861 354.369 81.411C353.409 81.761 352.369 81.901 351.009 82.211L351.019 82.221Z" fill="#28338B"/>
<path d="M224.781 75.6711C224.781 75.0311 224.761 74.3911 224.781 73.7511C224.801 73.0711 224.831 72.5011 223.831 72.5111C223.581 72.5111 223.161 71.8611 223.121 71.4811C223.081 71.0611 223.401 70.2111 223.521 70.2111C225.101 70.3111 224.871 69.1911 224.741 68.3411C224.501 66.7111 225.321 66.5211 226.631 66.6411C227.761 66.7511 229.271 66.2011 228.891 68.3111C228.641 69.6811 229.211 70.2311 230.591 70.0311C231.551 69.8911 232.191 70.0111 232.161 71.3511C232.131 72.6311 231.481 72.6711 230.631 72.5411C229.111 72.3011 228.681 72.9611 228.871 74.3611C228.971 75.1011 228.921 75.8811 228.871 76.6311C228.781 78.0211 228.871 79.1011 230.811 78.7111C231.101 78.6511 231.771 79.7311 231.991 80.3711C232.101 80.6811 231.661 81.4911 231.321 81.5911C228.081 82.5711 224.681 82.0211 224.761 77.4011C224.771 76.8211 224.761 76.2311 224.761 75.6511L224.781 75.6711Z" fill="#28338B"/>
<path d="M315.609 81.9408C312.759 81.9708 311.599 80.8108 311.589 77.9808C311.589 76.6408 311.579 75.3008 311.589 73.9608C311.599 73.1808 311.709 72.4308 310.489 72.5008C310.289 72.5108 309.879 71.8108 309.859 71.4208C309.829 71.0108 310.179 70.1908 310.289 70.2008C311.879 70.3608 311.669 69.2408 311.549 68.3808C311.329 66.8208 312.039 66.5608 313.399 66.6408C314.639 66.7108 315.799 66.5508 315.409 68.4008C315.099 69.8708 315.869 70.2208 317.159 70.0608C318.019 69.9508 318.669 69.9608 318.669 71.2508C318.669 72.5708 318.049 72.7108 317.079 72.5608C315.699 72.3508 315.229 72.9008 315.379 74.2708C315.499 75.3608 315.279 76.5008 315.469 77.5708C315.549 78.0308 316.429 78.7908 316.729 78.7008C318.869 78.0708 318.169 80.0808 318.819 80.8108C318.209 81.1908 317.639 81.6508 316.979 81.9208C316.579 82.0808 316.059 81.9508 315.599 81.9508L315.609 81.9408Z" fill="#28338B"/>
<path d="M340.119 71.3511C340.979 70.6511 341.329 70.2011 341.789 70.0211C342.559 69.7211 343.399 69.5811 344.219 69.3711C344.299 70.3811 344.429 71.3911 344.419 72.4011C344.419 72.5511 343.809 72.7711 343.449 72.8411C341.119 73.2911 340.349 74.2011 340.349 76.6211C340.349 77.9611 340.279 79.3011 340.369 80.6311C340.449 81.7311 340.049 82.1111 338.989 81.9711C338.529 81.9111 338.049 81.9111 337.599 81.9711C336.479 82.1111 336.229 81.5811 336.239 80.5511C336.289 77.3511 336.299 74.1511 336.239 70.9611C336.219 69.8011 336.589 69.3611 337.729 69.5211C338.129 69.5811 338.549 69.5611 338.949 69.5211C340.019 69.4111 340.759 69.6111 340.129 71.3411L340.119 71.3511Z" fill="#28338B"/>
<path d="M182.049 73.4209C182.049 75.8109 181.999 78.2009 182.069 80.5809C182.099 81.6009 181.879 82.0109 180.739 82.0009C178.189 81.9809 178.189 82.0509 178.189 79.5509C178.189 75.1809 178.229 70.8109 178.159 66.4509C178.139 65.2509 178.409 64.8509 179.669 64.8909C182.039 64.9809 182.039 64.8909 182.039 67.3009C182.039 69.3409 182.039 71.3809 182.039 73.4209H182.049Z" fill="#28338B"/>
<path d="M239.12 73.4207C239.12 75.8107 239.07 78.2007 239.14 80.5807C239.17 81.6007 238.96 82.0307 237.82 81.9907C234.65 81.8807 235.31 82.2407 235.29 79.5507C235.25 75.1807 235.32 70.8108 235.25 66.4508C235.23 65.2508 235.49 64.8407 236.76 64.8907C239.12 64.9807 239.13 64.8907 239.13 67.3007C239.13 69.3407 239.13 71.3807 239.13 73.4107L239.12 73.4207Z" fill="#28338B"/>
<path d="M306.56 73.571C306.56 75.961 306.5 78.351 306.58 80.731C306.64 82.521 305.38 81.891 304.53 81.951C303.65 82.011 302.68 82.261 302.7 80.681C302.78 75.851 302.76 71.021 302.7 66.191C302.7 65.221 302.93 64.901 303.94 64.901C306.53 64.901 306.53 64.841 306.53 67.471C306.53 69.511 306.53 71.541 306.53 73.581L306.56 73.571Z" fill="#28338B"/>
<path d="M294.461 75.621C294.461 74.051 294.521 72.471 294.441 70.901C294.381 69.841 294.691 69.481 295.791 69.521C299.281 69.631 298.571 69.171 298.621 72.211C298.661 74.951 298.571 77.691 298.661 80.431C298.701 81.661 298.331 82.141 297.101 81.981C296.581 81.911 296.051 81.931 295.531 81.981C294.671 82.061 294.431 81.691 294.451 80.871C294.501 79.121 294.471 77.371 294.471 75.621H294.461Z" fill="#28338B"/>
<path d="M209.24 25.2308C210.55 25.2508 211.83 26.5508 211.81 27.8308C211.79 29.1708 210.55 30.3208 209.15 30.3008C207.7 30.2808 206.73 29.1908 206.79 27.6508C206.85 26.2608 207.92 25.1908 209.24 25.2208V25.2308Z" fill="#28338B"/>
<path d="M218.5 27.801C218.5 29.351 217.52 30.331 216.02 30.301C214.66 30.271 213.59 29.2211 213.56 27.8811C213.52 26.5411 214.72 25.2611 216.04 25.2311C217.43 25.2011 218.5 26.321 218.5 27.801Z" fill="#28338B"/>
<path d="M473.419 23.9408C473.459 25.2808 472.429 26.3508 471.059 26.3908C469.579 26.4308 468.669 25.5808 468.649 24.1008C468.619 22.6208 469.509 21.6608 470.939 21.6208C472.319 21.5808 473.379 22.5708 473.419 23.9408Z" fill="#28338B"/>
<path d="M470.701 29.111C470.741 30.431 469.701 31.591 468.411 31.661C467.171 31.731 465.731 30.421 465.721 29.231C465.721 28.021 466.931 26.831 468.201 26.801C469.591 26.761 470.651 27.741 470.691 29.101L470.701 29.111Z" fill="#28338B"/>
<path d="M474.279 26.8008C475.649 26.8008 476.629 27.8508 476.599 29.2808C476.569 30.7308 475.559 31.7908 474.189 31.6408C472.849 31.4908 471.949 30.8008 471.959 29.2708C471.969 27.8008 472.889 26.8008 474.279 26.8008Z" fill="#28338B"/>
<path d="M415.269 24.4107C415.159 25.6507 413.999 26.6907 412.809 26.6307C411.669 26.5707 410.329 25.1207 410.429 24.0607C410.549 22.7107 411.839 21.7107 413.259 21.8807C414.559 22.0307 415.399 23.0807 415.279 24.4207L415.269 24.4107Z" fill="#28338B"/>
<path d="M404.501 24.2808C404.471 22.9608 405.401 21.9208 406.691 21.8508C407.991 21.7808 409.241 22.8908 409.281 24.1208C409.321 25.2808 407.981 26.6508 406.821 26.6308C405.561 26.6208 404.531 25.5708 404.501 24.2708V24.2808Z" fill="#28338B"/>
<path d="M381.92 23.9709C381.93 22.5809 382.85 21.6309 384.16 21.6309C385.32 21.6309 386.52 22.8009 386.56 23.9709C386.6 25.1209 385.42 26.3809 384.28 26.4109C382.95 26.4509 381.9 25.3709 381.92 23.9709Z" fill="#28338B"/>
<path d="M349.96 29.2507C348.59 29.2307 347.67 28.3107 347.7 27.0007C347.72 25.7707 348.82 24.6807 350.03 24.6807C351.22 24.6807 352.41 25.8107 352.45 26.9807C352.49 28.3207 351.45 29.2707 349.97 29.2507H349.96Z" fill="#28338B"/>
<path d="M358.099 27.0611C358.089 28.4911 357.279 29.2711 355.809 29.2611C354.399 29.2511 353.539 28.3811 353.569 26.9811C353.589 25.6611 354.609 24.6611 355.899 24.6911C357.229 24.7211 358.119 25.6811 358.109 27.0611H358.099Z" fill="#28338B"/>
<path d="M294.34 66.3907C294.59 64.5307 295.35 63.8307 296.59 63.7707C297.7 63.7107 298.73 64.9307 298.63 66.0707C298.52 67.4207 297.5 68.1407 296.43 67.9707C295.59 67.8407 294.89 66.8307 294.34 66.3807V66.3907Z" fill="#28338B"/>
</svg>
