<svg width="482" height="108" viewBox="0 0 482 108" fill="none" xmlns="http://www.w3.org/2000/svg">
<path d="M82.9396 45.0407C82.6096 47.0507 79.5096 49.1707 76.0096 49.5207C73.3096 49.7907 69.1196 47.2407 68.4296 45.1907C66.8696 45.4707 65.3696 45.9807 63.8696 45.9807C45.3096 46.0307 26.7496 46.0207 8.19959 45.9907C6.95959 45.9907 6.34959 46.1207 6.38959 47.6307C6.43959 49.3607 5.13959 50.4907 3.53959 50.5107C1.86959 50.5407 0.829586 49.7207 0.789586 47.8307C0.699586 43.8107 0.699586 39.7807 0.879586 35.7707C0.979586 33.4207 2.68959 31.9707 5.03959 31.9507C10.5796 31.9107 16.1296 31.9207 21.6696 31.9507C23.5696 31.9507 24.8796 33.1707 24.9396 34.8507C25.0096 36.5707 23.6296 38.0107 21.6996 38.0407C17.9696 38.1007 14.2296 38.0607 10.4996 38.0607C9.61959 38.0607 8.72959 37.9707 7.87959 38.1107C7.47959 38.1807 7.15959 38.6907 6.79959 39.0007C7.15959 39.3107 7.48959 39.6907 7.89959 39.9007C8.17959 40.0407 8.58958 39.9407 8.93958 39.9407C21.1996 39.9407 33.4496 39.9207 45.7096 39.9707C47.0896 39.9707 47.4996 39.6107 47.4796 38.2207C47.4296 34.0507 48.8096 32.7607 53.0296 32.7507C55.9496 32.7507 58.8696 32.7807 61.7796 32.7307C62.6896 32.7107 63.0096 33.0007 62.9796 33.9207C62.9196 35.7907 62.9996 37.6607 62.9496 39.5207C62.9296 40.3807 63.1096 40.7207 64.0896 40.7607C68.5296 40.9207 68.5296 40.9607 68.5296 36.5507C68.5296 32.7007 68.5196 28.8507 68.5296 25.0007C68.5296 23.0707 69.6096 21.8507 71.2496 21.8707C72.8796 21.8907 73.7796 22.9607 73.7796 24.9307C73.7796 30.3607 73.8396 35.7907 73.7396 41.2107C73.7096 42.7407 74.3096 43.3607 75.6796 43.3907C77.0696 43.4307 77.6996 42.8607 77.6696 41.2907C77.5696 35.8107 77.6496 30.3207 77.6196 24.8307C77.6196 23.3407 78.3096 22.3207 79.6496 21.9307C80.8696 21.5707 81.9896 22.0107 82.5796 23.2407C82.7996 23.6807 82.8696 24.2407 82.8696 24.7407C82.8996 26.8407 82.9396 28.9407 82.8696 31.0407C82.8296 32.1307 83.1596 32.4207 84.2396 32.4107C90.1896 32.3607 96.1396 32.3807 102.1 32.3907C105.51 32.3907 106.7 33.6107 106.72 37.0107C106.733 39.4907 107.956 40.7307 110.39 40.7307C110.86 40.7307 111.33 40.6707 111.79 40.7307C114.15 41.0607 115.75 40.5507 116.83 38.0107C118.01 35.2407 120.75 34.2807 123.68 34.5507C126.7 34.8307 128.89 36.5107 129.86 39.4307C130.21 40.4707 130.66 40.7907 131.69 40.7407C133.14 40.6607 134.61 40.6507 136.06 40.7407C137.16 40.8107 137.43 40.4207 137.42 39.3607C137.37 34.5807 137.39 29.7907 137.4 25.0007C137.4 22.8707 138.3 21.8307 140.03 21.8507C141.61 21.8707 142.7 23.1707 142.7 25.0707C142.7 31.5507 142.68 38.0307 142.73 44.5007C142.73 45.5907 142.53 46.0307 141.31 46.0007C137.99 45.9107 134.61 46.3207 131.35 45.8407C129.49 45.5707 127.91 45.4707 126.07 45.8807C124.18 46.3007 122.02 46.3707 120.17 45.8707C118.07 45.3107 116.21 45.7807 114.2 45.8507C105.11 46.1407 95.9996 46.0207 86.8896 45.9307C85.5696 45.9207 84.2496 45.3207 82.9496 45.0007L82.9396 45.0407ZM92.4996 38.6607C89.9896 38.6607 87.4796 38.7207 84.9796 38.6307C83.8396 38.5907 83.7996 39.1607 83.8096 40.0107C83.8096 40.8507 83.8296 41.4407 84.9796 41.4207C89.9396 41.3707 94.8996 41.3707 99.8496 41.4207C100.98 41.4307 101.03 40.8707 101.04 40.0107C101.04 39.1507 100.99 38.5907 99.8596 38.6307C97.4096 38.7107 94.9596 38.6507 92.5096 38.6507L92.4996 38.6607ZM122.91 43.1607C124.18 43.1807 125.53 41.8507 125.52 40.5807C125.52 39.4107 124.24 38.1207 123.05 38.0707C121.61 38.0207 120.47 39.0807 120.43 40.5207C120.39 41.9007 121.55 43.1407 122.91 43.1607ZM55.0896 40.7607C55.4596 40.7607 55.6896 40.7407 55.9196 40.7607C56.8696 40.8707 57.3896 40.6907 57.3496 39.5007C57.3196 38.4107 57.0996 37.8607 55.9096 38.0407C55.5096 38.1007 55.0896 38.1007 54.6996 38.0407C53.3596 37.8307 53.0596 38.4207 53.0896 39.6807C53.1396 41.5807 54.5296 40.3807 55.0896 40.7507V40.7607Z" fill="#28338B"/>
<path d="M269.45 32.7906C272.77 32.7906 276.09 32.8206 279.4 32.7806C282.46 32.7406 284.73 34.0006 285.87 36.8406C286.98 39.5906 286.12 42.1706 284.28 44.2406C283.49 45.1206 281.96 45.7706 280.75 45.7906C273.06 45.8906 265.36 45.7906 257.66 45.7406C257.37 45.7406 256.99 45.8106 256.8 45.6606C255.15 44.2906 253.29 44.9906 251.47 44.9706C248.01 44.9406 245.46 42.1306 245.58 38.7406C245.7 35.4306 248.57 32.8006 251.98 33.0006C253.14 33.0706 253.87 33.2406 253.94 31.5906C254 30.2206 255.38 30.1306 256.55 30.2306C257.74 30.3306 258.3 31.0506 258.3 32.2006C258.31 34.7706 258.35 37.3306 258.28 39.9006C258.25 41.0406 258.63 41.4406 259.78 41.4306C266.37 41.3906 272.96 41.4106 279.55 41.4106C280.95 41.4106 281.73 40.7606 281.78 39.3206C281.83 37.8106 280.93 37.5106 279.63 37.5206C275.37 37.5506 271.11 37.5506 266.86 37.5206C264.12 37.5006 262.81 36.6906 262.38 34.8406C262 33.2406 262.66 31.4706 264.06 30.6006C266.73 28.9506 269.42 27.3406 272.11 25.7406C273.26 25.0606 274.44 24.8406 275.34 26.1606C276.09 27.2606 275.74 28.5506 274.37 29.4306C272.72 30.4906 271 31.4306 269.31 32.4206C269.35 32.5506 269.38 32.6706 269.42 32.8006L269.45 32.7906ZM251.4 37.2106C250.48 37.2106 249.65 37.9906 249.91 39.0306C250.11 39.8306 251.16 40.4106 251.83 41.0906C252.5 40.4006 253.6 39.7906 253.74 39.0006C253.95 37.8306 252.95 37.1806 251.4 37.2106Z" fill="#28338B"/>
<path d="M227.52 40.3409C225.66 39.7909 223.79 39.6109 222.36 38.7309C219.95 37.2609 219.24 34.6209 220.02 32.0209C220.77 29.5409 223.02 27.7309 225.65 27.5209C228.14 27.3209 231.53 29.7909 231.72 32.3409C231.95 35.4609 231.92 38.6209 231.72 41.7409C231.57 44.0109 229.62 45.6209 227.38 45.7109C223.95 45.8509 220.51 45.9409 217.08 46.0009C216.31 46.0109 215.99 46.1409 215.94 47.0309C215.72 51.7209 212.55 53.1909 208.79 53.0009C204.75 52.8009 202.73 50.4109 203 46.7009C203.1 45.3509 203.92 44.7309 205.13 44.6309C206.44 44.5209 207.5 45.0709 207.61 46.4909C207.7 47.7409 207.95 48.8109 209.41 48.7009C210.97 48.5909 211.27 47.3509 211.28 46.0209C211.28 39.0209 211.29 32.0209 211.3 25.0209C211.3 23.6209 211.44 22.2609 213.16 21.9109C214.78 21.5809 215.97 22.7009 215.98 24.5809C216 29.8309 216 35.0809 215.97 40.3309C215.97 41.2409 216.09 41.6909 217.18 41.6309C219.91 41.4809 222.65 41.4509 225.38 41.3909C226.42 41.3709 227.34 41.2309 227.55 40.3309L227.52 40.3409ZM227.83 33.6409C227.71 32.3309 226.99 31.6309 225.67 31.6709C224.4 31.7009 223.73 32.5409 223.73 33.6909C223.73 34.9309 224.46 35.8209 225.79 35.7809C227.07 35.7409 227.771 34.9609 227.821 33.6409H227.83Z" fill="#28338B"/>
<path d="M308.39 45.8806C304.83 45.8806 301.27 45.9206 297.71 45.8606C296.58 45.8406 296.08 46.1506 296.22 47.3306C296.3 47.9606 296.44 48.7206 296.18 49.2306C295.65 50.2506 295.05 51.6106 294.15 51.9406C292.98 52.3706 291.33 52.2906 290.18 51.7806C288.57 51.0506 288.83 48.8206 290.53 48.0906C291.45 47.7006 291.67 47.2106 291.65 46.3006C291.6 43.0906 291.61 39.8806 291.61 36.6706C291.61 36.0306 291.59 35.3806 291.72 34.7606C291.98 33.4306 292.73 32.4506 294.2 32.5706C295.67 32.6906 296.24 33.7506 296.25 35.1506C296.25 36.7806 296.31 38.4206 296.23 40.0506C296.17 41.1606 296.59 41.4806 297.64 41.4206C298.92 41.3406 300.21 41.3306 301.49 41.4206C302.62 41.5106 302.88 41.0606 302.83 40.0206C302.75 38.3906 302.77 36.7506 302.83 35.1206C302.89 33.3406 303.74 32.4406 305.18 32.5106C306.88 32.5906 307.27 33.6806 307.24 35.1406C307.21 36.8906 307.26 38.6406 307.24 40.3906C307.21 42.0906 308.48 41.3906 309.24 41.4406C309.99 41.4906 311.1 41.9106 311.05 40.3706C310.99 38.6206 311 36.8706 311.07 35.1206C311.14 33.3006 311.93 32.4706 313.41 32.5206C315.09 32.5806 315.54 33.6606 315.53 35.1206C315.53 36.8106 315.58 38.5106 315.52 40.2006C315.48 41.1906 315.81 41.5006 316.81 41.5106C319.33 41.5306 319.32 41.5806 319.33 39.0206C319.33 37.6806 319.27 36.3306 319.36 34.9906C319.45 33.5906 319.96 32.4806 321.66 32.5306C323.33 32.5706 323.84 33.6206 323.85 35.0706C323.86 37.4606 323.91 39.8606 323.85 42.2506C323.8 44.4006 322.69 45.6306 320.5 45.6906C316.48 45.8006 312.45 45.7206 308.43 45.7206C308.43 45.7706 308.43 45.8306 308.43 45.8806H308.39Z" fill="#28338B"/>
<path d="M182.741 45.8807C178.421 45.8807 174.111 45.9307 169.791 45.8507C168.521 45.8307 168.121 46.2407 168.291 47.4307C168.351 47.8307 168.321 48.2507 168.291 48.6507C168.151 51.6707 164.961 53.5207 162.341 52.0007C161.781 51.6707 161.311 50.7107 161.311 50.0307C161.311 49.3907 161.821 48.4307 162.371 48.1707C163.341 47.7107 163.531 47.1307 163.521 46.1807C163.471 42.9107 163.501 39.6507 163.501 36.3807C163.501 35.9707 163.471 35.5607 163.521 35.1607C163.691 33.6007 164.811 32.4007 166.051 32.5607C167.571 32.7507 168.211 33.8407 168.281 35.2407C168.361 36.8707 168.351 38.5107 168.281 40.1407C168.241 41.1207 168.541 41.4407 169.551 41.4307C177.601 41.3907 185.651 41.3907 193.711 41.4307C194.961 41.4307 195.361 40.9907 195.311 39.7907C195.241 38.3307 195.261 36.8707 195.311 35.4107C195.351 34.0407 195.881 33.0807 197.471 33.0507C199.051 33.0207 199.711 33.9707 199.761 35.3307C199.851 37.8407 199.851 40.3507 199.761 42.8607C199.701 44.6007 198.711 45.6707 196.891 45.7107C192.171 45.8107 187.451 45.7407 182.731 45.7407C182.731 45.7907 182.731 45.8307 182.731 45.8807H182.741Z" fill="#28338B"/>
<path d="M42.0107 72.2307C41.0507 74.4307 40.0607 76.6307 39.1407 78.8507C38.7807 79.7307 38.3708 80.2507 37.2708 80.2307C36.1908 80.2207 35.6108 79.9107 35.2008 78.8707C34.3208 76.6707 33.3008 74.5207 32.0408 72.3707C32.0408 75.0507 31.9607 77.7307 32.0707 80.4007C32.1307 81.8107 31.5908 82.1107 30.3608 81.9807C29.3308 81.8707 28.1707 82.3607 28.2307 80.4407C28.3707 76.0107 28.3207 71.5807 28.2407 67.1507C28.2207 65.9507 28.6507 65.7007 29.7507 65.7007C32.8507 65.7007 32.8307 65.6707 34.0707 68.4607C35.0307 70.6407 36.0307 72.8007 37.1407 75.2407C38.4907 72.3207 39.7308 69.6207 40.9908 66.9407C41.4708 65.9207 44.9107 65.1207 45.6807 65.8907C45.9107 66.1207 45.9407 66.6407 45.9407 67.0207C45.9607 71.5707 45.8907 76.1207 45.9807 80.6607C46.0107 82.4007 44.8808 81.9107 43.9908 81.9507C43.0808 81.9907 42.1507 82.2007 42.2307 80.6407C42.3607 77.8607 42.2708 75.0707 42.2708 72.2907C42.1908 72.2707 42.1008 72.2407 42.0208 72.2207L42.0107 72.2307Z" fill="#28338B"/>
<path d="M244.531 70.731C247.341 68.341 250.301 68.711 252.011 71.311C253.471 70.611 254.821 69.561 256.281 69.351C259.181 68.931 261.001 70.671 261.161 73.701C261.281 76.081 261.161 78.481 261.211 80.871C261.231 81.721 260.911 82.031 260.091 81.971C259.571 81.931 259.031 81.911 258.521 81.971C257.421 82.111 257.111 81.631 257.151 80.581C257.221 78.831 257.151 77.081 257.171 75.331C257.191 73.961 256.881 72.891 255.221 72.831C253.691 72.781 252.791 73.611 252.731 75.301C252.671 77.051 252.631 78.801 252.741 80.551C252.821 81.771 252.331 82.101 251.251 81.961C250.911 81.921 250.551 81.911 250.201 81.961C248.951 82.141 248.411 81.741 248.511 80.361C248.641 78.621 248.531 76.861 248.541 75.111C248.541 73.881 248.261 72.911 246.771 72.821C245.251 72.731 244.311 73.471 244.221 75.031C244.131 76.601 244.201 78.181 244.191 79.751C244.191 81.961 244.191 82.011 241.901 81.921C241.251 81.891 240.101 82.521 240.101 81.061C240.091 77.501 240.081 73.951 240.121 70.391C240.121 70.091 240.461 69.561 240.681 69.541C241.661 69.451 242.671 69.411 243.641 69.551C243.961 69.601 244.191 70.251 244.511 70.711L244.531 70.731Z" fill="#28338B"/>
<path d="M150.21 36.231C150.21 39.611 150.21 43.001 150.21 46.381C150.21 46.901 150.21 47.431 150.14 47.951C149.93 49.641 148.95 50.551 147.42 50.521C145.97 50.491 144.85 49.431 144.77 47.831C144.69 46.201 144.75 44.561 144.75 42.931C144.75 37.041 144.76 31.151 144.75 25.261C144.75 23.631 145.27 22.351 146.94 21.931C148.74 21.481 150.15 22.811 150.19 25.031C150.25 28.761 150.21 32.501 150.21 36.231Z" fill="#28338B"/>
<path d="M15.0706 81.9707C13.6406 82.4507 12.8906 81.5207 12.5506 80.0507C12.3406 79.1607 11.8306 78.8607 10.9306 78.9407C9.95065 79.0207 8.94065 79.0407 7.96065 78.9407C6.07065 78.7407 4.61065 78.9707 4.09065 81.2407C4.00065 81.6407 2.61065 81.9107 1.81065 81.9407C-0.319354 82.0407 -0.309353 81.9807 0.520647 80.0407C2.40065 75.6907 4.35065 71.3607 6.11065 66.9607C6.78065 65.2907 8.02065 65.8507 9.13065 65.7407C10.1706 65.6307 10.9706 65.7807 11.4506 66.9607C13.1606 71.2507 14.9606 75.5107 16.7706 79.7607C17.7306 82.0007 17.7706 81.9807 15.0606 81.9807L15.0706 81.9707ZM8.65065 69.9307C7.77065 72.1407 7.08065 73.8707 6.31065 75.7807C7.65065 75.7807 8.69065 75.7507 9.73065 75.7807C10.5406 75.8107 10.9506 75.7007 10.5206 74.7307C9.89065 73.3207 9.39065 71.8607 8.65065 69.9207V69.9307Z" fill="#28338B"/>
<path d="M268.86 80.4007C268.86 82.1707 268.8 83.6307 268.88 85.0807C268.94 86.1007 268.55 86.4207 267.59 86.3107C267.07 86.2507 266.54 86.2607 266.02 86.3107C265.17 86.3907 264.93 86.0407 264.93 85.2107C264.96 80.3707 264.97 75.5307 264.93 70.6907C264.93 69.7507 265.31 69.2907 266.14 69.5707C267.06 69.8707 268.6 68.5007 268.89 70.5307C269.17 70.4407 269.5 70.4207 269.73 70.2507C271.53 68.9407 273.45 68.9407 275.31 69.9507C277.3 71.0307 278.25 72.8007 278.31 75.1007C278.37 77.3407 278.13 79.4807 276.16 80.8707C273.81 82.5307 271.4 82.4207 268.86 80.3907V80.4007ZM271.61 78.6607C273.4 78.6607 274.4 77.5807 274.43 75.6307C274.45 73.7707 273.33 72.4707 271.68 72.4607C270.1 72.4507 268.88 73.7907 268.86 75.5607C268.84 77.3807 269.98 78.6607 271.61 78.6607Z" fill="#28338B"/>
<path d="M104.141 73.8509C106.691 71.3309 108.301 68.0309 112.391 69.8909C111.431 70.8709 110.441 72.0409 109.291 73.0309C108.341 73.8409 108.291 74.4609 108.991 75.4909C110.341 77.4909 111.541 79.5909 112.641 82.1609C111.091 81.9209 109.221 82.1309 108.071 81.3109C106.881 80.4609 106.391 78.6309 105.591 77.2309C105.381 77.2109 105.171 77.2009 104.971 77.1809C104.701 78.2609 104.151 79.3509 104.211 80.4109C104.291 82.0709 103.401 82.0309 102.271 81.9809C101.251 81.9409 100.241 82.2709 100.291 80.5009C100.421 75.7309 100.361 70.9509 100.311 66.1709C100.301 65.1809 100.591 64.9109 101.571 64.9009C104.141 64.9009 104.141 64.8509 104.141 67.4909C104.141 69.4509 104.141 71.4009 104.141 73.8509Z" fill="#28338B"/>
<path d="M215.829 82.001C211.879 82.041 209.259 80.451 207.749 77.281C206.259 74.161 207.069 70.331 209.489 67.931C211.829 65.601 215.759 64.871 218.859 66.181C219.179 66.311 219.479 66.491 219.789 66.651C222.439 68.061 222.409 68.031 220.459 70.251C219.869 70.921 219.609 71.021 218.889 70.361C216.909 68.541 214.319 68.551 212.619 70.241C210.839 72.001 210.719 74.961 212.359 76.921C213.819 78.671 216.379 78.921 218.529 77.531C218.979 77.241 219.719 76.701 219.899 76.831C220.679 77.421 221.319 78.201 221.939 78.971C222.019 79.061 221.749 79.591 221.519 79.751C219.689 81.011 217.829 82.201 215.849 81.991L215.829 82.001Z" fill="#28338B"/>
<path d="M121.75 73.7809C121.75 71.5609 121.79 69.3409 121.73 67.1309C121.7 66.1309 121.87 65.671 123.04 65.701C126.19 65.781 129.34 65.801 132.49 65.701C133.9 65.651 133.79 66.4509 133.79 67.3609C133.79 68.2309 134 69.1409 132.55 69.0609C130.8 68.9609 129.05 69.091 127.3 69.011C126.27 68.971 125.86 69.211 125.9 70.341C126.01 73.431 125.64 72.7809 128.4 72.8509C129.33 72.8709 130.28 72.9609 131.2 72.8309C132.78 72.6109 133.24 73.2009 133.11 74.7409C133.03 75.6909 132.83 76.1009 131.81 76.0509C130.24 75.9809 128.66 76.0809 127.09 76.0209C126.15 75.9809 125.86 76.3309 125.92 77.2209C125.98 78.2109 125.84 79.2109 125.96 80.1909C126.14 81.6609 125.61 82.081 124.15 82.011C121.77 81.891 121.77 81.991 121.77 79.571C121.77 77.641 121.77 75.721 121.77 73.791L121.75 73.7809Z" fill="#28338B"/>
<path d="M96.4 77.4908C96.4 78.4808 96.32 79.4808 96.42 80.4608C96.55 81.7508 95.96 82.2408 94.83 81.9308C93.98 81.7008 92.62 82.8208 92.32 81.0508C92.01 81.1708 91.67 81.2508 91.38 81.4108C88.9 82.7608 85.75 81.9808 84.72 79.7508C83.7 77.5608 84.89 75.1008 87.29 74.6508C88.53 74.4108 89.83 74.4508 91.1 74.3208C91.51 74.2808 91.9 74.0908 92.3 73.9708C92.03 73.5008 91.77 72.6508 91.47 72.6408C90.13 72.5608 88.75 72.5808 87.44 72.8408C86.62 73.0008 86.25 73.0708 85.84 72.2108C85.27 71.0108 85.37 70.2408 86.74 70.0208C88.61 69.7208 90.51 69.2808 92.37 69.3708C94.82 69.4908 96.25 71.3508 96.39 74.0008C96.45 75.1608 96.4 76.3308 96.39 77.5008L96.4 77.4908ZM90.91 76.2508C89.6 76.7008 88.21 76.2108 88.19 77.9508C88.18 79.0708 89.01 79.3108 89.98 79.2908C91.22 79.2708 92.19 78.7908 92.26 77.5108C92.28 77.1208 91.39 76.6708 90.91 76.2508Z" fill="#28338B"/>
<path d="M300.16 70.451C301.7 70.071 303.3 69.431 304.93 69.341C306.78 69.231 308.49 70.781 308.63 72.611C308.85 75.451 308.82 78.301 308.82 81.151C308.82 81.421 308.32 81.771 307.98 81.931C307.69 82.061 307.29 81.921 306.94 81.971C305.3 82.251 304.62 81.701 304.82 79.941C304.98 78.501 304.86 77.031 304.85 75.571C304.84 73.621 304.27 72.891 302.74 72.841C301.2 72.791 300.13 73.861 300.07 75.611C300.01 77.241 299.94 78.881 300.08 80.501C300.22 82.071 299.33 82.021 298.28 81.971C297.23 81.921 296.05 82.331 296.15 80.431C296.31 77.581 296.17 74.721 296.19 71.871C296.21 69.231 295.86 69.611 298.5 69.521C299.57 69.481 300.33 69.601 300.16 70.451Z" fill="#28338B"/>
<path d="M57.9598 80.2809C56.2498 82.1309 54.2898 82.4409 52.2498 81.5909C50.1798 80.7209 49.8198 78.7909 49.7798 76.8009C49.7398 74.8209 49.8298 72.8409 49.7498 70.8609C49.6998 69.7409 50.1498 69.4109 51.1798 69.5309C51.6998 69.5909 52.2298 69.5809 52.7498 69.5309C53.6098 69.4409 53.8498 69.8209 53.8298 70.6409C53.7798 72.3909 53.8098 74.1409 53.8198 75.8809C53.8198 77.2109 54.0998 78.3509 55.7598 78.4109C57.4198 78.4709 58.0698 77.3809 58.1898 76.0109C58.3298 74.3309 58.2798 72.6309 58.2198 70.9409C58.1798 69.9409 58.3898 69.4709 59.5498 69.5009C62.7798 69.6009 62.1398 69.2809 62.1798 72.0709C62.2198 74.6909 62.2298 77.3209 62.1598 79.9409C62.1398 80.7009 62.7798 81.9009 61.1198 81.9909C58.6898 82.1209 58.4198 82.0509 57.9898 80.2809H57.9598Z" fill="#28338B"/>
<path d="M230.161 81.971C226.181 81.971 223.631 79.501 223.631 75.661C223.631 71.811 226.301 69.261 230.311 69.271C234.331 69.281 237.081 71.861 237.091 75.631C237.091 79.501 234.391 81.981 230.171 81.971H230.161ZM233.041 75.811C233.081 73.771 232.051 72.561 230.291 72.561C228.611 72.561 227.561 73.771 227.561 75.681C227.561 77.571 228.641 78.871 230.241 78.931C231.821 78.991 233.011 77.661 233.041 75.811Z" fill="#28338B"/>
<path d="M317.641 77.6008C318.411 75.2608 319.151 73.3608 319.631 71.4008C320.001 69.8808 320.711 69.2408 322.261 69.5208C322.771 69.6108 323.311 69.5308 323.991 69.5308C323.941 69.8908 323.951 70.2108 323.851 70.4908C322.141 74.8508 320.381 79.2008 318.691 83.5708C317.441 86.7808 313.951 86.7208 311.751 85.9208C311.361 85.7808 310.851 84.7408 310.961 84.6208C311.531 83.9908 311.351 82.5508 312.881 82.8508C313.571 82.9908 314.701 82.9408 315.001 82.5208C315.371 82.0008 315.311 80.9308 315.051 80.2508C313.821 77.1308 312.491 74.0508 311.131 70.9808C310.621 69.8208 310.881 69.6308 312.121 69.4808C314.121 69.2408 315.011 70.0208 315.541 71.8408C316.081 73.7108 316.881 75.5108 317.661 77.6008H317.641Z" fill="#28338B"/>
<path d="M292.411 77.1409C292.411 78.1909 292.471 79.2409 292.391 80.2909C292.351 80.8509 292.061 81.8809 291.901 81.8709C290.821 81.8609 289.741 81.6309 288.661 81.4509C288.351 81.4009 288.041 81.2009 287.761 81.2409C286.361 81.4409 284.961 81.9509 283.581 81.8909C281.791 81.8109 280.731 80.2809 280.701 78.3409C280.661 76.2209 281.471 75.0109 283.391 74.6709C284.751 74.4309 286.161 74.4509 287.551 74.3309C287.871 74.3009 288.171 74.1609 288.481 74.0709C288.351 73.7109 288.321 73.2409 288.081 73.0009C286.831 71.7709 285.401 72.3609 283.981 72.6409C283.421 72.7509 282.611 72.9609 282.291 72.6809C281.161 71.7009 281.401 70.4009 282.851 70.0609C284.691 69.6209 286.621 69.2709 288.491 69.3609C291.021 69.4909 292.391 71.2709 292.421 73.8009C292.431 74.9109 292.421 76.0209 292.421 77.1209L292.411 77.1409ZM285.521 79.3109C287.341 79.3109 288.511 78.7909 288.561 77.4609C288.621 75.8709 287.161 76.9109 286.441 76.6109C286.291 76.5509 286.091 76.6109 285.921 76.6109C284.911 76.5109 284.201 77.0409 284.361 77.9609C284.461 78.5609 285.261 79.0409 285.521 79.3209V79.3109Z" fill="#28338B"/>
<path d="M171.08 76.6109C169.97 76.6109 168.86 76.6109 167.76 76.6109C166.68 76.6009 166.73 77.1109 167.2 77.8009C168.06 79.0709 169.93 79.4609 171.58 78.3909C173.16 77.3809 173.41 78.9809 174.25 79.4209C173.88 79.9309 173.62 80.6209 173.12 80.9409C170.53 82.5609 166.89 82.3209 164.63 80.4709C162.92 79.0709 162.22 75.9909 163.03 73.4009C163.91 70.5709 167.08 68.8009 170.27 69.3409C173.42 69.8809 175.36 72.2709 175.35 75.4109C175.35 76.4509 174.99 76.7009 174.04 76.6309C173.05 76.5609 172.06 76.6109 171.07 76.6109H171.08ZM169.11 74.9509C169.98 74.6009 171.34 74.3409 171.37 73.9909C171.47 72.6709 170.35 72.1509 169.19 72.1509C168.03 72.1509 166.95 72.7009 166.93 73.9709C166.93 74.2709 168.29 74.5909 169.11 74.9509Z" fill="#28338B"/>
<path d="M207.65 32.6611C207.65 35.2811 207.67 37.9111 207.65 40.5311C207.63 42.2711 206.84 43.1311 205.32 43.1511C203.97 43.1711 203.03 42.2411 203.02 40.6511C202.98 35.1711 202.97 29.6811 203.02 24.2011C203.03 22.8711 203.63 21.8711 205.24 21.8711C206.9 21.8711 207.59 22.8011 207.62 24.2611C207.68 27.0611 207.64 29.8611 207.64 32.6611H207.65Z" fill="#28338B"/>
<path d="M193.019 82.221C191.719 81.771 190.209 81.271 188.729 80.711C187.499 80.251 188.329 79.591 188.629 79.001C188.919 78.421 188.959 77.571 190.059 78.191C190.949 78.691 191.979 79.051 192.979 79.211C193.559 79.301 194.219 78.851 194.839 78.641C194.419 78.171 194.089 77.531 193.569 77.261C192.819 76.871 191.909 76.791 191.099 76.491C189.629 75.941 188.649 74.971 188.609 73.271C188.559 71.451 189.509 70.241 191.099 69.661C193.389 68.831 195.679 69.131 197.819 70.241C198.099 70.391 198.309 71.211 198.149 71.551C197.869 72.171 197.889 73.361 196.579 72.871C195.659 72.531 194.739 72.131 193.789 71.981C193.349 71.911 192.819 72.381 192.329 72.611C192.629 72.961 192.849 73.471 193.229 73.641C194.219 74.091 195.279 74.371 196.309 74.751C197.839 75.311 198.659 76.411 198.659 78.051C198.659 79.671 197.899 80.861 196.369 81.411C195.409 81.761 194.369 81.901 193.009 82.211L193.019 82.221Z" fill="#28338B"/>
<path d="M66.7806 75.6711C66.7806 75.0311 66.7606 74.3911 66.7806 73.7511C66.8006 73.0711 66.8306 72.5011 65.8306 72.5111C65.5806 72.5111 65.1606 71.8611 65.1206 71.4811C65.0806 71.0611 65.4006 70.2111 65.5206 70.2111C67.1006 70.3111 66.8706 69.1911 66.7406 68.3411C66.5006 66.7111 67.3206 66.5211 68.6306 66.6411C69.7606 66.7511 71.2706 66.2011 70.8906 68.3111C70.6406 69.6811 71.2106 70.2311 72.5906 70.0311C73.5506 69.8911 74.1906 70.0111 74.1606 71.3511C74.1306 72.6311 73.4806 72.6711 72.6306 72.5411C71.1106 72.3011 70.6806 72.9611 70.8706 74.3611C70.9706 75.1011 70.9206 75.8811 70.8706 76.6311C70.7806 78.0211 70.8706 79.1011 72.8106 78.7111C73.1006 78.6511 73.7706 79.7311 73.9906 80.3711C74.1006 80.6811 73.6606 81.4911 73.3206 81.5911C70.0806 82.5711 66.6806 82.0211 66.7606 77.4011C66.7706 76.8211 66.7606 76.2311 66.7606 75.6511L66.7806 75.6711Z" fill="#28338B"/>
<path d="M157.609 81.9408C154.759 81.9708 153.599 80.8108 153.589 77.9808C153.589 76.6408 153.579 75.3008 153.589 73.9608C153.599 73.1808 153.709 72.4308 152.489 72.5008C152.289 72.5108 151.879 71.8108 151.859 71.4208C151.829 71.0108 152.179 70.1908 152.289 70.2008C153.879 70.3608 153.669 69.2408 153.549 68.3808C153.329 66.8208 154.039 66.5608 155.399 66.6408C156.639 66.7108 157.799 66.5508 157.409 68.4008C157.099 69.8708 157.869 70.2208 159.159 70.0608C160.019 69.9508 160.669 69.9608 160.669 71.2508C160.669 72.5708 160.049 72.7108 159.079 72.5608C157.699 72.3508 157.229 72.9008 157.379 74.2708C157.499 75.3608 157.279 76.5008 157.469 77.5708C157.549 78.0308 158.429 78.7908 158.729 78.7008C160.869 78.0708 160.169 80.0808 160.819 80.8108C160.209 81.1908 159.639 81.6508 158.979 81.9208C158.579 82.0808 158.059 81.9508 157.599 81.9508L157.609 81.9408Z" fill="#28338B"/>
<path d="M182.119 71.3511C182.979 70.6511 183.329 70.2011 183.789 70.0211C184.559 69.7211 185.399 69.5811 186.219 69.3711C186.299 70.3811 186.429 71.3911 186.419 72.4011C186.419 72.5511 185.809 72.7711 185.449 72.8411C183.119 73.2911 182.349 74.2011 182.349 76.6211C182.349 77.9611 182.279 79.3011 182.369 80.6311C182.449 81.7311 182.049 82.1111 180.989 81.9711C180.529 81.9111 180.049 81.9111 179.599 81.9711C178.479 82.1111 178.229 81.5811 178.239 80.5511C178.289 77.3511 178.299 74.1511 178.239 70.9611C178.219 69.8011 178.589 69.3611 179.729 69.5211C180.129 69.5811 180.549 69.5611 180.949 69.5211C182.019 69.4111 182.759 69.6111 182.129 71.3411L182.119 71.3511Z" fill="#28338B"/>
<path d="M24.0492 73.4209C24.0492 75.8109 23.9992 78.2009 24.0692 80.5809C24.0992 81.6009 23.8792 82.0109 22.7392 82.0009C20.1892 81.9809 20.1892 82.0509 20.1892 79.5509C20.1892 75.1809 20.2292 70.8109 20.1592 66.4509C20.1392 65.2509 20.4092 64.8509 21.6692 64.8909C24.0392 64.9809 24.0392 64.8909 24.0392 67.3009C24.0392 69.3409 24.0392 71.3809 24.0392 73.4209H24.0492Z" fill="#28338B"/>
<path d="M81.1203 73.4207C81.1203 75.8107 81.0703 78.2007 81.1403 80.5807C81.1703 81.6007 80.9603 82.0307 79.8203 81.9907C76.6503 81.8807 77.3103 82.2407 77.2903 79.5507C77.2503 75.1807 77.3203 70.8108 77.2503 66.4508C77.2303 65.2508 77.4903 64.8407 78.7603 64.8907C81.1203 64.9807 81.1303 64.8907 81.1303 67.3007C81.1303 69.3407 81.1303 71.3807 81.1303 73.4107L81.1203 73.4207Z" fill="#28338B"/>
<path d="M148.56 73.571C148.56 75.961 148.5 78.351 148.58 80.731C148.64 82.521 147.38 81.891 146.53 81.951C145.65 82.011 144.68 82.261 144.7 80.681C144.78 75.851 144.76 71.021 144.7 66.191C144.7 65.221 144.93 64.901 145.94 64.901C148.53 64.901 148.53 64.841 148.53 67.471C148.53 69.511 148.53 71.541 148.53 73.581L148.56 73.571Z" fill="#28338B"/>
<path d="M136.461 75.621C136.461 74.051 136.521 72.471 136.441 70.901C136.381 69.841 136.691 69.481 137.791 69.521C141.281 69.631 140.571 69.171 140.621 72.211C140.661 74.951 140.571 77.691 140.661 80.431C140.701 81.661 140.331 82.141 139.101 81.981C138.581 81.911 138.051 81.931 137.531 81.981C136.671 82.061 136.431 81.691 136.451 80.871C136.501 79.121 136.471 77.371 136.471 75.621H136.461Z" fill="#28338B"/>
<path d="M51.2397 25.2308C52.5497 25.2508 53.8297 26.5508 53.8097 27.8308C53.7897 29.1708 52.5497 30.3208 51.1497 30.3008C49.6997 30.2808 48.7297 29.1908 48.7897 27.6508C48.8497 26.2608 49.9197 25.1908 51.2397 25.2208V25.2308Z" fill="#28338B"/>
<path d="M60.4996 27.801C60.4996 29.351 59.5196 30.331 58.0196 30.301C56.6596 30.271 55.5896 29.2211 55.5596 27.8811C55.5196 26.5411 56.7196 25.2611 58.0396 25.2311C59.4296 25.2011 60.4996 26.321 60.4996 27.801Z" fill="#28338B"/>
<path d="M315.419 23.9408C315.459 25.2808 314.429 26.3508 313.059 26.3908C311.579 26.4308 310.669 25.5808 310.649 24.1008C310.619 22.6208 311.509 21.6608 312.939 21.6208C314.319 21.5808 315.379 22.5708 315.419 23.9408Z" fill="#28338B"/>
<path d="M312.701 29.111C312.741 30.431 311.701 31.591 310.411 31.661C309.171 31.731 307.731 30.421 307.721 29.231C307.721 28.021 308.931 26.831 310.201 26.801C311.591 26.761 312.651 27.741 312.691 29.101L312.701 29.111Z" fill="#28338B"/>
<path d="M316.279 26.8008C317.649 26.8008 318.629 27.8508 318.599 29.2808C318.569 30.7308 317.559 31.7908 316.189 31.6408C314.849 31.4908 313.949 30.8008 313.959 29.2708C313.969 27.8008 314.889 26.8008 316.279 26.8008Z" fill="#28338B"/>
<path d="M257.269 24.4107C257.159 25.6507 255.999 26.6907 254.809 26.6307C253.669 26.5707 252.329 25.1207 252.429 24.0607C252.549 22.7107 253.839 21.7107 255.259 21.8807C256.559 22.0307 257.399 23.0807 257.279 24.4207L257.269 24.4107Z" fill="#28338B"/>
<path d="M246.501 24.2808C246.471 22.9608 247.401 21.9208 248.691 21.8508C249.991 21.7808 251.241 22.8908 251.281 24.1208C251.321 25.2808 249.981 26.6508 248.821 26.6308C247.561 26.6208 246.531 25.5708 246.501 24.2708V24.2808Z" fill="#28338B"/>
<path d="M223.92 23.9709C223.93 22.5809 224.85 21.6309 226.16 21.6309C227.32 21.6309 228.52 22.8009 228.56 23.9709C228.6 25.1209 227.42 26.3809 226.28 26.4109C224.95 26.4509 223.9 25.3709 223.92 23.9709Z" fill="#28338B"/>
<path d="M191.96 29.2507C190.59 29.2307 189.67 28.3107 189.7 27.0007C189.72 25.7707 190.82 24.6807 192.03 24.6807C193.22 24.6807 194.41 25.8107 194.45 26.9807C194.49 28.3207 193.45 29.2707 191.97 29.2507H191.96Z" fill="#28338B"/>
<path d="M200.099 27.0611C200.089 28.4911 199.279 29.2711 197.809 29.2611C196.399 29.2511 195.539 28.3811 195.569 26.9811C195.589 25.6611 196.609 24.6611 197.899 24.6911C199.229 24.7211 200.119 25.6811 200.109 27.0611H200.099Z" fill="#28338B"/>
<path d="M136.34 66.3907C136.59 64.5307 137.35 63.8307 138.59 63.7707C139.7 63.7107 140.73 64.9307 140.63 66.0707C140.52 67.4207 139.5 68.1407 138.43 67.9707C137.59 67.8407 136.89 66.8307 136.34 66.3807V66.3907Z" fill="#28338B"/>
<path d="M481.968 51.763C481.968 57.2137 481.916 62.6644 481.989 68.115C482.019 70.3478 481.201 72.172 479.805 73.7919C476.839 77.2432 472.916 79.279 468.811 80.95C466.035 82.081 463.149 82.9639 460.293 83.8906C459.643 84.1022 459.423 84.3722 459.431 85.0435C459.46 88.8305 459.394 92.6248 459.46 96.4118C459.518 99.8704 461.827 102.205 465.26 102.432C466.78 102.534 468.226 103.796 468.263 105.058C468.299 106.503 466.773 107.977 465.122 107.977C456.209 107.992 447.297 108.006 438.391 107.911C437.653 107.904 436.477 107.277 436.302 106.693C436.002 105.693 436.244 104.489 436.455 103.409C436.507 103.132 437.274 102.855 437.734 102.804C441.818 102.388 444.141 100.104 444.309 96.0761C444.418 93.442 444.323 90.7933 444.352 88.1592C444.352 87.5244 444.17 87.393 443.534 87.4587C436.265 88.1592 428.997 88.8378 421.721 89.4653C421.019 89.5237 420.72 89.7572 420.471 90.3847C418.47 95.4121 416.41 100.418 414.408 105.445C413.955 106.591 413.144 107.174 411.997 107.189C410.828 107.204 410.025 106.525 409.594 105.431C409.002 103.935 408.41 102.439 407.804 100.95C406.35 97.3385 404.911 93.7266 403.413 90.1366C403.289 89.8374 402.771 89.5455 402.413 89.5164C398.212 89.2099 394.004 89.0275 389.811 88.6553C386.728 88.3854 383.667 87.8965 380.599 87.4952C380.131 87.4368 379.627 87.2106 379.642 88.0132C379.7 91.1143 379.54 94.2373 379.876 97.3093C380.212 100.418 382.71 102.578 385.844 102.738C387.685 102.833 388.16 103.723 388.036 105.657C387.941 107.123 387.137 107.963 385.581 107.977C381.278 108.006 376.968 107.992 372.665 107.992C368.231 107.992 363.797 108.021 359.362 107.97C358.595 107.963 357.711 107.78 357.09 107.371C356.192 106.78 355.593 105.803 355.856 104.642C356.141 103.358 357.353 102.512 358.807 102.446C361.364 102.329 363.095 101.023 364.104 98.7321C364.315 98.2433 364.44 97.6741 364.44 97.1341C364.469 93.1282 364.432 89.1296 364.483 85.1237C364.498 84.2116 364.06 84.0146 363.322 83.803C357.931 82.2196 352.62 80.3881 347.995 77.1046C346.417 75.9882 344.993 74.5945 343.722 73.1352C342.567 71.8218 341.983 70.1727 341.99 68.3339C342.012 57.3013 342.012 46.2759 341.99 35.2432C341.99 32.4121 343.444 30.3325 345.358 28.5083C348.419 25.5897 352.159 23.7436 356.046 22.2332C358.566 21.2554 361.174 20.4965 363.716 19.5771C364.038 19.4604 364.418 18.9642 364.425 18.6432C364.476 16.0893 364.527 13.5281 364.425 10.9816C364.301 8.07019 361.262 5.26824 358.296 5.17339C356.762 5.12231 355.797 4.4802 355.578 3.3638C355.374 2.31307 356.177 0.999653 357.448 0.496178C358.099 0.240792 358.822 0.0510772 359.516 0.0437804C368.64 0.0145935 377.764 0.0364837 386.889 0.00729674C387.627 0.00729674 388.014 0.211605 388.291 0.904795C389.95 5.02745 391.688 9.12092 393.325 13.2509C393.675 14.1265 394.048 14.4694 395.049 14.4256C401.003 14.1776 406.964 13.8638 412.918 13.8565C418.36 13.8565 423.81 14.163 429.252 14.4402C430.129 14.484 430.326 14.1265 430.575 13.5209C432.291 9.33253 434.037 5.15879 435.725 0.963169C435.988 0.284573 436.28 0 437.069 0C446.361 0.0291869 455.661 0.0145935 464.953 0.0218902C466.634 0.0218902 467.854 0.802641 468.255 2.07227C468.767 3.67756 467.898 5.07853 466.217 5.1369C461.812 5.28284 459.365 8.69041 459.423 12.5942C459.453 14.4694 459.482 16.3447 459.401 18.2127C459.365 19.1174 459.694 19.4604 460.526 19.6939C465.187 21 469.717 22.6418 473.924 25.0716C476.744 26.6988 479.418 28.5594 480.981 31.5219C481.529 32.5653 481.895 33.8423 481.916 35.017C482.011 40.5917 481.96 46.1737 481.96 51.7558L481.968 51.763ZM411.983 54.7036C422.327 54.6526 432.606 53.974 442.833 52.427C449.532 51.4201 456.151 50.114 462.601 48.049C467.708 46.4145 472.712 44.5247 476.89 41.015C478.943 39.2929 480.499 37.2134 480.083 34.3238C479.732 31.8867 478.067 30.2304 476.24 28.8148C471.463 25.1154 465.816 23.2912 460.147 21.5327C459.562 21.3503 459.423 21.6421 459.438 22.1894C459.467 23.4225 459.511 24.663 459.423 25.8888C459.35 26.852 459.657 27.3992 460.526 27.8808C461.593 28.4719 462.608 29.2161 463.492 30.0553C464.61 31.1133 465.458 32.3756 465.494 34.0393C465.553 36.5494 464.048 38.1254 462.243 39.468C458.78 42.0511 454.741 43.3499 450.65 44.5028C440.882 47.261 430.852 48.2971 420.778 48.7568C409.039 49.2967 397.321 48.8225 385.676 47.0639C380.27 46.2467 374.908 45.2398 369.772 43.3791C367.011 42.3794 364.264 41.1025 361.824 39.4753C357.47 36.5712 357.258 31.8794 361.459 29.3037C364.016 27.7349 364.9 25.9326 364.447 23.1817C364.403 22.9336 364.425 22.671 364.447 22.4156C364.505 21.6494 364.374 21.3357 363.461 21.6786C361.525 22.401 359.501 22.9045 357.565 23.6414C353.584 25.1591 349.719 26.9104 346.549 29.8509C343.042 33.098 342.947 36.9069 346.315 40.2561C347.184 41.1171 348.163 41.8906 349.179 42.5765C353.628 45.5827 358.646 47.312 363.746 48.786C374.331 51.8506 385.201 53.2808 396.145 54.1272C401.404 54.5285 406.694 54.5285 411.975 54.7109L411.983 54.7036ZM426.893 22.058C425.95 21.9413 425.125 21.7881 424.285 21.7516C420.975 21.6275 417.659 21.4305 414.35 21.4743C408.914 21.5473 403.486 21.8172 398.051 21.9486C397.043 21.9705 397.175 22.3134 397.474 22.9847C398.11 24.4076 398.702 25.8596 399.293 27.3044C401.792 33.4045 404.29 39.5045 406.767 45.6192C407.161 46.597 407.614 47.1588 408.871 47.0785C411.121 46.9253 413.385 46.9983 415.635 47.0567C416.402 47.0785 416.753 46.8013 417.023 46.1227C418.952 41.3433 420.917 36.5785 422.868 31.8138C424.197 28.5813 425.534 25.3489 426.893 22.058ZM413.02 72.0845C413.02 73.4489 413.02 74.8134 413.02 76.1706C413.02 79.7022 413.042 83.2412 413.005 86.7728C412.998 87.59 413.203 87.9184 414.072 87.86C415.387 87.7797 416.716 87.787 418.031 87.8089C418.813 87.8235 419.003 87.5025 418.996 86.7436C418.966 76.9952 418.966 67.2394 418.996 57.491C418.996 56.6081 418.696 56.4403 417.915 56.4767C416.68 56.5351 415.438 56.5497 414.211 56.4767C413.283 56.4184 412.983 56.6592 412.991 57.6442C413.049 62.4528 413.02 67.2686 413.013 72.0772L413.02 72.0845ZM376.669 69.2825C376.669 64.474 376.639 59.6654 376.698 54.8569C376.712 53.8572 376.369 53.5289 375.441 53.4267C374.265 53.2954 373.082 53.1129 371.942 52.7919C371.044 52.5365 370.854 52.7627 370.868 53.6383C370.912 56.4038 370.883 59.1692 370.883 61.9347C370.883 68.8301 370.905 75.7182 370.861 82.6136C370.861 83.5184 371.095 83.8833 372.015 83.9854C373.184 84.1168 374.375 84.3211 375.485 84.6932C376.603 85.0654 376.691 84.5984 376.683 83.7009C376.661 78.8923 376.676 74.0838 376.669 69.2752V69.2825ZM399.49 71.8437C399.49 76.6887 399.512 81.541 399.469 86.3861C399.461 87.269 399.724 87.6119 400.586 87.6119C401.777 87.6119 402.975 87.5973 404.159 87.6922C404.962 87.7578 405.101 87.4149 405.072 86.7436C405.035 85.8972 405.064 85.0435 405.064 84.1897C405.064 75.3461 405.043 66.4952 405.094 57.6515C405.094 56.63 404.743 56.3016 403.815 56.3016C402.712 56.3016 401.594 56.3235 400.499 56.2214C399.593 56.1338 399.469 56.5205 399.476 57.3013C399.505 62.1463 399.49 66.9986 399.49 71.8437ZM397.679 71.8364C397.679 66.984 397.65 62.139 397.701 57.2867C397.715 56.287 397.46 55.9514 396.437 55.9879C395.385 56.0316 394.296 55.966 393.266 55.7544C392.178 55.5282 392.09 55.966 392.098 56.8635C392.127 63.073 392.112 69.2825 392.112 75.492C392.112 78.9799 392.127 82.4677 392.098 85.9556C392.098 86.5977 392.163 86.9406 392.952 86.9552C394.092 86.9771 395.231 87.1303 396.357 87.3273C397.299 87.4952 397.715 87.4003 397.701 86.2474C397.635 81.4389 397.671 76.6376 397.671 71.8291L397.679 71.8364ZM441.197 70.2676C441.197 75.1199 441.204 79.9795 441.189 84.8319C441.189 85.5761 441.167 86.0212 442.212 85.7148C443.293 85.3937 444.469 85.3426 445.609 85.2478C446.632 85.1675 446.982 84.7808 446.975 83.6717C446.917 74.7259 446.946 65.7874 446.946 56.8416C446.946 56.0316 446.931 55.2217 446.946 54.4118C446.96 53.9156 446.844 53.7842 446.296 53.8864C444.966 54.1491 443.622 54.3826 442.27 54.4701C441.365 54.5285 441.175 54.8569 441.182 55.7033C441.218 60.5556 441.204 65.4152 441.197 70.2676ZM384.997 70.5303C384.997 75.2512 385.048 79.9722 384.96 84.6932C384.938 85.992 385.296 86.4517 386.582 86.3788C387.378 86.335 388.196 86.4809 388.985 86.6414C389.913 86.8312 390.264 86.6269 390.257 85.5907C390.22 75.9371 390.227 66.2836 390.242 56.63C390.242 55.8492 390.198 55.3749 389.183 55.4041C388.226 55.426 387.254 55.1998 386.304 55.0101C385.347 54.8204 384.953 54.9882 384.968 56.1119C385.033 60.9132 384.997 65.7217 384.997 70.5303ZM468.066 48.1949C466.604 48.6838 465.26 49.18 463.887 49.5886C462.988 49.8513 462.66 50.3037 462.667 51.2888C462.711 60.8183 462.689 70.3478 462.689 79.8774C462.689 80.0452 462.711 80.2203 462.689 80.3881C462.601 81.0594 462.864 81.2127 463.471 80.9792C464.581 80.5633 465.677 80.1036 466.816 79.7898C467.803 79.5198 468.095 79.0309 468.087 77.9948C468.044 68.4653 468.058 58.9357 468.066 49.4062C468.066 49.0341 468.066 48.6619 468.066 48.1949ZM350.413 45.59C350.413 55.7617 350.413 65.8093 350.435 75.8569C350.435 76.1925 350.676 76.6814 350.947 76.8346C352.21 77.5278 353.533 78.1043 354.811 78.7683C355.607 79.1769 355.732 78.8631 355.724 78.1189C355.695 75.689 355.717 73.2665 355.717 70.8367C355.717 63.5984 355.702 56.36 355.732 49.1216C355.732 48.3409 355.564 47.9031 354.775 47.5966C353.328 47.0275 351.94 46.3051 350.413 45.59ZM439.436 70.4135C439.436 65.605 439.407 60.7964 439.458 55.9879C439.465 55.0612 439.188 54.8131 438.333 54.9517C437.412 55.0977 436.492 55.2436 435.564 55.2947C434.593 55.3457 434.366 55.7908 434.373 56.7321C434.41 65.7071 434.395 74.6894 434.395 83.6644C434.395 84.4305 434.337 85.204 434.432 85.9556C434.461 86.1963 434.899 86.5685 435.148 86.5612C436.163 86.5539 437.179 86.4152 438.194 86.3423C439.049 86.2766 439.48 86.0139 439.465 84.9632C439.392 80.1109 439.436 75.2658 439.429 70.4135H439.436ZM455.559 67.6116C455.559 72.4639 455.573 77.3162 455.544 82.1612C455.544 82.9566 455.683 83.2339 456.545 82.9274C457.458 82.6064 458.43 82.4312 459.387 82.2415C460.358 82.0518 460.731 81.614 460.724 80.5268C460.665 70.9972 460.694 61.4677 460.694 51.9309C460.694 51.763 460.68 51.5879 460.694 51.4201C460.76 50.7634 460.541 50.6248 459.898 50.8364C458.817 51.1866 457.714 51.515 456.596 51.7193C455.756 51.8725 455.53 52.2227 455.537 53.0546C455.573 57.9069 455.559 62.7592 455.559 67.6043V67.6116ZM453.733 52.4854C452.286 52.7481 450.905 52.9378 449.561 53.2735C449.232 53.3537 448.787 53.9229 448.787 54.2658C448.743 64.0945 448.75 73.9305 448.743 83.7592C448.743 84.3649 448.772 84.7443 449.598 84.4816C450.482 84.197 451.409 84.0073 452.33 83.9344C453.448 83.8468 453.762 83.3798 453.754 82.2561C453.703 72.7193 453.725 63.1897 453.725 53.6529C453.725 53.2735 453.725 52.894 453.725 52.4708L453.733 52.4854ZM357.565 48.786V50.187C357.565 59.2568 357.565 68.3266 357.565 77.3965C357.565 79.0845 358.366 80.2082 359.969 80.7676C361.766 81.3902 362.664 80.7505 362.664 78.8485C362.664 69.7787 362.664 60.7088 362.642 51.639C362.642 51.2012 362.474 50.4788 362.197 50.3694C360.721 49.771 359.18 49.3259 357.558 48.786H357.565ZM425.885 71.8291C425.885 66.8892 425.87 61.9566 425.899 57.0167C425.899 56.2505 425.76 55.966 424.913 56.0973C423.993 56.2432 423.043 56.2724 422.115 56.2214C421.224 56.1703 420.954 56.4403 420.968 57.345C421.019 61.0883 420.99 64.8388 420.99 68.582C420.99 74.5435 421.012 80.4976 420.968 86.459C420.961 87.4222 421.209 87.7651 422.174 87.6411C423.101 87.5171 424.044 87.4076 424.971 87.4441C425.833 87.4806 425.907 87.0865 425.907 86.3861C425.885 81.5337 425.892 76.6814 425.892 71.8291H425.885ZM427.784 71.4423C427.784 76.3312 427.799 81.2273 427.769 86.1161C427.769 86.926 427.937 87.2982 428.821 87.1668C429.661 87.0428 430.516 86.8822 431.349 86.9552C432.437 87.0501 432.554 86.5685 432.554 85.6491C432.525 76.4625 432.54 67.2759 432.54 58.0893C432.54 56.5035 431.768 55.7446 430.224 55.8127C429.881 55.8273 429.545 55.8492 429.201 55.8273C428.142 55.7544 427.74 56.1192 427.755 57.2794C427.828 62.0004 427.784 66.7214 427.784 71.4423ZM474.794 44.8822C473.464 45.5608 472.332 46.2248 471.134 46.7283C470.228 47.1077 469.899 47.5893 469.906 48.6182C469.965 55.3384 469.936 62.066 469.936 68.7863C469.936 71.6394 469.972 74.4851 469.921 77.3381C469.906 78.3669 470.243 78.4107 471.002 77.9656C471.915 77.433 472.843 76.9222 473.786 76.4406C474.538 76.0539 474.816 75.5212 474.816 74.631C474.779 65.189 474.794 55.7398 474.794 46.2905C474.794 45.8819 474.794 45.4733 474.794 44.8822ZM348.353 75.1564C348.441 74.9083 348.492 74.8353 348.492 74.7551C348.492 64.8388 348.507 54.9225 348.492 45.0063C348.492 44.6779 348.317 44.2547 348.076 44.0504C346.68 42.8464 345.234 41.6863 343.773 40.4896C343.773 40.9785 343.773 41.5111 343.773 42.0511C343.773 50.3913 343.831 58.7387 343.744 67.0789C343.707 70.7127 345.504 73.1279 348.353 75.1637V75.1564ZM383.134 70.3697C383.134 66.1157 383.134 61.8617 383.134 57.6077C383.134 56.6737 383.433 55.4698 382.973 54.8861C382.542 54.3461 381.271 54.4847 380.372 54.3242C380.204 54.295 380.044 54.222 379.876 54.1929C378.955 54.0469 378.407 54.0542 378.422 55.3749C378.495 64.7804 378.48 74.1786 378.437 83.5841C378.437 84.8319 378.656 85.5104 380.051 85.4375C380.628 85.4083 381.264 85.4813 381.804 85.7002C383.097 86.2182 383.17 85.598 383.163 84.54C383.119 79.819 383.141 75.0907 383.148 70.3697H383.134ZM369.057 83.2193C369.057 82.7742 369.057 82.3145 369.057 81.8475C369.057 72.7339 369.057 63.6202 369.057 54.5139C369.057 52.933 368.26 51.9552 366.668 51.5806C366.339 51.5004 365.981 51.4785 365.681 51.3325C364.629 50.8218 364.425 51.2231 364.432 52.2592C364.461 60.7745 364.447 69.2898 364.454 77.8051C364.454 79.2426 364.001 81.0886 364.71 82.008C365.411 82.9128 367.325 82.8836 368.713 83.2558C368.786 83.2776 368.881 83.2339 369.057 83.212V83.2193ZM394.669 16.0966C395.275 17.5851 395.692 18.6505 396.152 19.6866C396.24 19.8763 396.525 20.1098 396.714 20.1025C399.176 19.9931 401.631 19.7231 404.093 19.7231C410.814 19.7304 417.542 19.7377 424.256 19.9785C427.47 20.0952 427.726 20.1901 428.909 17.2714C428.938 17.1911 429.004 17.089 428.975 17.0379C428.843 16.8117 428.704 16.4104 428.544 16.4031C424.562 16.1404 420.581 15.7391 416.6 15.7318C409.382 15.7245 402.164 15.958 394.669 16.0966ZM411.04 72.0772C411.04 67.8669 411.04 63.6494 411.04 59.4392C411.04 56.4694 411.04 56.5205 408.089 56.4621C407.088 56.4403 406.92 56.7613 406.927 57.6734C406.964 66.736 406.949 75.7985 406.949 84.8683C406.949 87.8746 406.949 87.8235 409.901 87.8746C410.923 87.8892 411.069 87.5317 411.062 86.6342C411.018 81.7818 411.04 76.9295 411.04 72.0772ZM476.598 74.4121C478.717 72.5223 480.17 70.7419 480.163 68.1077C480.141 59.213 480.156 50.311 480.149 41.4163C480.149 41.1244 480.083 40.8325 480.054 40.5407C479.118 41.3871 478.308 42.2043 477.409 42.9121C476.781 43.4083 476.576 43.9409 476.576 44.729C476.605 54.1345 476.598 63.5473 476.598 72.9601C476.598 73.3249 476.598 73.6897 476.598 74.4121ZM384.807 45.1303C384.851 44.8093 384.982 44.5101 384.902 44.2912C383.733 41.3506 382.557 38.41 381.322 35.4986C381.183 35.1703 380.65 35.017 380.307 34.7762C380.08 35.1338 379.678 35.4913 379.664 35.8562C379.605 38.4027 379.62 40.942 379.664 43.4885C379.664 43.7293 379.934 44.1307 380.146 44.1817C381.578 44.5174 383.032 44.7728 384.814 45.123L384.807 45.1303ZM444.294 39.6797H444.287C444.287 38.3589 444.331 37.0382 444.258 35.7248C444.236 35.3965 443.841 35.09 443.615 34.7762C443.308 35.0024 442.84 35.1557 442.709 35.4548C441.445 38.41 440.24 41.3798 439.027 44.3496C438.808 44.8822 438.939 45.1522 439.597 45.0209C440.627 44.8166 441.664 44.5977 442.709 44.4882C443.892 44.3642 444.506 43.9409 444.323 42.6056C444.192 41.6425 444.294 40.6501 444.294 39.6724V39.6797ZM459.496 39.0813C461.491 37.8117 463.58 36.6807 463.587 34.2363C463.587 31.7481 461.469 30.6171 459.496 29.3475V39.074V39.0813ZM364.454 29.705C364.352 29.6029 364.242 29.5007 364.14 29.3986C363.132 30.3106 362.021 31.1425 361.138 32.1713C360.049 33.4336 360.078 35.0973 361.174 36.3596C361.883 37.1769 362.796 37.8263 363.636 38.5268C364.206 39.0011 364.483 38.9135 364.476 38.0963C364.447 35.3016 364.469 32.507 364.469 29.705H364.454Z" fill="#28338B"/>
</svg>
