<?xml version="1.0" encoding="UTF-8"?>
<svg id="Layer_1" data-name="Layer 1" xmlns="http://www.w3.org/2000/svg" viewBox="0 0 324 231.25">
  <defs>
    <style>
      .cls-1 {
        fill: #28338b;
      }
    </style>
  </defs>
  <path class="cls-1" d="M248.26,70.94c0,7.47-.07,14.94,.03,22.41,.04,3.06-1.08,5.56-2.99,7.78-4.06,4.73-9.43,7.52-15.05,9.81-3.8,1.55-7.75,2.76-11.66,4.03-.89,.29-1.19,.66-1.18,1.58,.04,5.19-.05,10.39,.04,15.58,.08,4.74,3.24,7.94,7.94,8.25,2.08,.14,4.06,1.87,4.11,3.6,.05,1.98-2.04,4-4.3,4-12.2,.02-24.4,.04-36.59-.09-1.01-.01-2.62-.87-2.86-1.67-.41-1.37-.08-3.02,.21-4.5,.07-.38,1.12-.76,1.75-.83,5.59-.57,8.77-3.7,9-9.22,.15-3.61,.02-7.24,.06-10.85,0-.87-.25-1.05-1.12-.96-9.95,.96-19.9,1.89-29.86,2.75-.96,.08-1.37,.4-1.71,1.26-2.74,6.89-5.56,13.75-8.3,20.64-.62,1.57-1.73,2.37-3.3,2.39-1.6,.02-2.7-.91-3.29-2.41-.81-2.05-1.62-4.1-2.45-6.14-1.99-4.95-3.96-9.9-6.01-14.82-.17-.41-.88-.81-1.37-.85-5.75-.42-11.51-.67-17.25-1.18-4.22-.37-8.41-1.04-12.61-1.59-.64-.08-1.33-.39-1.31,.71,.08,4.25-.14,8.53,.32,12.74,.46,4.26,3.88,7.22,8.17,7.44,2.52,.13,3.17,1.35,3,4-.13,2.01-1.23,3.16-3.36,3.18-5.89,.04-11.79,.02-17.68,.02-6.07,0-12.14,.04-18.21-.03-1.05-.01-2.26-.26-3.11-.82-1.23-.81-2.05-2.15-1.69-3.74,.39-1.76,2.05-2.92,4.04-3.01,3.5-.16,5.87-1.95,7.25-5.09,.29-.67,.46-1.45,.46-2.19,.04-5.49-.01-10.97,.06-16.46,.02-1.25-.58-1.52-1.59-1.81-7.38-2.17-14.65-4.68-20.98-9.18-2.16-1.53-4.11-3.44-5.85-5.44-1.58-1.8-2.38-4.06-2.37-6.58,.03-15.12,.03-30.23,0-45.35,0-3.88,1.99-6.73,4.61-9.23,4.19-4,9.31-6.53,14.63-8.6,3.45-1.34,7.02-2.38,10.5-3.64,.44-.16,.96-.84,.97-1.28,.07-3.5,.14-7.01,0-10.5-.17-3.99-4.33-7.83-8.39-7.96-2.1-.07-3.42-.95-3.72-2.48-.28-1.44,.82-3.24,2.56-3.93,.89-.35,1.88-.61,2.83-.62,12.49-.04,24.98-.01,37.47-.05,1.01,0,1.54,.28,1.92,1.23,2.27,5.65,4.65,11.26,6.89,16.92,.48,1.2,.99,1.67,2.36,1.61,8.15-.34,16.31-.77,24.46-.78,7.45,0,14.91,.42,22.36,.8,1.2,.06,1.47-.43,1.81-1.26,2.35-5.74,4.74-11.46,7.05-17.21C185.32,.39,185.72,0,186.8,0c12.72,.04,25.45,.02,38.17,.03,2.3,0,3.97,1.07,4.52,2.81,.7,2.2-.49,4.12-2.79,4.2-6.03,.2-9.38,4.87-9.3,10.22,.04,2.57,.08,5.14-.03,7.7-.05,1.24,.4,1.71,1.54,2.03,6.38,1.79,12.58,4.04,18.34,7.37,3.86,2.23,7.52,4.78,9.66,8.84,.75,1.43,1.25,3.18,1.28,4.79,.13,7.64,.06,15.29,.06,22.94Zm-95.8,4.03c14.16-.07,28.23-1,42.23-3.12,9.17-1.38,18.23-3.17,27.06-6,6.99-2.24,13.84-4.83,19.56-9.64,2.81-2.36,4.94-5.21,4.37-9.17-.48-3.34-2.76-5.61-5.26-7.55-6.54-5.07-14.27-7.57-22.03-9.98-.8-.25-.99,.15-.97,.9,.04,1.69,.1,3.39-.02,5.07-.1,1.32,.32,2.07,1.51,2.73,1.46,.81,2.85,1.83,4.06,2.98,1.53,1.45,2.69,3.18,2.74,5.46,.08,3.44-1.98,5.6-4.45,7.44-4.74,3.54-10.27,5.32-15.87,6.9-13.37,3.78-27.1,5.2-40.89,5.83-16.07,.74-32.11,.09-48.05-2.32-7.4-1.12-14.74-2.5-21.77-5.05-3.78-1.37-7.54-3.12-10.88-5.35-5.96-3.98-6.25-10.41-.5-13.94,3.5-2.15,4.71-4.62,4.09-8.39-.06-.34-.03-.7,0-1.05,.08-1.05-.1-1.48-1.35-1.01-2.65,.99-5.42,1.68-8.07,2.69-5.45,2.08-10.74,4.48-15.08,8.51-4.8,4.45-4.93,9.67-.32,14.26,1.19,1.18,2.53,2.24,3.92,3.18,6.09,4.12,12.96,6.49,19.94,8.51,14.49,4.2,29.37,6.16,44.35,7.32,7.2,.55,14.44,.55,21.67,.8Zm20.41-44.74c-1.29-.16-2.42-.37-3.57-.42-4.53-.17-9.07-.44-13.6-.38-7.44,.1-14.87,.47-22.31,.65-1.38,.03-1.2,.5-.79,1.42,.87,1.95,1.68,3.94,2.49,5.92,3.42,8.36,6.84,16.72,10.23,25.1,.54,1.34,1.16,2.11,2.88,2,3.08-.21,6.18-.11,9.26-.03,1.05,.03,1.53-.35,1.9-1.28,2.64-6.55,5.33-13.08,8-19.61,1.82-4.43,3.65-8.86,5.51-13.37Zm-18.99,68.56c0,1.87,0,3.74,0,5.6,0,4.84,.03,9.69-.02,14.53-.01,1.12,.27,1.57,1.46,1.49,1.8-.11,3.62-.1,5.42-.07,1.07,.02,1.33-.42,1.32-1.46-.04-13.36-.04-26.73,0-40.09,0-1.21-.41-1.44-1.48-1.39-1.69,.08-3.39,.1-5.07,0-1.27-.08-1.68,.25-1.67,1.6,.08,6.59,.04,13.19,.03,19.78Zm-49.76-3.84c0-6.59-.04-13.18,.04-19.77,.02-1.37-.45-1.82-1.72-1.96-1.61-.18-3.23-.43-4.79-.87-1.23-.35-1.49-.04-1.47,1.16,.06,3.79,.02,7.58,.02,11.37,0,9.45,.03,18.89-.03,28.34,0,1.24,.32,1.74,1.58,1.88,1.6,.18,3.23,.46,4.75,.97,1.53,.51,1.65-.13,1.64-1.36-.03-6.59-.01-13.18-.02-19.77Zm31.24,3.51c0,6.64,.03,13.29-.03,19.93-.01,1.21,.35,1.68,1.53,1.68,1.63,0,3.27-.02,4.89,.11,1.1,.09,1.29-.38,1.25-1.3-.05-1.16-.01-2.33-.01-3.5,0-12.12-.03-24.25,.04-36.37,0-1.4-.48-1.85-1.75-1.85-1.51,0-3.04,.03-4.54-.11-1.24-.12-1.41,.41-1.4,1.48,.04,6.64,.02,13.29,.02,19.93Zm-2.48-.01c0-6.65-.04-13.29,.03-19.94,.02-1.37-.33-1.83-1.73-1.78-1.44,.06-2.93-.03-4.34-.32-1.49-.31-1.61,.29-1.6,1.52,.04,8.51,.02,17.02,.02,25.53,0,4.78,.02,9.56-.02,14.34,0,.88,.09,1.35,1.17,1.37,1.56,.03,3.12,.24,4.66,.51,1.29,.23,1.86,.1,1.84-1.48-.09-6.59-.04-13.17-.04-19.76Zm59.57-2.15c0,6.65,.01,13.31-.01,19.96,0,1.02-.03,1.63,1.4,1.21,1.48-.44,3.09-.51,4.65-.64,1.4-.11,1.88-.64,1.87-2.16-.08-12.26-.04-24.51-.04-36.77,0-1.11-.02-2.22,0-3.33,.02-.68-.14-.86-.89-.72-1.82,.36-3.66,.68-5.51,.8-1.24,.08-1.5,.53-1.49,1.69,.05,6.65,.03,13.31,.02,19.96Zm-76.93,.36c0,6.47,.07,12.94-.05,19.41-.03,1.78,.46,2.41,2.22,2.31,1.09-.06,2.21,.14,3.29,.36,1.27,.26,1.75-.02,1.74-1.44-.05-13.23-.04-26.46-.02-39.69,0-1.07-.06-1.72-1.45-1.68-1.31,.03-2.64-.28-3.94-.54-1.31-.26-1.85-.03-1.83,1.51,.09,6.58,.04,13.17,.04,19.76Zm113.71-30.61c-2,.67-3.84,1.35-5.72,1.91-1.23,.36-1.68,.98-1.67,2.33,.06,13.06,.03,26.12,.03,39.18,0,.23,.03,.47,0,.7-.12,.92,.24,1.13,1.07,.81,1.52-.57,3.02-1.2,4.58-1.63,1.35-.37,1.75-1.04,1.74-2.46-.06-13.06-.04-26.12-.03-39.18,0-.51,0-1.02,0-1.66Zm-161.05-3.57c0,13.94,0,27.71,.03,41.48,0,.46,.33,1.13,.7,1.34,1.73,.95,3.54,1.74,5.29,2.65,1.09,.56,1.26,.13,1.25-.89-.04-3.33-.01-6.65-.01-9.98,0-9.92-.02-19.84,.02-29.76,0-1.07-.23-1.67-1.31-2.09-1.98-.78-3.88-1.77-5.97-2.75Zm121.86,34.02c0-6.59-.04-13.18,.03-19.77,.01-1.27-.37-1.61-1.54-1.42-1.26,.2-2.52,.4-3.79,.47-1.33,.07-1.64,.68-1.63,1.97,.05,12.3,.03,24.61,.03,36.91,0,1.05-.08,2.11,.05,3.14,.04,.33,.64,.84,.98,.83,1.39-.01,2.78-.2,4.17-.3,1.17-.09,1.76-.45,1.74-1.89-.1-6.65-.04-13.29-.05-19.94Zm22.07-3.84c0,6.65,.02,13.3-.02,19.94,0,1.09,.19,1.47,1.37,1.05,1.25-.44,2.58-.68,3.89-.94,1.33-.26,1.84-.86,1.83-2.35-.08-13.06-.04-26.12-.04-39.19,0-.23-.02-.47,0-.7,.09-.9-.21-1.09-1.09-.8-1.48,.48-2.99,.93-4.52,1.21-1.15,.21-1.46,.69-1.45,1.83,.05,6.65,.03,13.3,.03,19.94Zm-2.5-20.73c-1.98,.36-3.87,.62-5.71,1.08-.45,.11-1.06,.89-1.06,1.36-.06,13.47-.05,26.95-.06,40.42,0,.83,.04,1.35,1.17,.99,1.21-.39,2.48-.65,3.74-.75,1.53-.12,1.96-.76,1.95-2.3-.07-13.07-.04-26.13-.04-39.2,0-.52,0-1.04,0-1.62Zm-131.64-5.07v1.92c0,12.43,0,24.86,0,37.29q0,3.47,3.29,4.62,3.69,1.28,3.69-2.63c0-12.43,0-24.86-.03-37.29,0-.6-.23-1.59-.61-1.74-2.02-.82-4.13-1.43-6.35-2.17Zm93.52,31.58c0-6.77-.02-13.53,.02-20.3,0-1.05-.19-1.44-1.35-1.26-1.26,.2-2.56,.24-3.83,.17-1.22-.07-1.59,.3-1.57,1.54,.07,5.13,.03,10.27,.03,15.4,0,8.17,.03,16.33-.03,24.5-.01,1.32,.33,1.79,1.65,1.62,1.27-.17,2.56-.32,3.83-.27,1.18,.05,1.28-.49,1.28-1.45-.03-6.65-.02-13.3-.02-19.95Zm2.6-.53c0,6.7,.02,13.41-.02,20.11,0,1.11,.23,1.62,1.44,1.44,1.15-.17,2.32-.39,3.46-.29,1.49,.13,1.65-.53,1.65-1.79-.04-12.59-.02-25.18-.02-37.77q0-3.26-3.17-3.12c-.47,.02-.93,.05-1.4,.02-1.45-.1-2,.4-1.98,1.99,.1,6.47,.04,12.94,.04,19.41Zm64.35-36.4c-1.82,.93-3.37,1.84-5.01,2.53-1.24,.52-1.69,1.18-1.68,2.59,.08,9.21,.04,18.43,.04,27.64,0,3.91,.05,7.81-.02,11.72-.02,1.41,.44,1.47,1.48,.86,1.25-.73,2.52-1.43,3.81-2.09,1.03-.53,1.41-1.26,1.41-2.48-.05-12.94-.03-25.89-.03-38.84,0-.56,0-1.12,0-1.93ZM65.36,103c.12-.34,.19-.44,.19-.55,0-13.59,.02-27.18,0-40.77,0-.45-.24-1.03-.57-1.31-1.91-1.65-3.89-3.24-5.89-4.88,0,.67,0,1.4,0,2.14,0,11.43,.08,22.87-.04,34.3-.05,4.98,2.41,8.29,6.31,11.08Zm47.61-6.56c0-5.83,0-11.66,0-17.49,0-1.28,.41-2.93-.22-3.73-.59-.74-2.33-.55-3.56-.77-.23-.04-.45-.14-.68-.18-1.26-.2-2.01-.19-1.99,1.62,.1,12.89,.08,25.77,.02,38.66,0,1.71,.3,2.64,2.21,2.54,.79-.04,1.66,.06,2.4,.36,1.77,.71,1.87-.14,1.86-1.59-.06-6.47-.03-12.95-.02-19.42Zm-19.27,17.61c0-.61,0-1.24,0-1.88,0-12.49,0-24.98,0-37.46q0-3.25-3.27-4.02c-.45-.11-.94-.14-1.35-.34-1.44-.7-1.72-.15-1.71,1.27,.04,11.67,.02,23.34,.03,35.01,0,1.97-.62,4.5,.35,5.76,.96,1.24,3.58,1.2,5.48,1.71,.1,.03,.23-.03,.47-.06ZM128.76,22.06c.83,2.04,1.4,3.5,2.03,4.92,.12,.26,.51,.58,.77,.57,3.37-.15,6.73-.52,10.1-.52,9.2,.01,18.41,.02,27.6,.35,4.4,.16,4.75,.29,6.37-3.71,.04-.11,.13-.25,.09-.32-.18-.31-.37-.86-.59-.87-5.45-.36-10.9-.91-16.35-.92-9.88-.01-19.76,.31-30.02,.5Zm22.41,76.72c0-5.77,0-11.55,0-17.32,0-4.07,0-4-4.04-4.08-1.37-.03-1.6,.41-1.59,1.66,.05,12.42,.03,24.84,.03,37.27,0,4.12,0,4.05,4.04,4.12,1.4,.02,1.6-.47,1.59-1.7-.06-6.65-.03-13.3-.03-19.95Zm89.74,3.2c2.9-2.59,4.89-5.03,4.88-8.64-.03-12.19-.01-24.39-.02-36.58,0-.4-.09-.8-.13-1.2-1.28,1.16-2.39,2.28-3.62,3.25-.86,.68-1.14,1.41-1.14,2.49,.04,12.89,.03,25.79,.03,38.69,0,.5,0,1,0,1.99ZM115.26,61.85c.06-.44,.24-.85,.13-1.15-1.6-4.03-3.21-8.06-4.9-12.05-.19-.45-.92-.66-1.39-.99-.31,.49-.86,.98-.88,1.48-.08,3.49-.06,6.97,0,10.46,0,.33,.37,.88,.66,.95,1.96,.46,3.95,.81,6.39,1.29Zm81.43-7.47h-.01c0-1.81,.06-3.62-.04-5.42-.03-.45-.57-.87-.88-1.3-.42,.31-1.06,.52-1.24,.93-1.73,4.05-3.38,8.12-5.04,12.19-.3,.73-.12,1.1,.78,.92,1.41-.28,2.83-.58,4.26-.73,1.62-.17,2.46-.75,2.21-2.58-.18-1.32-.04-2.68-.04-4.02Zm20.81-.82c2.73-1.74,5.59-3.29,5.6-6.64,0-3.41-2.9-4.96-5.6-6.7v13.33Zm-130.1-12.85c-.14-.14-.29-.28-.43-.42-1.38,1.25-2.9,2.39-4.11,3.8-1.49,1.73-1.45,4.01,.05,5.74,.97,1.12,2.22,2.01,3.37,2.97,.78,.65,1.16,.53,1.15-.59-.04-3.83-.01-7.66-.01-11.5Z"/>
  <path class="cls-1" d="M82.94,189.91c-.33,2.01-3.43,4.13-6.93,4.48-2.7,.27-6.89-2.28-7.58-4.33-1.56,.28-3.06,.79-4.56,.79-18.56,.05-37.12,.04-55.67,.01-1.24,0-1.85,.13-1.81,1.64,.05,1.73-1.25,2.86-2.85,2.88-1.67,.03-2.71-.79-2.75-2.68-.09-4.02-.09-8.05,.09-12.06,.1-2.35,1.81-3.8,4.16-3.82,5.54-.04,11.09-.03,16.63,0,1.9,0,3.21,1.22,3.27,2.9,.07,1.72-1.31,3.16-3.24,3.19-3.73,.06-7.47,.02-11.2,.02-.88,0-1.77-.09-2.62,.05-.4,.07-.72,.58-1.08,.89,.36,.31,.69,.69,1.1,.9,.28,.14,.69,.04,1.04,.04,12.26,0,24.51-.02,36.77,.03,1.38,0,1.79-.36,1.77-1.75-.05-4.17,1.33-5.46,5.55-5.47,2.92,0,5.84,.03,8.75-.02,.91-.02,1.23,.27,1.2,1.19-.06,1.87,.02,3.74-.03,5.6-.02,.86,.16,1.2,1.14,1.24,4.44,.16,4.44,.2,4.44-4.21,0-3.85-.01-7.7,0-11.55,0-1.93,1.08-3.15,2.72-3.13,1.63,.02,2.53,1.09,2.53,3.06,0,5.43,.06,10.86-.04,16.28-.03,1.53,.57,2.15,1.94,2.18,1.39,.04,2.02-.53,1.99-2.1-.1-5.48-.02-10.97-.05-16.46,0-1.49,.69-2.51,2.03-2.9,1.22-.36,2.34,.08,2.93,1.31,.22,.44,.29,1,.29,1.5,.03,2.1,.07,4.2,0,6.3-.04,1.09,.29,1.38,1.37,1.37,5.95-.05,11.9-.03,17.86-.02,3.41,0,4.6,1.22,4.62,4.62q.02,3.72,3.67,3.72c.47,0,.94-.06,1.4,0,2.36,.33,3.96-.18,5.04-2.72,1.18-2.77,3.92-3.73,6.85-3.46,3.02,.28,5.21,1.96,6.18,4.88,.35,1.04,.8,1.36,1.83,1.31,1.45-.08,2.92-.09,4.37,0,1.1,.07,1.37-.32,1.36-1.38-.05-4.78-.03-9.57-.02-14.36,0-2.13,.9-3.17,2.63-3.15,1.58,.02,2.67,1.32,2.67,3.22,0,6.48-.02,12.96,.03,19.43,0,1.09-.2,1.53-1.42,1.5-3.32-.09-6.7,.32-9.96-.16-1.86-.27-3.44-.37-5.28,.04-1.89,.42-4.05,.49-5.9-.01-2.1-.56-3.96-.09-5.97-.02-9.09,.29-18.2,.17-27.31,.08-1.32-.01-2.64-.61-3.94-.93Zm9.56-6.38c-2.51,0-5.02,.06-7.52-.03-1.14-.04-1.18,.53-1.17,1.38,0,.84,.02,1.43,1.17,1.41,4.96-.05,9.92-.05,14.87,0,1.13,.01,1.18-.55,1.19-1.41,0-.86-.05-1.42-1.18-1.38-2.45,.08-4.9,.02-7.35,.02Zm30.41,4.5c1.27,.02,2.62-1.31,2.61-2.58,0-1.17-1.28-2.46-2.47-2.51-1.44-.05-2.58,1.01-2.62,2.45-.04,1.38,1.12,2.62,2.48,2.64Zm-67.82-2.4c.37,0,.6-.02,.83,0,.95,.11,1.47-.07,1.43-1.26-.03-1.09-.25-1.64-1.44-1.46-.4,.06-.82,.06-1.21,0-1.34-.21-1.64,.38-1.61,1.64,.05,1.9,1.44,.7,2,1.07Z"/>
  <path class="cls-1" d="M269.45,177.66c3.32,0,6.64,.03,9.95-.01,3.06-.04,5.33,1.22,6.47,4.06,1.11,2.75,.25,5.33-1.59,7.4-.79,.88-2.32,1.53-3.53,1.55-7.69,.1-15.39,0-23.09-.05-.29,0-.67,.07-.86-.08-1.65-1.37-3.51-.67-5.33-.69-3.46-.03-6.01-2.84-5.89-6.23,.12-3.31,2.99-5.94,6.4-5.74,1.16,.07,1.89,.24,1.96-1.41,.06-1.37,1.44-1.46,2.61-1.36,1.19,.1,1.75,.82,1.75,1.97,.01,2.57,.05,5.13-.02,7.7-.03,1.14,.35,1.54,1.5,1.53,6.59-.04,13.18-.02,19.77-.02,1.4,0,2.18-.65,2.23-2.09,.05-1.51-.85-1.81-2.15-1.8-4.26,.03-8.52,.03-12.77,0-2.74-.02-4.05-.83-4.48-2.68-.38-1.6,.28-3.37,1.68-4.24,2.67-1.65,5.36-3.26,8.05-4.86,1.15-.68,2.33-.9,3.23,.42,.75,1.1,.4,2.39-.97,3.27-1.65,1.06-3.37,2-5.06,2.99,.04,.13,.07,.25,.11,.38Zm-18.05,4.42c-.92,0-1.75,.78-1.49,1.82,.2,.8,1.25,1.38,1.92,2.06,.67-.69,1.77-1.3,1.91-2.09,.21-1.17-.79-1.82-2.34-1.79Z"/>
  <path class="cls-1" d="M227.52,185.21c-1.86-.55-3.73-.73-5.16-1.61-2.41-1.47-3.12-4.11-2.34-6.71,.75-2.48,3-4.29,5.63-4.5,2.49-.2,5.88,2.27,6.07,4.82,.23,3.12,.2,6.28,0,9.4-.15,2.27-2.1,3.88-4.34,3.97-3.43,.14-6.87,.23-10.3,.29-.77,.01-1.09,.14-1.14,1.03-.22,4.69-3.39,6.16-7.15,5.97-4.04-.2-6.06-2.59-5.79-6.3,.1-1.35,.92-1.97,2.13-2.07,1.31-.11,2.37,.44,2.48,1.86,.09,1.25,.34,2.32,1.8,2.21,1.56-.11,1.86-1.35,1.87-2.68,0-7,.01-14,.02-21,0-1.4,.14-2.76,1.86-3.11,1.62-.33,2.81,.79,2.82,2.67,.02,5.25,.02,10.5-.01,15.75,0,.91,.12,1.36,1.21,1.3,2.73-.15,5.47-.18,8.2-.24,1.04-.02,1.96-.16,2.17-1.06Zm.31-6.7c-.12-1.31-.84-2.01-2.16-1.97-1.27,.03-1.94,.87-1.94,2.02,0,1.24,.73,2.13,2.06,2.09,1.28-.04,1.98-.82,2.03-2.14Z"/>
  <path class="cls-1" d="M308.39,190.75c-3.56,0-7.12,.04-10.68-.02-1.13-.02-1.63,.29-1.49,1.47,.08,.63,.22,1.39-.04,1.9-.53,1.02-1.13,2.38-2.03,2.71-1.17,.43-2.82,.35-3.97-.16-1.61-.73-1.35-2.96,.35-3.69,.92-.39,1.14-.88,1.12-1.79-.05-3.21-.04-6.42-.04-9.63,0-.64-.02-1.29,.11-1.91,.26-1.33,1.01-2.31,2.48-2.19,1.47,.12,2.04,1.18,2.05,2.58,0,1.63,.06,3.27-.02,4.9-.06,1.11,.36,1.43,1.41,1.37,1.28-.08,2.57-.09,3.85,0,1.13,.09,1.39-.36,1.34-1.4-.08-1.63-.06-3.27,0-4.9,.06-1.78,.91-2.68,2.35-2.61,1.7,.08,2.09,1.17,2.06,2.63-.03,1.75,.02,3.5,0,5.25-.03,1.7,1.24,1,2,1.05,.75,.05,1.86,.47,1.81-1.07-.06-1.75-.05-3.5,.02-5.25,.07-1.82,.86-2.65,2.34-2.6,1.68,.06,2.13,1.14,2.12,2.6,0,1.69,.05,3.39-.01,5.08-.04,.99,.29,1.3,1.29,1.31,2.52,.02,2.51,.07,2.52-2.49,0-1.34-.06-2.69,.03-4.03,.09-1.4,.6-2.51,2.3-2.46,1.67,.04,2.18,1.09,2.19,2.54,.01,2.39,.06,4.79,0,7.18-.05,2.15-1.16,3.38-3.35,3.44-4.02,.11-8.05,.03-12.07,.03,0,.05,0,.11,0,.16Z"/>
  <path class="cls-1" d="M182.74,190.75c-4.32,0-8.63,.05-12.95-.03-1.27-.02-1.67,.39-1.5,1.58,.06,.4,.03,.82,0,1.22-.14,3.02-3.33,4.87-5.95,3.35-.56-.33-1.03-1.29-1.03-1.97,0-.64,.51-1.6,1.06-1.86,.97-.46,1.16-1.04,1.15-1.99-.05-3.27-.02-6.53-.02-9.8,0-.41-.03-.82,.02-1.22,.17-1.56,1.29-2.76,2.53-2.6,1.52,.19,2.16,1.28,2.23,2.68,.08,1.63,.07,3.27,0,4.9-.04,.98,.26,1.3,1.27,1.29,8.05-.04,16.1-.04,24.16,0,1.25,0,1.65-.44,1.6-1.64-.07-1.46-.05-2.92,0-4.38,.04-1.37,.57-2.33,2.16-2.36,1.58-.03,2.24,.92,2.29,2.28,.09,2.51,.09,5.02,0,7.53-.06,1.74-1.05,2.81-2.87,2.85-4.72,.1-9.44,.03-14.16,.03,0,.05,0,.09,0,.14Z"/>
  <path class="cls-1" d="M42.01,217.1c-.96,2.2-1.95,4.4-2.87,6.62-.36,.88-.77,1.4-1.87,1.38-1.08-.01-1.66-.32-2.07-1.36-.88-2.2-1.9-4.35-3.16-6.5,0,2.68-.08,5.36,.03,8.03,.06,1.41-.48,1.71-1.71,1.58-1.03-.11-2.19,.38-2.13-1.54,.14-4.43,.09-8.86,.01-13.29-.02-1.2,.41-1.45,1.51-1.45,3.1,0,3.08-.03,4.32,2.76,.96,2.18,1.96,4.34,3.07,6.78,1.35-2.92,2.59-5.62,3.85-8.3,.48-1.02,3.92-1.82,4.69-1.05,.23,.23,.26,.75,.26,1.13,.02,4.55-.05,9.1,.04,13.64,.03,1.74-1.1,1.25-1.99,1.29-.91,.04-1.84,.25-1.76-1.31,.13-2.78,.04-5.57,.04-8.35-.08-.02-.17-.05-.25-.07Z"/>
  <path class="cls-1" d="M244.53,215.6c2.81-2.39,5.77-2.02,7.48,.58,1.46-.7,2.81-1.75,4.27-1.96,2.9-.42,4.72,1.32,4.88,4.35,.12,2.38,0,4.78,.05,7.17,.02,.85-.3,1.16-1.12,1.1-.52-.04-1.06-.06-1.57,0-1.1,.14-1.41-.34-1.37-1.39,.07-1.75,0-3.5,.02-5.25,.02-1.37-.29-2.44-1.95-2.5-1.53-.05-2.43,.78-2.49,2.47-.06,1.75-.1,3.5,.01,5.25,.08,1.22-.41,1.55-1.49,1.41-.34-.04-.7-.05-1.05,0-1.25,.18-1.79-.22-1.69-1.6,.13-1.74,.02-3.5,.03-5.25,0-1.23-.28-2.2-1.77-2.29-1.52-.09-2.46,.65-2.55,2.21-.09,1.57-.02,3.15-.03,4.72,0,2.21,0,2.26-2.29,2.17-.65-.03-1.8,.6-1.8-.86-.01-3.56-.02-7.11,.02-10.67,0-.3,.34-.83,.56-.85,.98-.09,1.99-.13,2.96,.01,.32,.05,.55,.7,.87,1.16Z"/>
  <path class="cls-1" d="M150.21,181.1c0,3.38,0,6.77,0,10.15,0,.52,0,1.05-.07,1.57-.21,1.69-1.19,2.6-2.72,2.57-1.45-.03-2.57-1.09-2.65-2.69-.08-1.63-.02-3.27-.02-4.9,0-5.89,.01-11.78,0-17.67,0-1.63,.52-2.91,2.19-3.33,1.8-.45,3.21,.88,3.25,3.1,.06,3.73,.02,7.47,.02,11.2h.01Z"/>
  <path class="cls-1" d="M15.07,226.84c-1.43,.48-2.18-.45-2.52-1.92-.21-.89-.72-1.19-1.62-1.11-.98,.08-1.99,.1-2.97,0-1.89-.2-3.35,.03-3.87,2.3-.09,.4-1.48,.67-2.28,.7-2.13,.1-2.12,.04-1.29-1.9,1.88-4.35,3.83-8.68,5.59-13.08,.67-1.67,1.91-1.11,3.02-1.22,1.04-.11,1.84,.04,2.32,1.22,1.71,4.29,3.51,8.55,5.32,12.8,.96,2.24,1,2.22-1.71,2.22Zm-6.42-12.04c-.88,2.21-1.57,3.94-2.34,5.85,1.34,0,2.38-.03,3.42,0,.81,.03,1.22-.08,.79-1.05-.63-1.41-1.13-2.87-1.87-4.81Z"/>
  <path class="cls-1" d="M268.86,225.27c0,1.77-.06,3.23,.02,4.68,.06,1.02-.33,1.34-1.29,1.23-.52-.06-1.05-.05-1.57,0-.85,.08-1.09-.27-1.09-1.1,.03-4.84,.04-9.68,0-14.52,0-.94,.38-1.4,1.21-1.12,.92,.3,2.46-1.07,2.75,.96,.28-.09,.61-.11,.84-.28,1.8-1.31,3.72-1.31,5.58-.3,1.99,1.08,2.94,2.85,3,5.15,.06,2.24-.18,4.38-2.15,5.77-2.35,1.66-4.76,1.55-7.3-.48Zm2.75-1.74c1.79,0,2.79-1.08,2.82-3.03,.02-1.86-1.1-3.16-2.75-3.17-1.58-.01-2.8,1.33-2.82,3.1-.02,1.82,1.12,3.1,2.75,3.1Z"/>
  <path class="cls-1" d="M104.14,218.72c2.55-2.52,4.16-5.82,8.25-3.96-.96,.98-1.95,2.15-3.1,3.14-.95,.81-1,1.43-.3,2.46,1.35,2,2.55,4.1,3.65,6.67-1.55-.24-3.42-.03-4.57-.85-1.19-.85-1.68-2.68-2.48-4.08-.21-.02-.42-.03-.62-.05-.27,1.08-.82,2.17-.76,3.23,.08,1.66-.81,1.62-1.94,1.57-1.02-.04-2.03,.29-1.98-1.48,.13-4.77,.07-9.55,.02-14.33-.01-.99,.28-1.26,1.26-1.27,2.57,0,2.57-.05,2.57,2.59,0,1.96,0,3.91,0,6.36Z"/>
  <path class="cls-1" d="M215.83,226.87c-3.95,.04-6.57-1.55-8.08-4.72-1.49-3.12-.68-6.95,1.74-9.35,2.34-2.33,6.27-3.06,9.37-1.75,.32,.13,.62,.31,.93,.47,2.65,1.41,2.62,1.38,.67,3.6-.59,.67-.85,.77-1.57,.11-1.98-1.82-4.57-1.81-6.27-.12-1.78,1.76-1.9,4.72-.26,6.68,1.46,1.75,4.02,2,6.17,.61,.45-.29,1.19-.83,1.37-.7,.78,.59,1.42,1.37,2.04,2.14,.08,.09-.19,.62-.42,.78-1.83,1.26-3.69,2.45-5.67,2.24Z"/>
  <path class="cls-1" d="M121.75,218.65c0-2.22,.04-4.44-.02-6.65-.03-1,.14-1.46,1.31-1.43,3.15,.08,6.3,.1,9.45,0,1.41-.05,1.3,.75,1.3,1.66,0,.87,.21,1.78-1.24,1.7-1.75-.1-3.5,.03-5.25-.05-1.03-.04-1.44,.2-1.4,1.33,.11,3.09-.26,2.44,2.5,2.51,.93,.02,1.88,.11,2.8-.02,1.58-.22,2.04,.37,1.91,1.91-.08,.95-.28,1.36-1.3,1.31-1.57-.07-3.15,.03-4.72-.03-.94-.04-1.23,.31-1.17,1.2,.06,.99-.08,1.99,.04,2.97,.18,1.47-.35,1.89-1.81,1.82-2.38-.12-2.38-.02-2.38-2.44,0-1.93,0-3.85,0-5.78Z"/>
  <path class="cls-1" d="M96.4,222.36c0,.99-.08,1.99,.02,2.97,.13,1.29-.46,1.78-1.59,1.47-.85-.23-2.21,.89-2.51-.88-.31,.12-.65,.2-.94,.36-2.48,1.35-5.63,.57-6.66-1.66-1.02-2.19,.17-4.65,2.57-5.1,1.24-.24,2.54-.2,3.81-.33,.41-.04,.8-.23,1.2-.35-.27-.47-.53-1.32-.83-1.33-1.34-.08-2.72-.06-4.03,.2-.82,.16-1.19,.23-1.6-.63-.57-1.2-.47-1.97,.9-2.19,1.87-.3,3.77-.74,5.63-.65,2.45,.12,3.88,1.98,4.02,4.63,.06,1.16,.01,2.33,0,3.5Zm-5.49-1.24c-1.31,.45-2.7-.04-2.72,1.7-.01,1.12,.82,1.36,1.79,1.34,1.24-.02,2.21-.5,2.28-1.78,.02-.39-.87-.84-1.35-1.26Z"/>
  <path class="cls-1" d="M300.16,215.32c1.54-.38,3.14-1.02,4.77-1.11,1.85-.11,3.56,1.44,3.7,3.27,.22,2.84,.19,5.69,.19,8.54,0,.27-.5,.62-.84,.78-.29,.13-.69-.01-1.04,.04-1.64,.28-2.32-.27-2.12-2.03,.16-1.44,.04-2.91,.03-4.37-.01-1.95-.58-2.68-2.11-2.73-1.54-.05-2.61,1.02-2.67,2.77-.06,1.63-.13,3.27,.01,4.89,.14,1.57-.75,1.52-1.8,1.47-1.05-.05-2.23,.36-2.13-1.54,.16-2.85,.02-5.71,.04-8.56,.02-2.64-.33-2.26,2.31-2.35,1.07-.04,1.83,.08,1.66,.93Z"/>
  <path class="cls-1" d="M57.96,225.15c-1.71,1.85-3.67,2.16-5.71,1.31-2.07-.87-2.43-2.8-2.47-4.79-.04-1.98,.05-3.96-.03-5.94-.05-1.12,.4-1.45,1.43-1.33,.52,.06,1.05,.05,1.57,0,.86-.09,1.1,.29,1.08,1.11-.05,1.75-.02,3.5-.01,5.24,0,1.33,.28,2.47,1.94,2.53,1.66,.06,2.31-1.03,2.43-2.4,.14-1.68,.09-3.38,.03-5.07-.04-1,.17-1.47,1.33-1.44,3.23,.1,2.59-.22,2.63,2.57,.04,2.62,.05,5.25-.02,7.87-.02,.76,.62,1.96-1.04,2.05-2.43,.13-2.7,.06-3.13-1.71Z"/>
  <path class="cls-1" d="M230.16,226.84c-3.98,0-6.53-2.47-6.53-6.31,0-3.85,2.67-6.4,6.68-6.39,4.02,.01,6.77,2.59,6.78,6.36,0,3.87-2.7,6.35-6.92,6.34Zm2.88-6.16c.04-2.04-.99-3.25-2.75-3.25-1.68,0-2.73,1.21-2.73,3.12,0,1.89,1.08,3.19,2.68,3.25,1.58,.06,2.77-1.27,2.8-3.12Z"/>
  <path class="cls-1" d="M317.64,222.47c.77-2.34,1.51-4.24,1.99-6.2,.37-1.52,1.08-2.16,2.63-1.88,.51,.09,1.05,.01,1.73,.01-.05,.36-.04,.68-.14,.96-1.71,4.36-3.47,8.71-5.16,13.08-1.25,3.21-4.74,3.15-6.94,2.35-.39-.14-.9-1.18-.79-1.3,.57-.63,.39-2.07,1.92-1.77,.69,.14,1.82,.09,2.12-.33,.37-.52,.31-1.59,.05-2.27-1.23-3.12-2.56-6.2-3.92-9.27-.51-1.16-.25-1.35,.99-1.5,2-.24,2.89,.54,3.42,2.36,.54,1.87,1.34,3.67,2.12,5.76Z"/>
  <path class="cls-1" d="M292.41,222.01c0,1.05,.06,2.1-.02,3.15-.04,.56-.33,1.59-.49,1.58-1.08-.01-2.16-.24-3.24-.42-.31-.05-.62-.25-.9-.21-1.4,.2-2.8,.71-4.18,.65-1.79-.08-2.85-1.61-2.88-3.55-.04-2.12,.77-3.33,2.69-3.67,1.36-.24,2.77-.22,4.16-.34,.32-.03,.62-.17,.93-.26-.13-.36-.16-.83-.4-1.07-1.25-1.23-2.68-.64-4.1-.36-.56,.11-1.37,.32-1.69,.04-1.13-.98-.89-2.28,.56-2.62,1.84-.44,3.77-.79,5.64-.7,2.53,.13,3.9,1.91,3.93,4.44,.01,1.11,0,2.22,0,3.32Zm-6.89,2.17c1.82,0,2.99-.52,3.04-1.85,.06-1.59-1.4-.55-2.12-.85-.15-.06-.35,0-.52,0-1.01-.1-1.72,.43-1.56,1.35,.1,.6,.9,1.08,1.16,1.36Z"/>
  <path class="cls-1" d="M171.08,221.48c-1.11,0-2.22,0-3.32,0-1.08-.01-1.03,.5-.56,1.19,.86,1.27,2.73,1.66,4.38,.59,1.58-1.01,1.83,.59,2.67,1.03-.37,.51-.63,1.2-1.13,1.52-2.59,1.62-6.23,1.38-8.49-.47-1.71-1.4-2.41-4.48-1.6-7.07,.88-2.83,4.05-4.6,7.24-4.06,3.15,.54,5.09,2.93,5.08,6.07,0,1.04-.36,1.29-1.31,1.22-.99-.07-1.98-.02-2.97-.02h0Zm-1.97-1.66c.87-.35,2.23-.61,2.26-.96,.1-1.32-1.02-1.84-2.18-1.84-1.16,0-2.24,.55-2.26,1.82,0,.3,1.36,.62,2.18,.98Z"/>
  <path class="cls-1" d="M207.65,177.53c0,2.62,.02,5.25,0,7.87-.02,1.74-.81,2.6-2.33,2.62-1.35,.02-2.29-.91-2.3-2.5-.04-5.48-.05-10.97,0-16.45,.01-1.33,.61-2.33,2.22-2.33,1.66,0,2.35,.93,2.38,2.39,.06,2.8,.02,5.6,.02,8.4h.01Z"/>
  <path class="cls-1" d="M193.02,227.09c-1.3-.45-2.81-.95-4.29-1.51-1.23-.46-.4-1.12-.1-1.71,.29-.58,.33-1.43,1.43-.81,.89,.5,1.92,.86,2.92,1.02,.58,.09,1.24-.36,1.86-.57-.42-.47-.75-1.11-1.27-1.38-.75-.39-1.66-.47-2.47-.77-1.47-.55-2.45-1.52-2.49-3.22-.05-1.82,.9-3.03,2.49-3.61,2.29-.83,4.58-.53,6.72,.58,.28,.15,.49,.97,.33,1.31-.28,.62-.26,1.81-1.57,1.32-.92-.34-1.84-.74-2.79-.89-.44-.07-.97,.4-1.46,.63,.3,.35,.52,.86,.9,1.03,.99,.45,2.05,.73,3.08,1.11,1.53,.56,2.35,1.66,2.35,3.3,0,1.62-.76,2.81-2.29,3.36-.96,.35-2,.49-3.36,.8Z"/>
  <path class="cls-1" d="M66.78,220.54c0-.64-.02-1.28,0-1.92,.02-.68,.05-1.25-.95-1.24-.25,0-.67-.65-.71-1.03-.04-.42,.28-1.27,.4-1.27,1.58,.1,1.35-1.02,1.22-1.87-.24-1.63,.58-1.82,1.89-1.7,1.13,.11,2.64-.44,2.26,1.67-.25,1.37,.32,1.92,1.7,1.72,.96-.14,1.6-.02,1.57,1.32-.03,1.28-.68,1.32-1.53,1.19-1.52-.24-1.95,.42-1.76,1.82,.1,.74,.05,1.52,0,2.27-.09,1.39,0,2.47,1.94,2.08,.29-.06,.96,1.02,1.18,1.66,.11,.31-.33,1.12-.67,1.22-3.24,.98-6.64,.43-6.56-4.19,.01-.58,0-1.17,0-1.75Z"/>
  <path class="cls-1" d="M157.61,226.81c-2.85,.03-4.01-1.13-4.02-3.96,0-1.34-.01-2.68,0-4.02,.01-.78,.12-1.53-1.1-1.46-.2,.01-.61-.69-.63-1.08-.03-.41,.32-1.23,.43-1.22,1.59,.16,1.38-.96,1.26-1.82-.22-1.56,.49-1.82,1.85-1.74,1.24,.07,2.4-.09,2.01,1.76-.31,1.47,.46,1.82,1.75,1.66,.86-.11,1.51-.1,1.51,1.19,0,1.32-.62,1.46-1.59,1.31-1.38-.21-1.85,.34-1.7,1.71,.12,1.09-.1,2.23,.09,3.3,.08,.46,.96,1.22,1.26,1.13,2.14-.63,1.44,1.38,2.09,2.11-.61,.38-1.18,.84-1.84,1.11-.4,.16-.92,.03-1.38,.03Z"/>
  <path class="cls-1" d="M182.12,216.22c.86-.7,1.21-1.15,1.67-1.33,.77-.3,1.61-.44,2.43-.65,.08,1.01,.21,2.02,.2,3.03,0,.15-.61,.37-.97,.44-2.33,.45-3.1,1.36-3.1,3.78,0,1.34-.07,2.68,.02,4.01,.08,1.1-.32,1.48-1.38,1.34-.46-.06-.94-.06-1.39,0-1.12,.14-1.37-.39-1.36-1.42,.05-3.2,.06-6.4,0-9.59-.02-1.16,.35-1.6,1.49-1.44,.4,.06,.82,.04,1.22,0,1.07-.11,1.81,.09,1.18,1.82Z"/>
  <path class="cls-1" d="M24.05,218.29c0,2.39-.05,4.78,.02,7.16,.03,1.02-.19,1.43-1.33,1.42-2.55-.02-2.55,.05-2.55-2.45,0-4.37,.04-8.74-.03-13.1-.02-1.2,.25-1.6,1.51-1.56,2.37,.09,2.37,0,2.37,2.41,0,2.04,0,4.08,0,6.12Z"/>
  <path class="cls-1" d="M81.12,218.29c0,2.39-.05,4.78,.02,7.16,.03,1.02-.18,1.45-1.32,1.41-3.17-.11-2.51,.25-2.53-2.44-.04-4.37,.03-8.74-.04-13.1-.02-1.2,.24-1.61,1.51-1.56,2.36,.09,2.37,0,2.37,2.41,0,2.04,0,4.08,0,6.11Z"/>
  <path class="cls-1" d="M148.56,218.44c0,2.39-.06,4.78,.02,7.16,.06,1.79-1.2,1.16-2.05,1.22-.88,.06-1.85,.31-1.83-1.27,.08-4.83,.06-9.66,0-14.49,0-.97,.23-1.29,1.24-1.29,2.59,0,2.59-.06,2.59,2.57,0,2.04,0,4.07,0,6.11Z"/>
  <path class="cls-1" d="M136.46,220.49c0-1.57,.06-3.15-.02-4.72-.06-1.06,.25-1.42,1.35-1.38,3.49,.11,2.78-.35,2.83,2.69,.04,2.74-.05,5.48,.04,8.22,.04,1.23-.33,1.71-1.56,1.55-.52-.07-1.05-.05-1.57,0-.86,.08-1.1-.29-1.08-1.11,.05-1.75,.02-3.5,.02-5.25Z"/>
  <path class="cls-1" d="M51.24,170.1c1.31,.02,2.59,1.32,2.57,2.6-.02,1.34-1.26,2.49-2.66,2.47-1.45-.02-2.42-1.11-2.36-2.65,.06-1.39,1.13-2.46,2.45-2.43Z"/>
  <path class="cls-1" d="M60.5,172.67c0,1.55-.98,2.53-2.48,2.5-1.36-.03-2.43-1.08-2.46-2.42-.04-1.34,1.16-2.62,2.48-2.65,1.39-.03,2.46,1.09,2.46,2.57Z"/>
  <path class="cls-1" d="M315.42,168.81c.04,1.34-.99,2.41-2.36,2.45-1.48,.04-2.39-.81-2.41-2.29-.03-1.48,.86-2.44,2.29-2.48,1.38-.04,2.44,.95,2.48,2.32Z"/>
  <path class="cls-1" d="M312.7,173.98c.04,1.32-1,2.48-2.29,2.55-1.24,.07-2.68-1.24-2.69-2.43,0-1.21,1.21-2.4,2.48-2.43,1.39-.04,2.45,.94,2.49,2.3Z"/>
  <path class="cls-1" d="M316.28,171.67c1.37,0,2.35,1.05,2.32,2.48-.03,1.45-1.04,2.51-2.41,2.36-1.34-.15-2.24-.84-2.23-2.37,.01-1.47,.93-2.47,2.32-2.47Z"/>
  <path class="cls-1" d="M257.27,169.28c-.11,1.24-1.27,2.28-2.46,2.22-1.14-.06-2.48-1.51-2.38-2.57,.12-1.35,1.41-2.35,2.83-2.18,1.3,.15,2.14,1.2,2.02,2.54Z"/>
  <path class="cls-1" d="M246.5,169.15c-.03-1.32,.9-2.36,2.19-2.43,1.3-.07,2.55,1.04,2.59,2.27,.04,1.16-1.3,2.53-2.46,2.51-1.26-.01-2.29-1.06-2.32-2.36Z"/>
  <path class="cls-1" d="M223.92,168.84c.01-1.39,.93-2.34,2.24-2.34,1.16,0,2.36,1.17,2.4,2.34,.04,1.15-1.14,2.41-2.28,2.44-1.33,.04-2.38-1.04-2.36-2.44Z"/>
  <path class="cls-1" d="M191.96,174.12c-1.37-.02-2.29-.94-2.26-2.25,.02-1.23,1.12-2.32,2.33-2.32,1.19,0,2.38,1.13,2.42,2.3,.04,1.34-1,2.29-2.48,2.27Z"/>
  <path class="cls-1" d="M200.1,171.93c-.01,1.43-.82,2.21-2.29,2.2-1.41-.01-2.27-.88-2.24-2.28,.02-1.32,1.04-2.32,2.33-2.29,1.33,.03,2.22,.99,2.21,2.37Z"/>
  <path class="cls-1" d="M136.34,211.26c.25-1.86,1.01-2.56,2.25-2.62,1.11-.06,2.14,1.16,2.04,2.3-.11,1.35-1.13,2.07-2.2,1.9-.84-.13-1.54-1.14-2.09-1.59Z"/>
</svg>